<svg width="368" height="216" viewBox="0 0 368 216" fill="none" xmlns="http://www.w3.org/2000/svg">
<g clip-path="url(#clip0_68_10)">
<rect width="368" height="216" fill="#F2F2F2"/>
<path d="M269.996 0.124756H0.115112V141.361H269.996V0.124756Z" fill="#E6E6E6"/>
<path d="M262.279 17.8394H7.8324V133.006H262.279V17.8394Z" fill="white"/>
<path d="M269.881 0H0V9.36878H269.881V0Z" fill="#1FB9EE"/>
<path d="M8.52055 6.52665C9.69427 6.52665 10.6458 5.74915 10.6458 4.79006C10.6458 3.83097 9.69427 3.05347 8.52055 3.05347C7.34682 3.05347 6.39532 3.83097 6.39532 4.79006C6.39532 5.74915 7.34682 6.52665 8.52055 6.52665Z" fill="white"/>
<path d="M16.5865 6.52665C17.7603 6.52665 18.7117 5.74915 18.7117 4.79006C18.7117 3.83097 17.7603 3.05347 16.5865 3.05347C15.4128 3.05347 14.4613 3.83097 14.4613 4.79006C14.4613 5.74915 15.4128 6.52665 16.5865 6.52665Z" fill="white"/>
<path d="M24.6525 6.52665C25.8262 6.52665 26.7777 5.74915 26.7777 4.79006C26.7777 3.83097 25.8262 3.05347 24.6525 3.05347C23.4788 3.05347 22.5273 3.83097 22.5273 4.79006C22.5273 5.74915 23.4788 6.52665 24.6525 6.52665Z" fill="white"/>
<path d="M88.9048 27.312H39.1389V71.4304H88.9048V27.312Z" fill="#E6E6E6"/>
<path d="M159.938 27.312H110.172V71.4304H159.938V27.312Z" fill="#E6E6E6"/>
<path d="M230.971 27.312H181.205V71.4304H230.971V27.312Z" fill="#E6E6E6"/>
<path d="M88.9048 79.416H39.1389V123.534H88.9048V79.416Z" fill="#E6E6E6"/>
<path d="M159.938 79.416H110.172V123.534H159.938V79.416Z" fill="#E6E6E6"/>
<path d="M230.971 79.416H181.205V123.534H230.971V79.416Z" fill="#E6E6E6"/>
<path d="M122.201 90.7547L131.293 87.8171L132.351 102.504C132.351 102.504 134.254 106.997 133.619 108.725C133.619 108.725 134.042 111.663 132.985 111.835C131.927 112.008 128.966 112.354 128.757 112.181C128.548 112.008 128.546 111.489 128.546 111.489C128.546 111.489 126.431 112.699 126.219 114.081C126.219 114.081 117.338 116.327 117.127 114.254C116.915 112.18 121.567 110.452 121.567 110.452L125.162 105.96L122.201 90.7547Z" fill="white"/>
<path d="M141.444 90.7547L150.536 87.8171L151.593 102.504C151.593 102.504 153.496 106.997 152.862 108.725C152.862 108.725 153.285 111.663 152.227 111.835C151.17 112.008 148.209 112.354 148 112.181C147.79 112.008 147.788 111.489 147.788 111.489C147.788 111.489 145.673 112.699 145.462 114.081C145.462 114.081 136.581 116.327 136.369 114.254C136.158 112.18 140.81 110.452 140.81 110.452L144.405 105.96L141.444 90.7547Z" fill="white"/>
<path d="M142.333 34.0374C142.333 34.0374 140.397 38.4581 142.64 40.4515L140.77 45.7031C140.77 45.7031 147.414 61.9922 145.516 64.2675C145.516 64.2675 138.428 67.1633 124.251 63.2332L130.01 44.9789L129.187 37.2739L130.326 33.654L132.858 33.4487C132.858 33.4487 131.339 38.1027 134.123 38.8268C136.908 39.5509 139.624 33.565 139.624 33.565L142.333 34.0374Z" fill="#3F3D56"/>
<path d="M52.9196 62.5737L55.3629 63.3905L67.0242 50.867L70.689 65.5684L73.1324 65.2055C74.6996 52.5308 75.9789 39.6029 74.4095 33.4884L65.3582 33.1707L61.2492 43.8806L59.25 51.1407L52.9196 62.5737Z" fill="white"/>
<path d="M201.211 33.3882C201.211 33.3882 197.876 37.1761 198.039 38.7047C198.202 40.2333 200.316 65.1545 200.316 65.1545L205.277 65.3539L203.812 47.4106L205.032 42.5593L208.042 65.1545L214.141 65.2875L208.692 35.9802L207.635 33.3885L201.211 33.3882Z" fill="white"/>
<path d="M220.057 94.4121C219.172 93.544 217.65 93.0747 216.188 92.8209C216.23 92.7125 211.744 91.9549 211.667 92.1108L209.976 91.0098L204.778 93.215L201.858 91.5902L200.501 91.9836C200.556 91.7879 196.289 92.392 196.289 92.392C195.474 92.4159 194.433 92.4577 193.268 92.5309C189.187 92.7874 188.873 101.424 188.873 101.424C190.75 100.797 192.752 100.454 194.78 100.413L195.883 110.743C201.557 110.346 207.507 110.808 213.674 111.941L216.566 103.82L223.301 101.68C223.301 101.68 222.15 96.4641 220.057 94.4121Z" fill="#3F3D56"/>
<path d="M75.5322 89.4933C74.8026 88.7781 73.5489 88.3912 72.3446 88.1822C72.3806 88.0926 68.6823 87.4687 68.6191 87.5973L67.2252 86.6902L62.9433 88.5072L60.5368 87.1687L59.4191 87.493C59.4648 87.3319 55.9489 87.8292 55.9489 87.8292C55.2792 87.8491 54.4194 87.8833 53.4595 87.9438C50.097 88.1552 49.8383 95.2709 49.8383 95.2709C51.3854 94.7537 53.035 94.4714 54.7061 94.438L55.6149 115.274C60.2894 114.946 65.192 115.327 70.2721 116.26L72.6548 97.2455L78.2041 95.4823C78.2041 95.4823 77.2564 91.1847 75.5322 89.4933Z" fill="white"/>
<path d="M313.718 95.0392H337.578V84.6066C337.578 82.0212 336.321 79.5416 334.084 77.7134C331.847 75.8852 328.812 74.8582 325.648 74.8582C322.484 74.8582 319.45 75.8852 317.213 77.7134C314.975 79.5416 313.718 82.0212 313.718 84.6066V95.0392Z" fill="#2F2E41"/>
<path d="M303.067 211.112H297.935L295.494 194.936H303.068L303.067 211.112Z" fill="#FFB6B6"/>
<path d="M304.376 209.743H294.269C292.561 209.743 290.923 210.298 289.715 211.285C288.507 212.271 287.829 213.61 287.828 215.006V215.177H304.376V209.743Z" fill="#2F2E41"/>
<path d="M364.414 205.516L359.945 207.578L348.087 194.473L354.683 191.431L364.414 205.516Z" fill="#FFB6B6"/>
<path d="M364.73 203.798L355.929 207.857C354.442 208.543 353.349 209.684 352.891 211.029C352.433 212.373 352.647 213.812 353.487 215.027L353.59 215.176L368 208.529L364.73 203.798Z" fill="#2F2E41"/>
<path d="M331.615 138.368L332.011 139.986C332.011 139.986 333.199 140.956 332.605 141.442C332.011 141.927 332.209 144.193 332.209 144.193C332.542 148.323 339.147 171.535 340.328 176.068C340.328 176.068 349.437 180.922 356.565 190.468C363.693 200.015 363.891 202.442 363.891 202.442L355.972 205.193L336.172 185.615C336.172 185.615 330.628 182.864 328.647 180.437C326.667 178.01 314.388 152.93 314.388 152.93L307.456 179.142C307.456 179.142 307.852 188.689 306.07 194.837C304.974 198.718 304.312 202.671 304.09 206.649L294.783 205.84C294.783 205.84 295.377 182.864 296.367 180.437C296.367 180.437 292.209 152.445 300.526 141.28L307.228 126.679L313.793 124.614L331.615 138.368Z" fill="#2F2E41"/>
<path d="M325.771 77.4087C313.278 77.5831 313.28 92.7692 325.771 92.9419C338.264 92.7675 338.263 77.5814 325.771 77.4087Z" fill="#FFB8B8"/>
<path d="M316.156 84.7723H318.279L318.857 83.5909L318.568 84.7723H330.182L329.805 82.3003L332.628 84.7723H335.444V83.4329C335.445 82.398 335.197 81.3732 334.713 80.4168C334.229 79.4605 333.52 78.5914 332.625 77.8591C331.73 77.1268 330.667 76.5458 329.498 76.1491C328.328 75.7524 327.074 75.5479 325.808 75.5471C324.541 75.5464 323.287 75.7495 322.117 76.1448C320.946 76.5402 319.883 77.12 318.986 77.8512C318.09 78.5825 317.379 79.4508 316.894 80.4065C316.408 81.3623 316.158 82.3869 316.157 83.4217V83.4329L316.156 84.7723Z" fill="#2F2E41"/>
<path d="M312.888 97.4766L336.497 97.6329L331.509 138.993C331.509 138.993 303.898 137.802 303.881 130.915L306.468 124.796L312.888 97.4766Z" fill="#3F3D56"/>
<path d="M337.511 142.991C337.149 142.628 336.887 142.204 336.747 141.75C336.606 141.295 336.589 140.821 336.697 140.36C336.804 139.9 337.034 139.464 337.37 139.084C337.706 138.704 338.14 138.389 338.642 138.161L337.616 130.879L342.879 129.291L344.151 139.59C344.561 140.303 344.638 141.115 344.366 141.871C344.095 142.628 343.493 143.276 342.676 143.695C341.859 144.114 340.882 144.273 339.93 144.144C338.979 144.014 338.118 143.604 337.511 142.991Z" fill="#FFB6B6"/>
<path d="M333.392 101.196L336.499 97.6481C336.499 97.6481 338.625 97.2626 341.137 99.657C343.648 102.051 345.113 131.981 345.113 131.981L335.904 133.691L330.462 112.484L333.392 101.196Z" fill="#3F3D56"/>
<path d="M281.354 133.653L282.039 160.243L303.105 169.339L341.469 163.741L342.411 136.102L318.091 129.104L281.354 133.653Z" fill="white"/>
<path d="M303.05 169.627L281.707 160.41L281.012 133.417L318.124 128.822L318.203 128.845L342.754 135.909L341.798 163.973L303.05 169.627ZM282.371 160.075L303.16 169.052L341.14 163.51L342.068 136.294L318.058 129.386L281.697 133.888L282.371 160.075Z" fill="#CACACA"/>
<path d="M302.635 140.862L302.553 140.835L281.23 133.908L281.478 133.397L302.719 140.298L342.365 135.83L342.457 136.374L302.635 140.862Z" fill="#CACACA"/>
<path d="M303.013 140.577L302.341 140.583L302.769 169.343L303.442 169.336L303.013 140.577Z" fill="#CACACA"/>
<path d="M299.941 139.486L292.254 136.939L329.256 132.122L336.943 134.667L299.941 139.486Z" fill="#CACACA"/>
<path d="M281.487 141.366L281.221 141.871L290.136 145.007L290.402 144.502L281.487 141.366Z" fill="#CACACA"/>
<path d="M285.524 150.437L285.258 150.942L294.173 154.079L294.439 153.574L285.524 150.437Z" fill="#1FB9EE"/>
<path d="M164.147 170.594L164.832 197.184L185.898 206.281L224.261 200.683L225.204 173.043L200.883 166.046L164.147 170.594Z" fill="white"/>
<path d="M185.843 206.568L164.5 197.352L163.804 170.358L200.916 165.764L200.995 165.786L225.547 172.85L224.59 200.914L185.843 206.568ZM165.164 197.017L185.953 205.994L223.933 200.452L224.86 173.236L200.851 166.328L164.489 170.83L165.164 197.017Z" fill="#CACACA"/>
<path d="M185.428 177.804L185.345 177.777L164.023 170.849L164.271 170.339L185.511 177.239L225.158 172.771L225.25 173.315L185.428 177.804Z" fill="#CACACA"/>
<path d="M185.806 177.518L185.133 177.525L185.561 206.284L186.234 206.278L185.806 177.518Z" fill="#CACACA"/>
<path d="M180.871 175.801L175.047 173.881L212.049 169.063L217.873 170.984L180.871 175.801Z" fill="#CACACA"/>
<path d="M164.28 178.308L164.014 178.812L172.928 181.949L173.194 181.444L164.28 178.308Z" fill="#CACACA"/>
<path d="M168.317 187.379L168.051 187.884L176.965 191.02L177.231 190.515L168.317 187.379Z" fill="#1FB9EE"/>
<path d="M200.744 174.24L201.539 205.107L225.994 215.667L270.528 209.168L271.621 177.083L243.39 168.96L200.744 174.24Z" fill="#1FB9EE"/>
<path d="M225.93 216L201.154 205.301L200.346 173.966L243.427 168.633L243.519 168.659L272.019 176.859L270.909 209.437L225.93 216ZM201.925 204.912L226.057 215.333L270.146 208.9L271.223 177.307L243.352 169.287L201.142 174.513L201.925 204.912Z" fill="#3F3D56"/>
<path d="M225.448 182.609L225.352 182.578L200.6 174.536L200.888 173.943L225.545 181.954L271.568 176.767L271.674 177.399L225.448 182.609Z" fill="#3F3D56"/>
<path d="M225.887 182.278L225.106 182.285L225.603 215.67L226.384 215.663L225.887 182.278Z" fill="#3F3D56"/>
<path d="M220.554 180.299L213.397 178.056L256.35 172.463L263.508 174.706L220.554 180.299Z" fill="#3F3D56"/>
<path d="M200.898 183.194L200.59 183.78L210.938 187.421L211.247 186.835L200.898 183.194Z" fill="#3F3D56"/>
<path d="M205.584 193.724L205.276 194.31L215.624 197.951L215.933 197.365L205.584 193.724Z" fill="white"/>
<path d="M293.298 138.049C293.818 137.85 294.277 137.56 294.645 137.2C295.012 136.84 295.279 136.419 295.425 135.965C295.572 135.512 295.595 135.038 295.493 134.577C295.391 134.115 295.167 133.678 294.836 133.295L299.617 127.094L295.714 123.8L289.112 132.635C288.362 133.133 287.862 133.837 287.705 134.616C287.548 135.395 287.747 136.194 288.263 136.861C288.779 137.529 289.576 138.018 290.504 138.237C291.432 138.456 292.426 138.39 293.298 138.05V138.049Z" fill="#FFB6B6"/>
<path d="M316.516 99.1068L313.09 97.2625C313.09 97.2625 310.447 97.7468 307.636 102.165C304.824 106.584 293.487 126.339 293.487 126.339L298.147 130.204L310.58 114.706L316.516 99.1068Z" fill="#3F3D56"/>
<rect x="18.7516" y="159.84" width="330.497" height="47.52" fill="#E1F3FF"/>
<path d="M92.8744 182.136H89.0024V183.912H91.0504V188.024H92.8744V182.136ZM92.8744 187.272H91.2104C90.4424 187.864 89.5464 188.44 88.7944 188.872L89.6744 190.776C90.5864 190.104 91.3384 189.48 92.0744 188.856C93.0344 190.088 94.3144 190.552 96.2344 190.632C98.2024 190.728 101.61 190.696 103.594 190.6C103.69 190.04 103.978 189.16 104.186 188.728C101.978 188.904 98.1704 188.952 96.2664 188.856C94.6184 188.792 93.5144 188.344 92.8744 187.272ZM89.2264 177.464C90.2184 178.2 91.4184 179.32 91.9304 180.088L93.3704 178.712C92.7944 177.944 91.5464 176.904 90.5544 176.232L89.2264 177.464ZM95.7064 179C97.1784 179.576 99.1624 180.488 100.138 181.096L101.45 179.96C100.362 179.336 98.3464 178.472 96.9224 177.976L95.7064 179ZM94.2504 179.912V188.2H96.0584V181.304H102.394V179.912H94.2504ZM101.498 179.912V186.52C101.498 186.696 101.45 186.76 101.258 186.76C101.098 186.76 100.538 186.76 100.026 186.744C100.234 187.16 100.442 187.784 100.506 188.248C101.466 188.248 102.17 188.248 102.666 187.976C103.194 187.72 103.322 187.32 103.322 186.536V179.912H101.498ZM94.3944 176.424V177.88H102.026V176.424H94.3944ZM95.2584 182.168V183.496H102.122V182.168H95.2584ZM95.2584 184.408V185.8H102.122V184.408H95.2584ZM97.8984 180.568V188.136H99.6104V180.568H97.8984ZM101.338 176.424V176.76C100.73 177.496 99.3384 178.504 98.1384 179.08C98.4104 179.336 98.8744 179.832 99.0984 180.152C100.57 179.448 102.154 178.312 103.29 177.256L102.154 176.328L101.77 176.424H101.338ZM112.586 176.728V178.456H119.562V176.728H112.586ZM112.026 176.728V182.776C112.026 185.064 111.93 187.992 110.506 189.992C110.922 190.168 111.706 190.68 112.026 190.984C113.578 188.808 113.786 185.304 113.786 182.776V176.728H112.026ZM117.69 180.728V181.032C117.226 185.176 115.514 188.12 112.778 189.32C113.162 189.672 113.642 190.408 113.882 190.888C117.034 189.24 118.89 186.168 119.466 180.936L118.346 180.68L118.026 180.728H117.69ZM114.922 181.896L113.354 182.232C114.282 186.248 115.914 189.336 118.938 190.968C119.21 190.488 119.77 189.768 120.186 189.432C117.354 188.136 115.69 185.304 114.922 181.896ZM113.098 180.728V182.392H118.154V180.728H113.098ZM106.522 186.968C106.202 188.088 105.562 189.224 104.778 189.96C105.21 190.184 105.946 190.696 106.282 190.984C107.082 190.12 107.85 188.744 108.282 187.384L106.522 186.968ZM108.474 187.56C108.938 188.248 109.466 189.192 109.69 189.784L111.242 189.032C110.986 188.44 110.458 187.576 109.962 186.92L108.474 187.56ZM107.45 180.936H109.162V182.408H107.45V180.936ZM107.45 183.816H109.162V185.32H107.45V183.816ZM107.45 178.04H109.162V179.512H107.45V178.04ZM105.754 176.52V186.84H110.938V176.52H105.754ZM129.946 178.52L127.754 178.456C127.594 180.136 127.242 181.976 126.778 183.48C126.106 185.64 125.498 186.664 124.81 186.664C124.202 186.664 123.562 185.88 123.562 184.264C123.562 182.248 125.418 179.48 128.81 179.48C131.578 179.48 133.146 181.272 133.146 183.784C133.146 186.136 131.546 187.592 129.514 188.088C129.082 188.184 128.634 188.264 128.01 188.344L129.226 190.232C133.258 189.608 135.322 187.224 135.322 183.864C135.322 180.36 132.81 177.608 128.858 177.608C124.714 177.608 121.498 180.776 121.498 184.456C121.498 187.16 122.97 189.128 124.762 189.128C126.506 189.128 127.882 187.144 128.842 183.912C129.402 182.024 129.722 180.152 129.946 178.52ZM145.978 176.2V189.672H147.946V176.2H145.978ZM141.706 180.744V182.6H152.01V180.744H141.706ZM142.138 188.456V190.312H151.738V188.456H142.138ZM139.146 180.6V190.888H141.05V178.744L141.018 178.712L139.146 180.6ZM140.842 175.912C139.93 178.28 138.378 180.632 136.762 182.12C137.114 182.584 137.674 183.624 137.866 184.072C139.738 182.248 141.562 179.32 142.698 176.504L140.842 175.912ZM161.098 180.648V182.376H165.882V180.648H161.098ZM161.098 184.664V186.392H165.882V184.664H161.098ZM160.106 176.696V189.832H161.962V178.424H165.034V189.832H166.97V176.696H160.106ZM158.634 188.776V190.504H168.042V188.776H158.634ZM155.37 175.912C155.002 177.032 154.314 178.568 153.738 179.528L155.034 180.056C155.658 179.176 156.41 177.752 157.066 176.504L155.37 175.912ZM157.29 177.8C156.442 179.512 154.986 181.864 153.754 183.304L154.922 183.896C156.154 182.536 157.722 180.312 158.906 178.472L157.29 177.8ZM152.906 179.704C153.722 180.472 154.698 181.576 155.098 182.344L156.074 180.84C155.658 180.136 154.666 179.112 153.802 178.376L152.906 179.704ZM156.89 181.656C157.498 182.76 158.09 184.216 158.282 185.128L159.738 184.456C159.53 183.528 158.89 182.136 158.25 181.064L156.89 181.656ZM152.89 182.952L153.05 184.616C154.634 184.52 156.714 184.376 158.73 184.216V182.696C156.586 182.808 154.378 182.904 152.89 182.952ZM157.178 185.672C157.562 186.648 157.978 187.944 158.122 188.776L159.626 188.232C159.434 187.416 159.002 186.168 158.586 185.208L157.178 185.672ZM153.578 185.304C153.45 186.664 153.194 188.088 152.73 189.032C153.13 189.192 153.85 189.528 154.186 189.736C154.65 188.712 155.002 187.112 155.162 185.576L153.578 185.304ZM155.434 183.8V190.936H157.146V183.8H155.434ZM171.898 177.384L171.978 179.432C172.394 179.384 172.954 179.32 173.29 179.304C174.01 179.256 175.402 179.208 176.042 179.192C175.562 180.184 174.906 181.752 174.346 183.016C173.77 184.28 173.194 185.752 172.666 186.536C172.362 186.936 172.154 187.08 171.834 187.08C171.45 187.08 171.146 186.808 171.146 186.28C171.146 185.112 172.49 183.848 174.826 183.848C178.122 183.848 180.938 185.672 182.906 187.416L183.834 185.192C182.154 184.04 178.89 182.056 175.162 182.056C171.738 182.056 169.29 184.024 169.29 186.584C169.29 188.216 170.346 189.176 171.738 189.176C172.842 189.176 173.594 188.744 174.234 187.768C174.89 186.76 175.658 184.856 176.298 183.384C177.018 181.72 177.882 179.656 178.426 178.744C178.554 178.536 178.746 178.328 178.954 178.088L177.69 177.08C177.402 177.192 176.986 177.288 176.586 177.32C175.85 177.384 174.154 177.448 173.226 177.448C172.89 177.448 172.33 177.416 171.898 177.384ZM182.426 181.16L180.33 180.92C180.394 181.416 180.378 182.056 180.346 182.68C180.202 184.552 179.722 187.544 175.77 189.24L177.482 190.632C181.306 188.648 182.202 185.704 182.426 181.16ZM191.754 176.968L189.386 176.712C189.402 177.912 189.226 179.272 188.922 180.712C188.474 182.728 187.274 186.952 185.37 189.512L187.466 190.344C189.146 187.64 190.426 183.08 190.954 180.824C191.13 180.008 191.322 179.016 191.482 178.296C191.562 177.896 191.658 177.384 191.754 176.968ZM197.274 178.568L195.354 179.384C196.506 180.808 197.642 183.624 198.058 185.4L200.09 184.456C199.594 182.936 198.25 179.96 197.274 178.568ZM185.274 180.248L185.466 182.408C185.946 182.328 186.778 182.216 187.242 182.152C188.122 182.04 190.89 181.688 191.834 181.688C192.842 181.688 193.386 181.88 193.386 183.16C193.386 184.728 193.178 186.68 192.73 187.576C192.49 188.104 192.074 188.264 191.53 188.264C191.114 188.264 190.202 188.104 189.578 187.928L189.93 190.04C190.474 190.168 191.226 190.264 191.85 190.264C193.05 190.264 193.946 189.912 194.474 188.792C195.146 187.416 195.386 184.824 195.386 182.936C195.386 180.616 194.186 179.864 192.49 179.864C191.306 179.864 188.266 180.216 186.986 180.248C186.394 180.264 185.85 180.28 185.274 180.248ZM196.986 176.36L195.706 176.872C196.138 177.496 196.634 178.44 196.97 179.096L198.25 178.552C197.946 177.96 197.386 176.936 196.986 176.36ZM198.874 175.624L197.61 176.152C198.042 176.76 198.57 177.688 198.89 178.36L200.17 177.816C199.882 177.256 199.29 176.232 198.874 175.624ZM203.594 181.768V183.64H212.25V181.768H203.594ZM211.626 181.768V182.12C211.482 186.568 211.306 188.36 210.922 188.776C210.746 188.952 210.57 189 210.282 189C209.882 189 209.05 188.984 208.154 188.904C208.506 189.448 208.762 190.28 208.794 190.84C209.738 190.872 210.666 190.888 211.226 190.808C211.834 190.712 212.282 190.568 212.682 190.024C213.242 189.368 213.434 187.464 213.61 182.6C213.626 182.36 213.642 181.768 213.642 181.768H211.626ZM205.402 176.104C204.442 178.536 202.666 180.776 200.65 182.104C201.114 182.472 201.946 183.24 202.314 183.656C204.33 182.072 206.282 179.496 207.482 176.712L205.402 176.104ZM211.498 176.072L209.61 176.824C210.874 179.272 212.842 181.864 214.65 183.528C215.018 182.984 215.754 182.2 216.282 181.784C214.522 180.44 212.506 178.104 211.498 176.072ZM206.458 182.312C206.202 185.16 205.818 187.864 201.53 189.272C201.978 189.688 202.538 190.504 202.778 191.032C207.546 189.256 208.234 185.912 208.538 182.312H206.458ZM223.866 176.856L221.498 176.6C221.514 177.8 221.338 179.16 221.034 180.6C220.586 182.616 219.386 186.84 217.482 189.4L219.578 190.232C221.242 187.528 222.538 182.968 223.066 180.712C223.226 179.896 223.434 178.904 223.578 178.184C223.674 177.784 223.77 177.272 223.866 176.856ZM229.386 178.344L227.466 179.16C228.618 180.584 229.754 183.464 230.17 185.256L232.202 184.312C231.706 182.776 230.362 179.736 229.386 178.344ZM217.386 180.136L217.578 182.296C218.058 182.216 218.89 182.104 219.354 182.04C220.234 181.928 222.986 181.576 223.946 181.576C224.938 181.576 225.498 181.768 225.498 183.048C225.498 184.616 225.29 186.568 224.842 187.464C224.586 187.992 224.186 188.152 223.642 188.152C223.226 188.152 222.314 187.992 221.69 187.816L222.026 189.928C222.586 190.056 223.338 190.152 223.962 190.152C225.162 190.152 226.042 189.8 226.586 188.68C227.258 187.304 227.482 184.712 227.482 182.824C227.482 180.504 226.282 179.752 224.602 179.752C223.402 179.752 220.378 180.104 219.098 180.136C218.506 180.152 217.962 180.168 217.386 180.136ZM237.818 176.6L237.322 178.536C238.57 178.856 242.122 179.592 243.754 179.816L244.234 177.848C242.826 177.704 239.338 177.08 237.818 176.6ZM237.93 179.816L235.77 179.528C235.674 181.512 235.29 184.648 234.97 186.216L236.826 186.664C236.954 186.344 237.13 186.088 237.418 185.752C238.426 184.536 240.042 183.864 241.85 183.864C243.258 183.864 244.234 184.616 244.234 185.656C244.234 187.704 241.706 188.872 236.89 188.2L237.514 190.296C244.154 190.872 246.474 188.632 246.474 185.704C246.474 183.768 244.842 182.04 242.042 182.04C240.362 182.04 238.762 182.52 237.322 183.576C237.434 182.648 237.706 180.712 237.93 179.816ZM249.802 179L249.946 180.872C250.634 180.904 251.306 180.92 251.946 180.92C253.994 180.936 256.298 180.52 257.674 180.136L257.626 178.28C256.074 178.776 253.914 179.112 251.93 179.112C251.354 179.112 250.49 179.08 249.802 179ZM256.026 176.6L253.818 176.392C253.77 177.624 253.418 179.112 253.034 180.264C252.41 181.992 250.97 184.792 249.53 186.552L251.466 187.544C252.826 185.656 254.266 182.68 255.002 180.376C255.434 179.016 255.818 177.448 256.026 176.6ZM259.786 181.592H257.77C257.85 183.272 258.026 186.216 258.026 187.176C258.026 188.072 257.674 188.68 256.586 188.68C255.706 188.68 255.194 188.264 255.194 187.672C255.194 187.112 255.802 186.712 256.73 186.712C259.146 186.712 260.97 188.36 262.122 189.432L263.178 187.704C261.85 186.504 259.642 185.096 256.842 185.096C254.618 185.096 253.306 186.312 253.306 187.864C253.306 189.624 254.874 190.52 256.858 190.52C259.146 190.52 259.946 189.352 259.946 187.864C259.946 186.968 259.802 184.584 259.77 183.64C259.754 182.936 259.738 182.264 259.786 181.592ZM262.538 182.44L263.674 180.744C262.842 180.152 260.874 179.08 259.722 178.584L258.682 180.152C259.786 180.648 261.61 181.688 262.538 182.44ZM268.634 178.056L266.17 178.024C266.282 178.52 266.298 179.208 266.298 179.64C266.298 180.616 266.314 182.504 266.474 183.976C266.922 188.264 268.442 189.832 270.218 189.832C271.498 189.832 272.49 188.872 273.562 186.072L271.946 184.136C271.642 185.4 271.018 187.288 270.25 187.288C269.242 187.288 268.762 185.704 268.538 183.4C268.442 182.232 268.442 181.048 268.442 180.008C268.442 179.56 268.522 178.616 268.634 178.056ZM276.634 178.408L274.602 179.08C276.346 181.064 277.21 184.936 277.45 187.528L279.562 186.696C279.386 184.248 278.154 180.248 276.634 178.408Z" fill="#333333"/>
</g>
<defs>
<clipPath id="clip0_68_10">
<rect width="368" height="216" fill="white"/>
</clipPath>
</defs>
</svg>
