<svg width="368" height="216" viewBox="0 0 368 216" fill="none" xmlns="http://www.w3.org/2000/svg">
<g clip-path="url(#clip0_68_66)">
<rect width="368" height="216" fill="#F2F2F2"/>
<path d="M124.232 200.924L118.623 204.984L123.08 199.103C119.568 194.096 113.824 189.768 113.824 189.768C113.824 189.768 101.908 198.745 101.908 205.801C101.908 212.857 107.243 215.321 113.824 215.321C120.406 215.321 125.741 212.857 125.741 205.801C125.667 204.111 125.153 202.452 124.232 200.924Z" fill="#F2F2F2"/>
<path d="M117.18 205.204V205.552C117.154 209.595 116.287 212.749 114.585 214.97C114.561 215.003 114.535 215.034 114.511 215.067L114.32 214.975L114.138 214.886C116.026 212.487 116.694 209.097 116.718 205.571C116.72 205.457 116.722 205.342 116.72 205.226C116.714 203.733 116.598 202.223 116.411 200.756C116.398 200.643 116.383 200.527 116.368 200.412C116.109 198.477 115.737 196.627 115.356 195.021C115.33 194.907 115.301 194.794 115.273 194.682C114.613 191.965 113.941 189.997 113.788 189.561C113.77 189.508 113.759 189.478 113.757 189.471L113.965 189.425L113.967 189.423L114.178 189.377C114.18 189.384 114.217 189.482 114.278 189.664C114.513 190.346 115.122 192.197 115.719 194.639C115.746 194.749 115.774 194.863 115.8 194.976C116.111 196.28 116.416 197.736 116.657 199.265C116.718 199.649 116.773 200.028 116.821 200.402C116.838 200.517 116.854 200.632 116.867 200.746C117.068 202.332 117.173 203.818 117.18 205.204Z" fill="white"/>
<path d="M115.719 194.639C115.573 194.654 115.424 194.67 115.273 194.682C114.862 194.715 114.45 194.732 114.038 194.732C112.279 194.733 110.543 194.425 108.957 193.829C108.865 193.921 108.773 194.012 108.679 194.105C110.348 194.745 112.18 195.077 114.038 195.076C114.478 195.076 114.918 195.057 115.356 195.021C115.505 195.009 115.654 194.993 115.8 194.976C117.012 194.839 118.189 194.559 119.293 194.144C119.199 194.05 119.107 193.957 119.017 193.865C117.973 194.249 116.861 194.51 115.719 194.639Z" fill="white"/>
<path d="M116.821 200.402C116.67 200.409 116.519 200.412 116.368 200.412C116.322 200.414 116.273 200.414 116.227 200.414C114.322 200.414 112.446 200.052 110.757 199.358C109.069 198.665 107.619 197.66 106.53 196.431C106.443 196.533 106.355 196.634 106.27 196.738C107.404 197.982 108.899 198.995 110.631 199.694C112.362 200.393 114.281 200.758 116.227 200.758C116.289 200.758 116.35 200.758 116.411 200.756C116.565 200.755 116.716 200.751 116.867 200.746C119.205 200.652 121.459 200.03 123.36 198.955C123.29 198.854 123.22 198.752 123.148 198.651C121.3 199.706 119.102 200.314 116.821 200.402Z" fill="white"/>
<path d="M117.18 205.204C117.027 205.214 116.874 205.221 116.72 205.226C116.556 205.231 116.392 205.235 116.227 205.235C113.668 205.233 111.178 204.578 109.13 203.37C107.083 202.162 105.588 200.465 104.87 198.533C104.772 198.673 104.673 198.811 104.579 198.95C105.388 200.877 106.949 202.555 109.04 203.745C111.131 204.935 113.646 205.577 116.227 205.579C116.392 205.579 116.556 205.578 116.718 205.571C116.874 205.567 117.027 205.56 117.18 205.552C120.276 205.361 123.165 204.253 125.261 202.451C125.215 202.323 125.162 202.198 125.11 202.07C123.086 203.886 120.241 205.01 117.18 205.204Z" fill="white"/>
<path d="M334.658 207.103L327.046 207.448L335.235 205.121C336.555 199.497 335.601 193.288 335.601 193.288C335.601 193.288 319.147 194.292 313.459 199.75C307.771 205.208 309.911 209.772 315.002 213.052C320.092 216.332 326.205 217.085 331.893 211.627C333.198 210.283 334.139 208.744 334.658 207.103Z" fill="#F2F2F2"/>
<path d="M325.753 206.899L325.473 207.168C322.193 210.282 318.98 212.29 315.873 213.16C315.828 213.173 315.783 213.184 315.738 213.198L315.664 213.032L315.595 212.872C318.989 211.958 322.239 209.668 325.1 206.953C325.193 206.866 325.288 206.778 325.379 206.688C326.578 205.53 327.705 204.304 328.744 203.076C328.825 202.982 328.906 202.885 328.988 202.788C330.348 201.162 331.551 199.546 332.551 198.114C332.622 198.013 332.692 197.911 332.76 197.81C334.441 195.38 335.507 193.523 335.74 193.109C335.769 193.059 335.784 193.031 335.788 193.025L335.986 193.093L335.99 193.092L336.19 193.161C336.186 193.168 336.135 193.262 336.036 193.434C335.667 194.078 334.646 195.813 333.14 197.999C333.072 198.098 333.002 198.2 332.931 198.301C332.121 199.464 331.182 200.742 330.136 202.045C329.873 202.373 329.61 202.693 329.347 203.006C329.267 203.104 329.186 203.201 329.104 203.295C327.982 204.622 326.865 205.824 325.753 206.899Z" fill="white"/>
<path d="M333.14 197.999C333.014 197.938 332.887 197.876 332.76 197.81C332.416 197.631 332.084 197.439 331.764 197.233C330.403 196.359 329.309 195.255 328.562 194.003C328.417 194.028 328.273 194.053 328.125 194.078C328.899 195.405 330.049 196.575 331.487 197.5C331.827 197.719 332.183 197.924 332.551 198.114C332.676 198.179 332.804 198.241 332.931 198.301C333.978 198.799 335.115 199.169 336.303 199.398C336.307 199.278 336.31 199.16 336.314 199.045C335.197 198.821 334.127 198.469 333.14 197.999Z" fill="white"/>
<path d="M329.347 203.006C329.224 202.936 329.104 202.863 328.988 202.788C328.951 202.766 328.913 202.742 328.878 202.719C327.404 201.77 326.245 200.555 325.498 199.177C324.751 197.799 324.439 196.3 324.588 194.806C324.438 194.841 324.289 194.876 324.139 194.914C324.014 196.441 324.353 197.97 325.129 199.374C325.905 200.777 327.095 202.016 328.6 202.986C328.648 203.016 328.695 203.047 328.744 203.076C328.864 203.151 328.983 203.224 329.105 203.295C330.989 204.387 333.234 205.03 335.57 205.146C335.598 205.032 335.626 204.919 335.652 204.804C333.372 204.7 331.181 204.075 329.347 203.006Z" fill="white"/>
<path d="M325.753 206.899C325.626 206.831 325.502 206.76 325.379 206.687C325.248 206.61 325.118 206.53 324.991 206.449C323.013 205.171 321.615 203.424 321.005 201.47C320.395 199.515 320.607 197.458 321.609 195.605C321.42 195.664 321.233 195.722 321.048 195.783C320.12 197.677 319.975 199.752 320.633 201.715C321.291 203.677 322.719 205.427 324.714 206.715C324.841 206.797 324.969 206.877 325.1 206.953C325.223 207.028 325.347 207.099 325.473 207.168C328.021 208.564 331.149 209.146 334.223 208.797C334.29 208.675 334.351 208.552 334.413 208.427C331.383 208.823 328.277 208.275 325.753 206.899Z" fill="white"/>
<path d="M70.593 211.159L76.5282 211.158L77.6297 193.062L70.5917 193.159L70.593 211.159Z" fill="#FFB6B6"/>
<path d="M69.0789 209.635L80.7675 209.635H80.768C82.7435 209.635 84.6381 210.252 86.035 211.35C87.4319 212.449 88.2168 213.938 88.2169 215.491V215.682L69.0792 215.682L69.0789 209.635Z" fill="#2F2E41"/>
<path d="M46.5993 211.159L52.5346 211.158L53.711 193.062L46.598 193.159L46.5993 211.159Z" fill="#FFB6B6"/>
<path d="M45.0852 209.635L56.7739 209.635H56.7743C58.7499 209.635 60.6444 210.252 62.0414 211.35C63.4383 212.449 64.2231 213.938 64.2233 215.491V215.682L45.0856 215.682L45.0852 209.635Z" fill="#2F2E41"/>
<path d="M104.416 133.631C104.392 133.091 104.218 132.561 103.906 132.079C103.594 131.597 103.151 131.175 102.609 130.842C102.066 130.509 101.438 130.274 100.768 130.152C100.097 130.031 99.4011 130.027 98.7284 130.14L90.0625 118.896L86.3377 125.069L95.1381 134.8C95.4548 135.676 96.1692 136.43 97.1458 136.919C98.1225 137.409 99.2935 137.6 100.437 137.456C101.581 137.312 102.617 136.843 103.351 136.138C104.084 135.433 104.463 134.541 104.416 133.631Z" fill="#FFB6B6"/>
<path d="M104.416 133.631C104.392 133.091 104.218 132.561 103.906 132.079C103.594 131.597 103.151 131.175 102.609 130.842C102.066 130.509 101.438 130.274 100.768 130.152C100.097 130.031 99.4011 130.027 98.7285 130.14L90.0625 118.896L86.3378 125.069L95.1381 134.8C95.4549 135.676 96.1692 136.43 97.1459 136.919C98.1225 137.409 99.2936 137.6 100.437 137.456C101.581 137.312 102.617 136.843 103.351 136.138C104.084 135.433 104.463 134.541 104.416 133.631Z" fill="#FFB6B6"/>
<path d="M32.0005 145.392C32.4049 144.955 32.6824 144.453 32.8133 143.922C32.9443 143.391 32.9256 142.844 32.7586 142.319C32.5916 141.794 32.2803 141.305 31.8466 140.885C31.413 140.465 30.8675 140.125 30.2486 139.889L32.2152 126.833L24.4489 129.897L23.7721 141.826C23.3363 142.67 23.3094 143.61 23.6963 144.468C24.0833 145.326 24.8572 146.043 25.8715 146.483C26.8858 146.922 28.0699 147.054 29.1995 146.853C30.3292 146.652 31.3257 146.132 32.0005 145.392Z" fill="#FFB6B6"/>
<path d="M32.0005 145.393C32.4049 144.955 32.6824 144.453 32.8133 143.922C32.9443 143.391 32.9256 142.844 32.7586 142.319C32.5916 141.795 32.2803 141.305 31.8466 140.885C31.413 140.466 30.8675 140.126 30.2486 139.889L32.2152 126.833L24.4489 129.898L23.7721 141.826C23.3363 142.67 23.3094 143.61 23.6963 144.468C24.0833 145.326 24.8572 146.043 25.8715 146.483C26.8858 146.923 28.0699 147.054 29.1995 146.853C30.3292 146.652 31.3257 146.133 32.0005 145.393Z" fill="#FFB6B6"/>
<path d="M74.073 132.167L78.2761 134.124C78.2761 134.124 81.6913 135.834 80.5428 147.722C79.3944 159.611 78.022 207.244 78.022 207.244H70.5718L58.5058 150.344L54.1031 207.86L46.2608 207.552C46.2608 207.552 30.2382 142.07 37.1712 134.963L74.073 132.167Z" fill="#2F2E41"/>
<path d="M74.073 132.167L78.2761 134.124C78.2761 134.124 81.6913 135.833 80.5428 147.722C79.3944 159.611 78.022 207.243 78.022 207.243H70.5718L58.5058 150.344L54.1031 207.86L46.2608 207.552C46.2608 207.552 30.2382 142.07 37.1712 134.963L74.073 132.167Z" fill="#2F2E41"/>
<path d="M34.6345 90.093C34.6345 90.093 55.0739 84.9267 71.565 89.7435L70.2149 114.754L80.3873 134.263C80.3873 134.263 48.0482 144.126 37.2712 135.837L40.4143 116.295L34.6345 90.093Z" fill="#1FB9EE"/>
<path d="M34.6346 90.093C34.6346 90.093 55.074 84.9267 71.5651 89.7435L70.2151 114.754L80.3874 134.263C80.3874 134.263 48.0483 144.126 37.2713 135.837L40.4144 116.295L34.6346 90.093Z" fill="#1FB9EE"/>
<path d="M66.0702 92.6807L70.3534 89.7434C70.3534 89.7434 73.2105 89.7168 75.6693 93.1729C78.128 96.6289 82.5825 107.785 82.5825 107.785L96.8434 126.777L90.5696 130.169L67.9517 105.298L66.0702 92.6807Z" fill="#1FB9EE"/>
<path d="M66.0703 92.681L70.3535 89.7437C70.3535 89.7437 73.2106 89.7171 75.6694 93.1731C78.1281 96.6292 82.5826 107.785 82.5826 107.785L96.8435 126.778L90.5697 130.169L67.9518 105.299L66.0703 92.681Z" fill="#1FB9EE"/>
<path d="M35.3927 91.3263L35.6848 89.7593C35.6848 89.7593 27.7209 90.2225 27.0472 96.256C26.3735 102.289 23.9103 136.335 23.9103 136.335L31.7878 137.568L39.6243 102.625L35.3927 91.3263Z" fill="#1FB9EE"/>
<path d="M35.3927 91.3263L35.6848 89.7593C35.6848 89.7593 27.7209 90.2225 27.0472 96.256C26.3735 102.289 23.9103 136.335 23.9103 136.335L31.7878 137.568L39.6243 102.625L35.3927 91.3263Z" fill="#1FB9EE"/>
<path d="M63.002 81.0538L39.1087 84.753C38.6171 84.8287 38.1075 84.7479 37.6915 84.5285C37.2755 84.3091 36.9873 83.9688 36.8899 83.5825L34.8619 75.4851C34.1433 72.6081 34.9073 69.6244 36.9858 67.1901C39.0644 64.7558 42.2874 63.0701 45.9462 62.5036C49.6051 61.9371 53.4003 62.5362 56.4975 64.1692C59.5947 65.8022 61.7403 68.3354 62.4627 71.2118L64.4907 79.3092C64.5869 79.6958 64.4842 80.0965 64.2051 80.4235C63.926 80.7506 63.4933 80.9772 63.002 81.0538Z" fill="#2F2E41"/>
<path d="M63.0018 81.0535L39.1086 84.7528C38.617 84.8284 38.1073 84.7477 37.6914 84.5283C37.2754 84.3088 36.9871 83.9686 36.8898 83.5823L34.8618 75.4849C34.1432 72.6078 34.9072 69.6241 36.9857 67.1898C39.0643 64.7555 42.2872 63.0698 45.9461 62.5033C49.6049 61.9369 53.4002 62.536 56.4973 64.169C59.5945 65.8019 61.7402 68.3351 62.4626 71.2116L64.4906 79.309C64.5868 79.6955 64.4841 80.0963 64.205 80.4233C63.9259 80.7503 63.4932 80.977 63.0018 81.0535Z" fill="#2F2E41"/>
<path d="M51.8516 82.4286C57.5469 82.4286 62.1638 78.7986 62.1638 74.3206C62.1638 69.8427 57.5469 66.2126 51.8516 66.2126C46.1563 66.2126 41.5393 69.8427 41.5393 74.3206C41.5393 78.7986 46.1563 82.4286 51.8516 82.4286Z" fill="#FFB6B6"/>
<path d="M51.8517 82.4289C57.547 82.4289 62.164 78.7988 62.164 74.3209C62.164 69.843 57.547 66.2129 51.8517 66.2129C46.1564 66.2129 41.5394 69.843 41.5394 74.3209C41.5394 78.7988 46.1564 82.4289 51.8517 82.4289Z" fill="#FFB6B6"/>
<path d="M65.9304 71.516L51.3202 73.778L50.7573 72.152L50.4213 73.9172L48.1717 74.2655L47.0561 71.0428L46.3901 74.5413L42.0371 75.2153L41.9966 75.0533C41.4299 72.7772 42.0347 70.4173 43.6782 68.4913C45.3218 66.5653 47.8699 65.2306 50.7635 64.7799L52.8234 64.461C55.7183 64.0155 58.7198 64.491 61.1694 65.7832C63.619 67.0755 65.3166 69.079 65.8898 71.3541L65.9304 71.516Z" fill="#2F2E41"/>
<path d="M65.9303 71.5158L51.3202 73.7778L50.7573 72.1518L50.4213 73.917L48.1716 74.2653L47.0561 71.0425L46.39 74.5411L42.0371 75.215L41.9965 75.0531C41.4298 72.777 42.0346 70.417 43.6782 68.4911C45.3217 66.5651 47.8698 65.2304 50.7635 64.7797L52.8233 64.4608C55.7183 64.0152 58.7198 64.4907 61.1693 65.783C63.6189 67.0753 65.3165 69.0787 65.8897 71.3538L65.9303 71.5158Z" fill="#2F2E41"/>
<path d="M53.7695 84.0535C53.6594 84.0704 53.5478 84.0798 53.4357 84.0815L42.3658 84.2537L38.8842 70.3521L50.6608 68.5288L50.4362 68.8412C47.3112 73.189 51.878 78.7475 54.8783 81.6738C55.099 81.888 55.2384 82.1468 55.2803 82.4205C55.3221 82.6942 55.2648 82.9717 55.115 83.2209C54.9904 83.4334 54.8035 83.6197 54.5696 83.7645C54.3357 83.9092 54.0615 84.0083 53.7695 84.0535Z" fill="#2F2E41"/>
<path d="M53.7693 84.0535C53.6593 84.0704 53.5476 84.0798 53.4356 84.0815L42.3657 84.2537L38.884 70.3521L50.6607 68.5288L50.4361 68.8412C47.3111 73.189 51.8779 78.7475 54.8782 81.6738C55.0989 81.888 55.2383 82.1468 55.2801 82.4205C55.322 82.6942 55.2647 82.9717 55.1149 83.2209C54.9903 83.4334 54.8034 83.6197 54.5695 83.7645C54.3356 83.9092 54.0614 84.0083 53.7693 84.0535Z" fill="#2F2E41"/>
<path d="M210.973 0.0910645H68.2961V58.9936H210.973V0.0910645Z" fill="#F2F2F2"/>
<path d="M210.973 0.0908203H68.296V58.9934H210.973V0.0908203Z" fill="#F2F2F2"/>
<path d="M210.886 0H68.2089V6.82843H210.886V0Z" fill="#E6E6E6"/>
<path d="M210.886 0H68.2089V6.82843H210.886V0Z" fill="#E6E6E6"/>
<path d="M208.303 9.59692H71.5226V55.8885H208.303V9.59692Z" fill="white"/>
<path d="M208.303 9.59717H71.5227V55.8888H208.303V9.59717Z" fill="white"/>
<path d="M81.7292 4.52621C82.5226 4.52621 83.1658 4.02049 83.1658 3.39665C83.1658 2.77281 82.5226 2.26709 81.7292 2.26709C80.9357 2.26709 80.2925 2.77281 80.2925 3.39665C80.2925 4.02049 80.9357 4.52621 81.7292 4.52621Z" fill="white"/>
<path d="M81.7291 4.52621C82.5225 4.52621 83.1657 4.02049 83.1657 3.39665C83.1657 2.77281 82.5225 2.26709 81.7291 2.26709C80.9356 2.26709 80.2924 2.77281 80.2924 3.39665C80.2924 4.02049 80.9356 4.52621 81.7291 4.52621Z" fill="white"/>
<path d="M87.1824 4.52621C87.9759 4.52621 88.6191 4.02049 88.6191 3.39665C88.6191 2.77281 87.9759 2.26709 87.1824 2.26709C86.389 2.26709 85.7458 2.77281 85.7458 3.39665C85.7458 4.02049 86.389 4.52621 87.1824 4.52621Z" fill="white"/>
<path d="M87.1825 4.52621C87.9759 4.52621 88.6191 4.02049 88.6191 3.39665C88.6191 2.77281 87.9759 2.26709 87.1825 2.26709C86.3891 2.26709 85.7458 2.77281 85.7458 3.39665C85.7458 4.02049 86.3891 4.52621 87.1825 4.52621Z" fill="white"/>
<path d="M76.2617 4.52621C77.0552 4.52621 77.6984 4.02049 77.6984 3.39665C77.6984 2.77281 77.0552 2.26709 76.2617 2.26709C75.4683 2.26709 74.8251 2.77281 74.8251 3.39665C74.8251 4.02049 75.4683 4.52621 76.2617 4.52621Z" fill="white"/>
<path d="M76.2617 4.52621C77.0552 4.52621 77.6984 4.02049 77.6984 3.39665C77.6984 2.77281 77.0552 2.26709 76.2617 2.26709C75.4683 2.26709 74.8251 2.77281 74.8251 3.39665C74.8251 4.02049 75.4683 4.52621 76.2617 4.52621Z" fill="white"/>
<path d="M94.8253 44.5849C96.2193 44.5849 97.3494 43.6964 97.3494 42.6003C97.3494 41.5043 96.2193 40.6157 94.8253 40.6157C93.4312 40.6157 92.3011 41.5043 92.3011 42.6003C92.3011 43.6964 93.4312 44.5849 94.8253 44.5849Z" fill="#E4E4E4"/>
<path d="M94.8253 44.5849C96.2193 44.5849 97.3494 43.6964 97.3494 42.6003C97.3494 41.5043 96.2193 40.6157 94.8253 40.6157C93.4312 40.6157 92.3011 41.5043 92.3011 42.6003C92.3011 43.6964 93.4312 44.5849 94.8253 44.5849Z" fill="#E4E4E4"/>
<path d="M117.122 39.3874C118.516 39.3874 119.646 38.4989 119.646 37.4028C119.646 36.3067 118.516 35.4182 117.122 35.4182C115.728 35.4182 114.598 36.3067 114.598 37.4028C114.598 38.4989 115.728 39.3874 117.122 39.3874Z" fill="#E4E4E4"/>
<path d="M117.122 39.3876C118.516 39.3876 119.646 38.4991 119.646 37.403C119.646 36.307 118.516 35.4185 117.122 35.4185C115.728 35.4185 114.598 36.307 114.598 37.403C114.598 38.4991 115.728 39.3876 117.122 39.3876Z" fill="#E4E4E4"/>
<path d="M139.418 44.5849C140.812 44.5849 141.942 43.6964 141.942 42.6003C141.942 41.5043 140.812 40.6157 139.418 40.6157C138.024 40.6157 136.894 41.5043 136.894 42.6003C136.894 43.6964 138.024 44.5849 139.418 44.5849Z" fill="#E4E4E4"/>
<path d="M139.418 44.5849C140.812 44.5849 141.942 43.6964 141.942 42.6003C141.942 41.5043 140.812 40.6157 139.418 40.6157C138.024 40.6157 136.894 41.5043 136.894 42.6003C136.894 43.6964 138.024 44.5849 139.418 44.5849Z" fill="#E4E4E4"/>
<path d="M161.715 18.3679C163.109 18.3679 164.239 17.4793 164.239 16.3833C164.239 15.2872 163.109 14.3987 161.715 14.3987C160.321 14.3987 159.19 15.2872 159.19 16.3833C159.19 17.4793 160.321 18.3679 161.715 18.3679Z" fill="#E4E4E4"/>
<path d="M161.715 18.3679C163.109 18.3679 164.239 17.4793 164.239 16.3833C164.239 15.2872 163.109 14.3987 161.715 14.3987C160.321 14.3987 159.19 15.2872 159.19 16.3833C159.19 17.4793 160.321 18.3679 161.715 18.3679Z" fill="#E4E4E4"/>
<path d="M184.011 18.1237C185.405 18.1237 186.535 17.2352 186.535 16.1391C186.535 15.0431 185.405 14.1545 184.011 14.1545C182.617 14.1545 181.487 15.0431 181.487 16.1391C181.487 17.2352 182.617 18.1237 184.011 18.1237Z" fill="#E4E4E4"/>
<path d="M184.011 18.124C185.405 18.124 186.535 17.2354 186.535 16.1394C186.535 15.0433 185.405 14.1548 184.011 14.1548C182.617 14.1548 181.487 15.0433 181.487 16.1394C181.487 17.2354 182.617 18.124 184.011 18.124Z" fill="#E4E4E4"/>
<path d="M139.471 43.045L117.122 37.5854L95.0777 42.8651L94.573 42.3357L117.122 36.7589L139.365 42.1559L161.468 16.1049L161.558 16.0765L183.854 16.0457L184.168 16.6595L161.96 16.6622L139.471 43.045Z" fill="#E4E4E4"/>
<path d="M139.471 43.045L117.122 37.5854L95.0777 42.8651L94.573 42.3357L117.122 36.7589L139.365 42.1559L161.468 16.1049L161.558 16.0765L183.854 16.0457L184.168 16.6595L161.96 16.6622L139.471 43.045Z" fill="#E4E4E4"/>
<path d="M234.869 77.2341H100.601V132.665H234.869V77.2341Z" fill="#F2F2F2"/>
<path d="M234.869 77.2339H100.601V132.665H234.869V77.2339Z" fill="#F2F2F2"/>
<path d="M234.787 77.1484H100.519V83.5744H234.787V77.1484Z" fill="#E6E6E6"/>
<path d="M234.787 77.1482H100.519V83.5742H234.787V77.1482Z" fill="#E6E6E6"/>
<path d="M232.356 85.8088H103.432V129.842H232.356V85.8088Z" fill="white"/>
<path d="M232.356 85.8088H103.432V129.842H232.356V85.8088Z" fill="white"/>
<path d="M113.243 81.4079C113.989 81.4079 114.595 80.932 114.595 80.345C114.595 79.7579 113.989 79.282 113.243 79.282C112.496 79.282 111.891 79.7579 111.891 80.345C111.891 80.932 112.496 81.4079 113.243 81.4079Z" fill="white"/>
<path d="M113.243 81.4077C113.989 81.4077 114.595 80.9318 114.595 80.3447C114.595 79.7577 113.989 79.2817 113.243 79.2817C112.496 79.2817 111.891 79.7577 111.891 80.3447C111.891 80.9318 112.496 81.4077 113.243 81.4077Z" fill="white"/>
<path d="M118.374 81.4079C119.121 81.4079 119.726 80.932 119.726 80.345C119.726 79.7579 119.121 79.282 118.374 79.282C117.628 79.282 117.022 79.7579 117.022 80.345C117.022 80.932 117.628 81.4079 118.374 81.4079Z" fill="white"/>
<path d="M118.374 81.4077C119.121 81.4077 119.726 80.9318 119.726 80.3447C119.726 79.7577 119.121 79.2817 118.374 79.2817C117.628 79.2817 117.023 79.7577 117.023 80.3447C117.023 80.9318 117.628 81.4077 118.374 81.4077Z" fill="white"/>
<path d="M108.097 81.4079C108.844 81.4079 109.449 80.932 109.449 80.345C109.449 79.7579 108.844 79.282 108.097 79.282C107.351 79.282 106.745 79.7579 106.745 80.345C106.745 80.932 107.351 81.4079 108.097 81.4079Z" fill="white"/>
<path d="M108.097 81.4077C108.844 81.4077 109.449 80.9318 109.449 80.3447C109.449 79.7577 108.844 79.2817 108.097 79.2817C107.351 79.2817 106.745 79.7577 106.745 80.3447C106.745 80.9318 107.351 81.4077 108.097 81.4077Z" fill="white"/>
<path d="M324.502 24.2922H165.237V90.0428H324.502V24.2922Z" fill="#E6E6E6"/>
<path d="M324.502 24.2922H165.237V90.0428H324.502V24.2922Z" fill="#E6E6E6"/>
<path d="M324.405 24.1907H165.14V31.813H324.405V24.1907Z" fill="#1FB9EE"/>
<path d="M324.405 24.1907H165.14V31.813H324.405V24.1907Z" fill="#1FB9EE"/>
<path d="M320.671 34.1543H168.812V86.3735H320.671V34.1543Z" fill="white"/>
<path d="M180.232 29.2432C181.118 29.2432 181.836 28.6787 181.836 27.9823C181.836 27.286 181.118 26.7214 180.232 26.7214C179.346 26.7214 178.628 27.286 178.628 27.9823C178.628 28.6787 179.346 29.2432 180.232 29.2432Z" fill="white"/>
<path d="M180.232 29.2432C181.118 29.2432 181.836 28.6787 181.836 27.9823C181.836 27.286 181.118 26.7214 180.232 26.7214C179.346 26.7214 178.628 27.286 178.628 27.9823C178.628 28.6787 179.346 29.2432 180.232 29.2432Z" fill="white"/>
<path d="M186.319 29.2432C187.205 29.2432 187.923 28.6787 187.923 27.9823C187.923 27.286 187.205 26.7214 186.319 26.7214C185.433 26.7214 184.716 27.286 184.716 27.9823C184.716 28.6787 185.433 29.2432 186.319 29.2432Z" fill="white"/>
<path d="M186.319 29.2432C187.205 29.2432 187.923 28.6787 187.923 27.9823C187.923 27.286 187.205 26.7214 186.319 26.7214C185.434 26.7214 184.716 27.286 184.716 27.9823C184.716 28.6787 185.434 29.2432 186.319 29.2432Z" fill="white"/>
<path d="M174.129 29.2432C175.015 29.2432 175.733 28.6787 175.733 27.9823C175.733 27.286 175.015 26.7214 174.129 26.7214C173.243 26.7214 172.525 27.286 172.525 27.9823C172.525 28.6787 173.243 29.2432 174.129 29.2432Z" fill="white"/>
<path d="M174.129 29.2432C175.014 29.2432 175.732 28.6787 175.732 27.9823C175.732 27.286 175.014 26.7214 174.129 26.7214C173.243 26.7214 172.525 27.286 172.525 27.9823C172.525 28.6787 173.243 29.2432 174.129 29.2432Z" fill="white"/>
<path d="M245.826 45.5964C245.51 45.6294 245.221 45.7513 245.011 45.9396C244.801 46.1279 244.685 46.3698 244.685 46.6201C244.685 46.8705 244.801 47.1123 245.011 47.3006C245.221 47.4889 245.51 47.6109 245.826 47.6438H299.6C299.916 47.6109 300.206 47.4889 300.416 47.3006C300.625 47.1123 300.741 46.8705 300.741 46.6201C300.741 46.3698 300.625 46.1279 300.416 45.9396C300.206 45.7513 299.916 45.6294 299.6 45.5964H245.826Z" fill="#E6E6E6"/>
<path d="M245.826 45.5964C245.51 45.6294 245.221 45.7513 245.011 45.9396C244.801 46.1279 244.685 46.3698 244.685 46.6201C244.685 46.8705 244.801 47.1123 245.011 47.3006C245.221 47.4889 245.51 47.6109 245.826 47.6438H299.6C299.916 47.6109 300.206 47.4889 300.416 47.3006C300.625 47.1123 300.741 46.8705 300.741 46.6201C300.741 46.3698 300.625 46.1279 300.416 45.9396C300.206 45.7513 299.916 45.6294 299.6 45.5964H245.826Z" fill="#E6E6E6"/>
<path d="M245.826 69.74C245.51 69.7729 245.221 69.8949 245.011 70.0832C244.801 70.2715 244.685 70.5133 244.685 70.7637C244.685 71.014 244.801 71.2558 245.011 71.4441C245.221 71.6325 245.51 71.7544 245.826 71.7873H299.6C299.916 71.7544 300.206 71.6325 300.416 71.4441C300.625 71.2558 300.741 71.014 300.741 70.7637C300.741 70.5133 300.625 70.2715 300.416 70.0832C300.206 69.8949 299.916 69.7729 299.6 69.74H245.826Z" fill="#E6E6E6"/>
<path d="M245.826 69.7402C245.51 69.7732 245.221 69.8951 245.011 70.0834C244.801 70.2717 244.685 70.5136 244.685 70.7639C244.685 71.0143 244.801 71.2561 245.011 71.4444C245.221 71.6327 245.51 71.7547 245.826 71.7876H299.6C299.916 71.7547 300.206 71.6327 300.416 71.4444C300.625 71.2561 300.741 71.0143 300.741 70.7639C300.741 70.5136 300.625 70.2717 300.416 70.0834C300.206 69.8951 299.916 69.7732 299.6 69.7402H245.826Z" fill="#E6E6E6"/>
<path d="M245.826 51.7385C245.51 51.7714 245.221 51.8934 245.011 52.0817C244.801 52.27 244.685 52.5118 244.685 52.7622C244.685 53.0125 244.801 53.2544 245.011 53.4427C245.221 53.631 245.51 53.7529 245.826 53.7859H268.965C269.281 53.7529 269.571 53.631 269.78 53.4427C269.99 53.2544 270.106 53.0125 270.106 52.7622C270.106 52.5118 269.99 52.27 269.78 52.0817C269.571 51.8934 269.281 51.7714 268.965 51.7385H245.826Z" fill="#E6E6E6"/>
<path d="M245.826 51.7383C245.51 51.7712 245.221 51.8931 245.011 52.0815C244.801 52.2698 244.685 52.5116 244.685 52.7619C244.685 53.0123 244.801 53.2541 245.011 53.4424C245.221 53.6307 245.51 53.7527 245.826 53.7856H268.965C269.281 53.7527 269.571 53.6307 269.78 53.4424C269.99 53.2541 270.106 53.0123 270.106 52.7619C270.106 52.5116 269.99 52.2698 269.78 52.0815C269.571 51.8931 269.281 51.7712 268.965 51.7383H245.826Z" fill="#E6E6E6"/>
<path d="M245.826 57.593C245.51 57.6259 245.221 57.7479 245.011 57.9362C244.801 58.1245 244.685 58.3663 244.685 58.6167C244.685 58.867 244.801 59.1089 245.011 59.2972C245.221 59.4855 245.51 59.6074 245.826 59.6404H299.6C299.916 59.6074 300.206 59.4855 300.416 59.2972C300.625 59.1089 300.741 58.867 300.741 58.6167C300.741 58.3663 300.625 58.1245 300.416 57.9362C300.206 57.7479 299.916 57.6259 299.6 57.593H245.826Z" fill="#E6E6E6"/>
<path d="M245.826 57.5928C245.51 57.6257 245.221 57.7476 245.011 57.936C244.801 58.1243 244.685 58.3661 244.685 58.6164C244.685 58.8668 244.801 59.1086 245.011 59.2969C245.221 59.4852 245.51 59.6072 245.826 59.6401H299.6C299.916 59.6072 300.206 59.4852 300.416 59.2969C300.625 59.1086 300.741 58.8668 300.741 58.6164C300.741 58.3661 300.625 58.1243 300.416 57.936C300.206 57.7476 299.916 57.6257 299.6 57.5928H245.826Z" fill="#E6E6E6"/>
<path d="M245.826 63.7351C245.51 63.768 245.221 63.89 245.011 64.0783C244.801 64.2666 244.685 64.5084 244.685 64.7588C244.685 65.0091 244.801 65.251 245.011 65.4393C245.221 65.6276 245.51 65.7495 245.826 65.7824H268.965C269.281 65.7495 269.571 65.6276 269.78 65.4393C269.99 65.251 270.106 65.0091 270.106 64.7588C270.106 64.5084 269.99 64.2666 269.78 64.0783C269.571 63.89 269.281 63.768 268.965 63.7351H245.826Z" fill="#E6E6E6"/>
<path d="M245.826 63.7351C245.51 63.768 245.221 63.89 245.011 64.0783C244.801 64.2666 244.685 64.5084 244.685 64.7588C244.685 65.0091 244.801 65.251 245.011 65.4393C245.221 65.6276 245.51 65.7495 245.826 65.7824H268.965C269.281 65.7495 269.571 65.6276 269.78 65.4393C269.99 65.251 270.106 65.0091 270.106 64.7588C270.106 64.5084 269.99 64.2666 269.78 64.0783C269.571 63.89 269.281 63.768 268.965 63.7351H245.826Z" fill="#E6E6E6"/>
<path d="M214.486 70.666C214.649 70.6663 214.81 70.6413 214.961 70.5925C215.112 70.5437 215.249 70.4721 215.364 70.3816C215.479 70.2911 215.571 70.1837 215.633 70.0654C215.696 69.9471 215.728 69.8202 215.728 69.6921C215.728 69.564 215.696 69.4372 215.634 69.3188C215.572 69.2005 215.48 69.0929 215.365 69.0024C215.25 68.9118 215.113 68.8401 214.962 68.7911C214.812 68.7422 214.65 68.7171 214.487 68.7173H189.347C189.184 68.717 189.022 68.742 188.872 68.7908C188.721 68.8396 188.584 68.9113 188.469 69.0017C188.353 69.0922 188.262 69.1996 188.199 69.3179C188.137 69.4362 188.105 69.5631 188.105 69.6912C188.105 69.8193 188.137 69.9461 188.199 70.0645C188.261 70.1829 188.353 70.2904 188.468 70.3809C188.583 70.4715 188.72 70.5433 188.871 70.5922C189.021 70.6411 189.183 70.6662 189.346 70.666H214.486Z" fill="#E4E4E4"/>
<path d="M214.486 70.666C214.649 70.6663 214.81 70.6413 214.961 70.5925C215.112 70.5437 215.248 70.4721 215.364 70.3816C215.479 70.2911 215.571 70.1837 215.633 70.0654C215.696 69.9471 215.728 69.8202 215.728 69.6921C215.728 69.564 215.696 69.4372 215.634 69.3188C215.571 69.2005 215.48 69.0929 215.365 69.0024C215.249 68.9118 215.113 68.8401 214.962 68.7911C214.811 68.7422 214.65 68.7171 214.487 68.7173H189.347C189.184 68.717 189.022 68.742 188.872 68.7908C188.721 68.8396 188.584 68.9113 188.469 69.0017C188.353 69.0922 188.262 69.1996 188.199 69.3179C188.137 69.4362 188.105 69.5631 188.104 69.6912C188.104 69.8193 188.136 69.9461 188.199 70.0645C188.261 70.1829 188.353 70.2904 188.468 70.3809C188.583 70.4715 188.72 70.5433 188.87 70.5922C189.021 70.6411 189.182 70.6662 189.345 70.666H214.486Z" fill="#E4E4E4"/>
<path d="M214.486 64.9251C214.814 64.9246 215.129 64.8217 215.361 64.639C215.593 64.4564 215.723 64.2088 215.723 63.9507C215.723 63.6926 215.593 63.445 215.361 63.2623C215.129 63.0797 214.814 62.9768 214.486 62.9763H189.347C189.184 62.976 189.022 63.001 188.872 63.0498C188.721 63.0986 188.584 63.1703 188.469 63.2608C188.353 63.3512 188.262 63.4587 188.199 63.577C188.137 63.6953 188.105 63.8221 188.105 63.9502C188.105 64.0783 188.137 64.2052 188.199 64.3235C188.261 64.4419 188.353 64.5494 188.468 64.64C188.583 64.7305 188.72 64.8023 188.871 64.8512C189.021 64.9001 189.183 64.9252 189.346 64.9251H214.486Z" fill="#E4E4E4"/>
<path d="M214.486 64.9253C214.814 64.9248 215.129 64.822 215.361 64.6393C215.593 64.4566 215.723 64.209 215.723 63.9509C215.723 63.6928 215.593 63.4453 215.361 63.2626C215.129 63.0799 214.814 62.977 214.486 62.9766H189.347C189.184 62.9763 189.022 63.0012 188.872 63.0501C188.721 63.0989 188.584 63.1705 188.469 63.261C188.353 63.3515 188.262 63.4589 188.199 63.5772C188.137 63.6955 188.105 63.8224 188.104 63.9505C188.104 64.0786 188.136 64.2054 188.199 64.3238C188.261 64.4421 188.353 64.5497 188.468 64.6402C188.583 64.7307 188.72 64.8025 188.87 64.8515C189.021 64.9004 189.182 64.9255 189.345 64.9253H214.486Z" fill="#E4E4E4"/>
<path d="M201.916 46.718C203.459 46.718 204.967 47.0777 206.25 47.7517C207.533 48.4256 208.533 49.3835 209.123 50.5042C209.714 51.6249 209.868 52.858 209.567 54.0478C209.266 55.2375 208.523 56.3303 207.432 57.1881C206.341 58.0458 204.951 58.63 203.438 58.8666C201.925 59.1033 200.356 58.9818 198.931 58.5176C197.506 58.0534 196.287 57.2673 195.43 56.2587C194.573 55.2501 194.116 54.0643 194.116 52.8513C194.118 51.2252 194.941 49.6662 196.403 48.5164C197.865 47.3666 199.848 46.7199 201.916 46.718Z" fill="#1FB9EE"/>
<path d="M201.916 46.7175C203.459 46.7175 204.967 47.0772 206.25 47.7512C207.533 48.4251 208.533 49.383 209.123 50.5037C209.714 51.6244 209.868 52.8576 209.567 54.0473C209.266 55.237 208.523 56.3299 207.432 57.1876C206.341 58.0454 204.951 58.6295 203.438 58.8661C201.925 59.1028 200.357 58.9813 198.931 58.5171C197.506 58.0529 196.288 57.2668 195.43 56.2582C194.573 55.2496 194.116 54.0638 194.116 52.8508C194.118 51.2247 194.941 49.6658 196.403 48.5159C197.865 47.3661 199.848 46.7194 201.916 46.7175Z" fill="#1FB9EE"/>
<path d="M138.831 100.958C140.517 100.958 141.883 99.8839 141.883 98.5586C141.883 97.2333 140.517 96.1589 138.831 96.1589C137.146 96.1589 135.779 97.2333 135.779 98.5586C135.779 99.8839 137.146 100.958 138.831 100.958Z" fill="#E4E4E4"/>
<path d="M138.831 100.958C140.517 100.958 141.883 99.8836 141.883 98.5584C141.883 97.2331 140.517 96.1587 138.831 96.1587C137.146 96.1587 135.779 97.2331 135.779 98.5584C135.779 99.8836 137.146 100.958 138.831 100.958Z" fill="#E4E4E4"/>
<path d="M187.869 96.6913C188.141 96.691 188.411 96.7329 188.662 96.8145C188.914 96.8962 189.142 97.016 189.335 97.1671C189.527 97.3183 189.68 97.4978 189.784 97.6954C189.889 97.893 189.942 98.1048 189.942 98.3187C189.942 98.5326 189.889 98.7444 189.784 98.942C189.68 99.1396 189.527 99.3191 189.335 99.4703C189.142 99.6214 188.914 99.7412 188.662 99.8229C188.411 99.9045 188.141 99.9464 187.869 99.9461H155.77C155.498 99.9464 155.229 99.9045 154.977 99.8229C154.726 99.7412 154.497 99.6214 154.305 99.4703C154.112 99.3191 153.959 99.1396 153.855 98.942C153.751 98.7444 153.697 98.5326 153.697 98.3187C153.697 98.1048 153.751 97.893 153.855 97.6954C153.959 97.4978 154.112 97.3183 154.305 97.1671C154.497 97.016 154.726 96.8962 154.977 96.8145C155.229 96.7329 155.498 96.691 155.77 96.6913H187.869ZM187.869 96.2927H155.77C155.087 96.2927 154.431 96.5062 153.948 96.8861C153.465 97.2661 153.193 97.7814 153.193 98.3187C153.193 98.856 153.465 99.3713 153.948 99.7513C154.431 100.131 155.087 100.345 155.77 100.345H187.869C188.553 100.345 189.208 100.131 189.691 99.7513C190.175 99.3713 190.446 98.856 190.446 98.3187C190.446 97.7814 190.175 97.2661 189.691 96.8861C189.208 96.5062 188.553 96.2927 187.869 96.2927Z" fill="#E4E4E4"/>
<path d="M187.869 96.6913C188.142 96.691 188.411 96.7329 188.662 96.8145C188.914 96.8962 189.142 97.016 189.335 97.1671C189.527 97.3183 189.68 97.4978 189.784 97.6954C189.889 97.893 189.942 98.1048 189.942 98.3187C189.942 98.5326 189.889 98.7444 189.784 98.942C189.68 99.1396 189.527 99.3191 189.335 99.4703C189.142 99.6214 188.914 99.7412 188.662 99.8229C188.411 99.9045 188.142 99.9464 187.869 99.9461H155.77C155.498 99.9464 155.229 99.9045 154.977 99.8229C154.726 99.7412 154.497 99.6214 154.305 99.4703C154.112 99.3191 153.959 99.1396 153.855 98.942C153.751 98.7444 153.697 98.5326 153.697 98.3187C153.697 98.1048 153.751 97.893 153.855 97.6954C153.959 97.4978 154.112 97.3183 154.305 97.1671C154.497 97.016 154.726 96.8962 154.977 96.8145C155.229 96.7329 155.498 96.691 155.77 96.6913H187.869ZM187.869 96.2927H155.77C155.087 96.2927 154.431 96.5062 153.948 96.8861C153.465 97.2661 153.193 97.7814 153.193 98.3187C153.193 98.856 153.465 99.3713 153.948 99.7513C154.431 100.131 155.087 100.345 155.77 100.345H187.869C188.553 100.345 189.208 100.131 189.692 99.7513C190.175 99.3713 190.446 98.856 190.446 98.3187C190.446 97.7814 190.175 97.2661 189.692 96.8861C189.208 96.5062 188.553 96.2927 187.869 96.2927Z" fill="#E4E4E4"/>
<path d="M175.204 100.345H151.04C150.356 100.345 149.701 100.131 149.217 99.7513C148.734 99.3713 148.463 98.856 148.463 98.3187C148.463 97.7814 148.734 97.2661 149.217 96.8861C149.701 96.5062 150.356 96.2927 151.04 96.2927H175.204C175.887 96.2927 176.542 96.5062 177.026 96.8861C177.509 97.2661 177.78 97.7814 177.78 98.3187C177.78 98.856 177.509 99.3713 177.026 99.7513C176.542 100.131 175.887 100.345 175.204 100.345Z" fill="#E4E4E4"/>
<path d="M175.204 100.345H151.04C150.356 100.345 149.701 100.131 149.218 99.7513C148.734 99.3713 148.463 98.856 148.463 98.3187C148.463 97.7814 148.734 97.2661 149.218 96.8861C149.701 96.5062 150.356 96.2927 151.04 96.2927H175.204C175.887 96.2927 176.542 96.5062 177.026 96.8861C177.509 97.2661 177.78 97.7814 177.78 98.3187C177.78 98.856 177.509 99.3713 177.026 99.7513C176.542 100.131 175.887 100.345 175.204 100.345Z" fill="#E4E4E4"/>
<path d="M138.831 110.923C140.517 110.923 141.883 109.848 141.883 108.523C141.883 107.198 140.517 106.124 138.831 106.124C137.146 106.124 135.779 107.198 135.779 108.523C135.779 109.848 137.146 110.923 138.831 110.923Z" fill="#E4E4E4"/>
<path d="M138.831 110.923C140.517 110.923 141.883 109.848 141.883 108.523C141.883 107.198 140.517 106.124 138.831 106.124C137.146 106.124 135.779 107.198 135.779 108.523C135.779 109.848 137.146 110.923 138.831 110.923Z" fill="#E4E4E4"/>
<path d="M187.869 106.656C188.141 106.655 188.411 106.697 188.662 106.779C188.914 106.861 189.142 106.98 189.335 107.131C189.527 107.283 189.68 107.462 189.784 107.66C189.889 107.857 189.942 108.069 189.942 108.283C189.942 108.497 189.889 108.709 189.784 108.906C189.68 109.104 189.527 109.283 189.335 109.435C189.142 109.586 188.914 109.706 188.662 109.787C188.411 109.869 188.141 109.911 187.869 109.91H155.77C155.498 109.911 155.229 109.869 154.977 109.787C154.726 109.706 154.497 109.586 154.305 109.435C154.112 109.283 153.959 109.104 153.855 108.906C153.751 108.709 153.697 108.497 153.697 108.283C153.697 108.069 153.751 107.857 153.855 107.66C153.959 107.462 154.112 107.283 154.305 107.131C154.497 106.98 154.726 106.861 154.977 106.779C155.229 106.697 155.498 106.655 155.77 106.656H187.869ZM187.869 106.257H155.77C155.087 106.257 154.431 106.471 153.948 106.85C153.465 107.23 153.193 107.746 153.193 108.283C153.193 108.82 153.465 109.336 153.948 109.716C154.431 110.096 155.087 110.309 155.77 110.309H187.869C188.553 110.309 189.208 110.096 189.691 109.716C190.175 109.336 190.446 108.82 190.446 108.283C190.446 107.746 190.175 107.23 189.691 106.85C189.208 106.471 188.553 106.257 187.869 106.257Z" fill="#E4E4E4"/>
<path d="M187.869 106.655C188.142 106.655 188.411 106.697 188.662 106.779C188.914 106.86 189.142 106.98 189.335 107.131C189.527 107.282 189.68 107.462 189.784 107.66C189.889 107.857 189.942 108.069 189.942 108.283C189.942 108.497 189.889 108.709 189.784 108.906C189.68 109.104 189.527 109.283 189.335 109.434C189.142 109.586 188.914 109.705 188.662 109.787C188.411 109.869 188.142 109.911 187.869 109.91H155.77C155.498 109.911 155.229 109.869 154.977 109.787C154.726 109.705 154.497 109.586 154.305 109.434C154.112 109.283 153.959 109.104 153.855 108.906C153.751 108.709 153.697 108.497 153.697 108.283C153.697 108.069 153.751 107.857 153.855 107.66C153.959 107.462 154.112 107.282 154.305 107.131C154.497 106.98 154.726 106.86 154.977 106.779C155.229 106.697 155.498 106.655 155.77 106.655H187.869ZM187.869 106.257H155.77C155.087 106.257 154.431 106.47 153.948 106.85C153.465 107.23 153.193 107.746 153.193 108.283C153.193 108.82 153.465 109.335 153.948 109.715C154.431 110.095 155.087 110.309 155.77 110.309H187.869C188.553 110.309 189.208 110.095 189.692 109.715C190.175 109.335 190.446 108.82 190.446 108.283C190.446 107.746 190.175 107.23 189.692 106.85C189.208 106.47 188.553 106.257 187.869 106.257Z" fill="#E4E4E4"/>
<path d="M184.329 110.309H151.04C150.356 110.309 149.701 110.096 149.217 109.716C148.734 109.336 148.463 108.82 148.463 108.283C148.463 107.746 148.734 107.23 149.217 106.85C149.701 106.471 150.356 106.257 151.04 106.257H184.329C185.011 106.258 185.666 106.472 186.148 106.851C186.631 107.231 186.902 107.746 186.902 108.283C186.902 108.82 186.631 109.335 186.148 109.715C185.666 110.095 185.011 110.308 184.329 110.309Z" fill="#E4E4E4"/>
<path d="M184.329 110.309H151.04C150.356 110.309 149.701 110.095 149.218 109.715C148.734 109.335 148.463 108.82 148.463 108.283C148.463 107.745 148.734 107.23 149.218 106.85C149.701 106.47 150.356 106.257 151.04 106.257H184.329C185.011 106.258 185.666 106.471 186.148 106.851C186.631 107.231 186.902 107.746 186.902 108.283C186.902 108.82 186.631 109.335 186.148 109.714C185.666 110.094 185.011 110.308 184.329 110.309Z" fill="#E4E4E4"/>
<path d="M138.831 120.887C140.517 120.887 141.883 119.813 141.883 118.488C141.883 117.162 140.517 116.088 138.831 116.088C137.146 116.088 135.779 117.162 135.779 118.488C135.779 119.813 137.146 120.887 138.831 120.887Z" fill="#E4E4E4"/>
<path d="M138.831 120.887C140.517 120.887 141.883 119.813 141.883 118.488C141.883 117.162 140.517 116.088 138.831 116.088C137.146 116.088 135.779 117.162 135.779 118.488C135.779 119.813 137.146 120.887 138.831 120.887Z" fill="#E4E4E4"/>
<path d="M187.869 116.62C188.418 116.62 188.945 116.792 189.333 117.097C189.721 117.402 189.939 117.816 189.939 118.248C189.939 118.679 189.721 119.093 189.333 119.398C188.945 119.704 188.418 119.875 187.869 119.875H155.77C155.221 119.875 154.695 119.704 154.306 119.398C153.918 119.093 153.7 118.679 153.7 118.248C153.7 117.816 153.918 117.402 154.306 117.097C154.695 116.792 155.221 116.62 155.77 116.62H187.869ZM187.869 116.222H155.77C155.087 116.222 154.431 116.435 153.948 116.815C153.465 117.195 153.193 117.71 153.193 118.248C153.193 118.785 153.465 119.3 153.948 119.68C154.431 120.06 155.087 120.274 155.77 120.274H187.869C188.553 120.274 189.208 120.06 189.691 119.68C190.175 119.3 190.446 118.785 190.446 118.248C190.446 117.71 190.175 117.195 189.691 116.815C189.208 116.435 188.553 116.222 187.869 116.222Z" fill="#E4E4E4"/>
<path d="M187.869 116.62C188.418 116.62 188.945 116.792 189.333 117.097C189.721 117.402 189.939 117.816 189.939 118.248C189.939 118.679 189.721 119.093 189.333 119.398C188.945 119.704 188.418 119.875 187.869 119.875H155.77C155.221 119.875 154.695 119.704 154.307 119.398C153.918 119.093 153.7 118.679 153.7 118.248C153.7 117.816 153.918 117.402 154.307 117.097C154.695 116.792 155.221 116.62 155.77 116.62H187.869ZM187.869 116.222H155.77C155.087 116.222 154.431 116.435 153.948 116.815C153.465 117.195 153.193 117.71 153.193 118.248C153.193 118.785 153.465 119.3 153.948 119.68C154.431 120.06 155.087 120.274 155.77 120.274H187.869C188.553 120.274 189.208 120.06 189.692 119.68C190.175 119.3 190.446 118.785 190.446 118.248C190.446 117.71 190.175 117.195 189.692 116.815C189.208 116.435 188.553 116.222 187.869 116.222Z" fill="#E4E4E4"/>
<path d="M187.984 120.274H151.04C150.356 120.274 149.701 120.06 149.217 119.68C148.734 119.3 148.463 118.785 148.463 118.248C148.463 117.71 148.734 117.195 149.217 116.815C149.701 116.435 150.356 116.222 151.04 116.222H187.984C188.667 116.222 189.323 116.435 189.806 116.815C190.289 117.195 190.561 117.71 190.561 118.248C190.561 118.785 190.289 119.3 189.806 119.68C189.323 120.06 188.667 120.274 187.984 120.274Z" fill="#E4E4E4"/>
<path d="M187.984 120.274H151.04C150.356 120.274 149.701 120.06 149.218 119.68C148.734 119.3 148.463 118.785 148.463 118.248C148.463 117.71 148.734 117.195 149.218 116.815C149.701 116.435 150.356 116.222 151.04 116.222H187.984C188.667 116.222 189.323 116.435 189.806 116.815C190.289 117.195 190.561 117.71 190.561 118.248C190.561 118.785 190.289 119.3 189.806 119.68C189.323 120.06 188.667 120.274 187.984 120.274Z" fill="#E4E4E4"/>
<path d="M284.037 144.525C284.41 144.176 284.681 143.767 284.831 143.327C284.981 142.887 285.006 142.426 284.905 141.977C284.804 141.528 284.58 141.102 284.247 140.729C283.914 140.356 283.481 140.044 282.978 139.817L285.614 128.932L278.854 131.147L277.387 141.144C276.957 141.833 276.864 142.622 277.125 143.362C277.385 144.101 277.982 144.74 278.802 145.157C279.621 145.574 280.607 145.74 281.572 145.623C282.537 145.507 283.414 145.116 284.037 144.525Z" fill="#FFB7B7"/>
<path d="M284.037 144.526C284.41 144.177 284.681 143.767 284.831 143.327C284.981 142.887 285.006 142.426 284.905 141.977C284.804 141.528 284.58 141.102 284.247 140.729C283.914 140.356 283.481 140.045 282.978 139.817L285.614 128.932L278.854 131.147L277.387 141.144C276.957 141.833 276.864 142.623 277.125 143.362C277.385 144.102 277.982 144.74 278.802 145.157C279.621 145.574 280.607 145.74 281.572 145.623C282.537 145.507 283.414 145.116 284.037 144.526Z" fill="#FFB7B7"/>
<path d="M317.743 211.32L312.019 211.319L309.296 193.96L317.744 193.961L317.743 211.32Z" fill="#FFB7B7"/>
<path d="M319.203 215.682L300.746 215.682V215.498C300.746 214 301.503 212.563 302.85 211.504C304.198 210.445 306.025 209.85 307.93 209.85H307.93L319.203 209.85L319.203 215.682Z" fill="#2F2E41"/>
<path d="M286.461 211.32L280.737 211.319L278.014 193.96L286.462 193.961L286.461 211.32Z" fill="#FFB7B7"/>
<path d="M286.52 215.682L268.064 215.682V215.498C268.064 214 268.821 212.563 270.168 211.504C271.515 210.445 273.342 209.85 275.248 209.85H275.248L286.521 209.85L286.52 215.682Z" fill="#2F2E41"/>
<path d="M285.992 138.003L280.39 148.152L275.768 206.483L287.44 206.116L290.628 178.309L300.462 153.542L306.116 181.153L308.45 205.381L318.108 205.71L321.957 138.003H285.992Z" fill="#2F2E41"/>
<path d="M285.992 138.003L280.39 148.152L275.768 206.483L287.44 206.116L290.628 178.309L300.462 153.543L306.116 181.154L308.45 205.381L318.108 205.71L321.957 138.003H285.992Z" fill="#2F2E41"/>
<path d="M313.998 87.926L297.76 88.2454L288.226 92.0934L287.703 120.483L281.757 140.084C281.757 140.084 318.908 142.095 324.044 139.158L317.974 116.765L326.115 92.5653L313.998 87.926Z" fill="#3F3D56"/>
<path d="M313.998 87.926L297.76 88.2454L288.226 92.0934L287.703 120.483L281.757 140.084C281.757 140.084 318.908 142.095 324.044 139.158L317.974 116.765L326.115 92.5653L313.998 87.926Z" fill="#3F3D56"/>
<path d="M289.961 92.5373L288.226 92.0935C288.226 92.0935 282.724 94.87 283.248 101.582C283.248 101.582 283.041 105.056 283.238 107.368C283.464 110.019 276.702 136.368 276.702 136.368H286.507L290.709 112.507L289.961 92.5373Z" fill="#3F3D56"/>
<path d="M289.961 92.5376L288.226 92.0938C288.226 92.0938 282.724 94.8702 283.248 101.583C283.248 101.583 283.041 105.056 283.238 107.368C283.464 110.019 276.702 136.368 276.702 136.368H286.507L290.709 112.507L289.961 92.5376Z" fill="#3F3D56"/>
<path d="M325.861 144.893C325.488 144.544 325.217 144.134 325.067 143.694C324.916 143.254 324.891 142.793 324.992 142.344C325.093 141.895 325.318 141.469 325.651 141.096C325.984 140.723 326.417 140.412 326.919 140.184L324.284 129.299L331.044 131.514L332.51 141.511C332.94 142.2 333.033 142.989 332.773 143.729C332.512 144.469 331.915 145.107 331.096 145.524C330.276 145.941 329.29 146.107 328.325 145.99C327.361 145.874 326.484 145.483 325.861 144.893Z" fill="#FFB7B7"/>
<path d="M325.861 144.893C325.488 144.544 325.217 144.134 325.067 143.694C324.917 143.254 324.891 142.793 324.992 142.344C325.093 141.895 325.318 141.469 325.651 141.096C325.984 140.723 326.417 140.412 326.919 140.184L324.284 129.299L331.044 131.514L332.51 141.511C332.94 142.2 333.033 142.989 332.773 143.729C332.512 144.469 331.915 145.107 331.096 145.524C330.276 145.941 329.29 146.107 328.325 145.99C327.361 145.874 326.484 145.483 325.861 144.893Z" fill="#FFB7B7"/>
<path d="M323.672 92.9043L325.406 92.4604C325.406 92.4604 330.908 95.2369 330.385 101.949C330.385 101.949 330.591 105.423 330.394 107.735C330.168 110.386 333.196 136.735 333.196 136.735H323.391L319.189 112.874L323.672 92.9043Z" fill="#3F3D56"/>
<path d="M323.672 92.9045L325.406 92.4607C325.406 92.4607 330.908 95.2371 330.385 101.95C330.385 101.95 330.591 105.423 330.394 107.735C330.168 110.386 333.196 136.735 333.196 136.735H323.391L319.189 112.874L323.672 92.9045Z" fill="#3F3D56"/>
<path d="M317.985 76.0152C317.985 77.7656 317.324 79.4768 316.087 80.9323C314.851 82.3878 313.092 83.5222 311.036 84.192C308.979 84.8619 306.715 85.0372 304.532 84.6957C302.348 84.3542 300.342 83.5113 298.768 82.2735C297.194 81.0357 296.122 79.4587 295.687 77.7418C295.253 76.025 295.476 74.2454 296.328 72.6282C297.18 71.011 298.623 69.6287 300.474 68.6562C302.325 67.6837 304.501 67.1646 306.728 67.1646C308.202 67.1617 309.663 67.3872 311.027 67.8282C312.391 68.2692 313.631 68.917 314.676 69.7348C315.721 70.5526 316.551 71.5242 317.119 72.5942C317.687 73.6642 317.981 74.8117 317.985 75.9711C317.985 75.9858 317.985 76.0005 317.985 76.0152Z" fill="#FFB7B7"/>
<path d="M317.985 76.0152C317.985 77.7656 317.324 79.4768 316.088 80.9323C314.851 82.3878 313.093 83.5222 311.036 84.192C308.979 84.8619 306.715 85.0372 304.532 84.6957C302.348 84.3542 300.342 83.5113 298.768 82.2735C297.194 81.0357 296.122 79.4587 295.687 77.7418C295.253 76.025 295.476 74.2454 296.328 72.6282C297.18 71.011 298.623 69.6287 300.474 68.6562C302.325 67.6837 304.501 67.1646 306.728 67.1646C308.202 67.1617 309.663 67.3872 311.027 67.8282C312.391 68.2692 313.631 68.917 314.676 69.7348C315.721 70.5526 316.551 71.5242 317.119 72.5942C317.687 73.6642 317.981 74.8117 317.985 75.9711C317.985 75.9858 317.985 76.0005 317.985 76.0152Z" fill="#FFB7B7"/>
<path d="M295.509 64.1273C296.827 61.8978 299.379 62.3386 301.611 63.0944C304.437 62.6015 307.125 61.1258 310.17 61.9985C313.17 65.4286 323.24 64.4194 321.098 70.0038C321.095 71.3419 324.3 70.563 323.741 72.7545C325.439 76.9721 317.612 84.9596 313.119 83.2775C314.23 81.6763 316.769 78.0393 312.918 77.6786C304.636 83.7377 312.064 66.1407 301.657 71.2582C298.212 73.7375 293.495 66.6072 295.509 64.1273Z" fill="#2F2E41"/>
<path d="M295.509 64.1271C296.827 61.8976 299.379 62.3384 301.611 63.0941C304.437 62.6012 307.125 61.1256 310.17 61.9983C313.17 65.4284 323.24 64.4192 321.098 70.0035C321.095 71.3416 324.3 70.5628 323.741 72.7543C325.439 76.9719 317.612 84.9593 313.119 83.2773C314.23 81.676 316.769 78.0391 312.918 77.6783C304.636 83.7374 312.064 66.1405 301.657 71.2579C298.212 73.7372 293.495 66.607 295.509 64.1271Z" fill="#2F2E41"/>
<path d="M367.574 216H0.425926C0.312963 216 0.204627 215.965 0.12475 215.902C0.0448739 215.839 0 215.754 0 215.665C0 215.576 0.0448739 215.491 0.12475 215.428C0.204627 215.366 0.312963 215.33 0.425926 215.33H367.574C367.687 215.33 367.795 215.366 367.875 215.428C367.955 215.491 368 215.576 368 215.665C368 215.754 367.955 215.839 367.875 215.902C367.795 215.965 367.687 216 367.574 216Z" fill="#CACACA"/>
<rect x="18.7516" y="159.84" width="330.497" height="47.52" fill="#E1F3FF"/>
<path d="M87.6186 176.664L85.3626 176.536C85.3946 176.904 85.3946 177.224 85.3306 177.96C85.1706 180.2 84.4026 185.064 84.4026 186.696C84.4026 189.384 86.1786 190.472 88.7066 190.472C92.2106 190.472 94.3706 188.728 94.3706 186.312C94.3706 184.952 93.8906 183.832 92.8186 182.488L90.5786 182.968C91.6186 183.944 92.2266 184.984 92.2266 186.056C92.2266 187.368 90.9946 188.408 88.7546 188.408C87.1866 188.408 86.3866 187.688 86.3866 186.36C86.3866 184.744 87.1386 179.464 87.3306 178.088C87.4106 177.672 87.4746 177.256 87.6186 176.664ZM81.9066 178.648L81.8106 180.488C83.2826 180.904 85.2346 181.16 86.8506 181.16C88.1946 181.16 89.0746 181.112 90.0186 181.016L90.0826 179.096C89.2826 179.24 88.1466 179.32 86.9146 179.32C85.2826 179.32 83.2986 179.112 81.9066 178.648ZM81.5546 182.616L81.4586 184.552C82.9146 184.968 84.9466 185.192 87.0746 185.192C88.0826 185.192 89.0266 185.144 89.9066 185.048L89.9546 183.144C88.9146 183.272 87.7306 183.336 86.7546 183.336C85.1386 183.336 83.2826 183.208 81.5546 182.616ZM98.3866 182.712L99.2186 184.792C100.595 184.216 103.779 182.888 105.635 182.888C107.043 182.888 107.939 183.736 107.939 184.92C107.939 187.096 105.235 188.072 101.587 188.168L102.435 190.136C107.507 189.832 110.067 187.848 110.067 184.968C110.067 182.536 108.371 181.032 105.827 181.032C103.891 181.032 101.187 181.96 100.083 182.28C99.6026 182.44 98.8666 182.632 98.3866 182.712ZM125.443 180.152L124.323 178.312C123.907 178.648 123.459 178.92 122.851 179.272C121.875 179.832 119.859 180.824 118.339 181.832C116.435 183.08 114.947 184.504 114.947 186.536C114.947 189.288 117.363 190.184 120.563 190.184C122.643 190.184 124.323 190.008 125.699 189.784L125.715 187.48C124.291 187.816 122.131 188.072 120.499 188.072C118.275 188.072 117.155 187.448 117.155 186.296C117.155 185.192 118.051 184.264 119.379 183.4C120.851 182.456 122.851 181.512 123.843 181.016C124.435 180.728 124.947 180.44 125.443 180.152ZM117.395 176.728L115.379 177.56C116.259 179.624 117.219 181.72 118.099 183.176L119.923 182.12C119.171 180.776 118.163 178.856 117.395 176.728ZM129.027 177.176V178.92H143.187V177.176H129.027ZM130.563 179.96V181.64H141.731V179.96H130.563ZM129.251 182.44V185.864H131.091V184.152H141.059V185.864H142.995V182.44H129.251ZM135.027 175.912V180.888H137.027V175.912H135.027ZM136.947 184.664V188.456C136.947 190.184 137.411 190.728 139.283 190.728C139.651 190.728 140.947 190.728 141.347 190.728C142.867 190.728 143.363 190.136 143.571 187.816C143.059 187.704 142.243 187.4 141.843 187.096C141.795 188.744 141.683 189 141.155 189C140.851 189 139.811 189 139.539 189C138.979 189 138.883 188.936 138.883 188.424V184.664H136.947ZM132.995 184.648C132.803 187.144 132.419 188.568 128.579 189.32C128.979 189.72 129.459 190.472 129.635 190.984C134.051 189.928 134.755 187.88 134.995 184.648H132.995ZM159.715 188.648L159.443 186.408C158.723 187.128 157.971 187.544 157.379 187.544C156.979 187.544 156.755 187.256 156.755 186.84C156.755 185.176 157.283 182.824 157.283 181.176C157.283 179.832 156.499 178.808 154.771 178.808C152.659 178.808 149.987 181.208 149.011 182.232L149.027 184.696C150.307 183.064 152.691 180.712 154.179 180.712C154.867 180.712 155.267 181.096 155.267 181.88C155.267 183.352 154.691 185.688 154.691 187.432C154.691 188.984 155.491 189.848 156.691 189.848C158.003 189.848 158.963 189.336 159.715 188.648ZM148.659 181.032L148.531 181.32L148.499 181.736C147.699 183 145.779 185.528 144.771 186.776L146.019 188.536C146.867 187.368 148.291 185.224 148.995 184.2L149.923 181.192C150.195 180.776 150.691 179.992 150.963 179.624L150.323 178.792C149.603 179.032 147.555 179.336 146.547 179.384C145.971 179.416 145.603 179.416 145.155 179.4L145.363 181.464C146.419 181.304 147.939 181.112 148.659 181.032ZM148.467 177.944C148.467 178.584 148.115 183.064 148.067 184.488C148.019 186.488 148.003 187.56 147.987 189.112C147.987 189.368 147.971 189.928 147.939 190.296H150.131C150.099 189.944 150.035 189.352 150.019 189.064C149.923 187.576 149.923 186.216 149.923 184.92C149.923 182.056 150.451 177.864 150.723 176.584L148.387 176.52C148.483 177.016 148.467 177.496 148.467 177.944ZM163.635 177.304L163.699 179.384C164.067 179.32 164.563 179.288 164.995 179.256C165.859 179.192 168.067 179.112 168.883 179.08C168.099 179.784 166.419 181.128 165.523 181.864C164.595 182.648 162.659 184.28 161.523 185.176L162.979 186.68C164.691 184.744 166.275 183.432 168.739 183.432C170.611 183.432 172.051 184.408 172.051 185.864C172.051 187.576 170.675 188.6 167.971 188.6C166.995 188.6 166.339 188.2 166.339 187.608C166.339 187.192 166.739 186.824 167.331 186.824C168.275 186.824 168.883 187.624 168.915 188.776L170.787 188.536C170.739 186.776 169.523 185.304 167.331 185.304C165.635 185.304 164.451 186.488 164.451 187.784C164.451 189.4 166.131 190.408 168.355 190.408C172.227 190.408 174.147 188.408 174.147 185.88C174.147 183.56 172.083 181.864 169.363 181.864C168.867 181.864 168.387 181.896 167.843 182.04C168.867 181.24 170.547 179.832 171.411 179.224C171.763 178.952 172.147 178.728 172.515 178.488L171.491 177.048C171.299 177.112 170.931 177.176 170.259 177.224C169.347 177.304 165.939 177.384 165.075 177.384C164.627 177.384 164.083 177.352 163.635 177.304ZM188.083 182.424V178.232C188.083 177.592 188.147 177.08 188.179 176.76H185.891C185.955 177.064 185.987 177.592 185.987 178.232V182.488C185.987 186.424 184.643 187.816 181.539 188.888L183.251 190.504C187.123 188.792 188.083 186.376 188.083 182.424ZM182.291 176.888H180.019C180.083 177.384 180.115 177.88 180.115 178.328V184.056C180.115 184.776 180.067 185.432 180.035 185.736H182.275C182.243 185.432 182.195 184.776 182.195 184.056V178.344C182.195 177.704 182.259 177.192 182.291 176.888ZM177.027 179.768V181.944C177.395 181.928 177.955 181.896 178.755 181.896H189.267C190.099 181.896 190.675 181.896 191.027 181.944V179.816C190.579 179.88 190.099 179.928 189.251 179.928H178.755C177.971 179.928 177.315 179.816 177.027 179.768ZM193.107 183.272L194.099 185.288C196.627 184.536 199.219 183.336 201.027 182.264C202.915 181.128 204.867 179.624 206.323 178.152L204.595 176.52C203.555 177.784 201.731 179.384 200.099 180.392C198.307 181.496 195.971 182.536 193.107 183.272ZM199.763 181.432V188.104C199.763 188.808 199.699 189.816 199.635 190.2H202.179C202.067 189.8 202.035 188.808 202.035 188.104V180.888L199.763 181.432ZM213.123 187.96C213.123 188.584 213.075 189.56 212.963 190.184H215.475C215.395 189.528 215.331 188.408 215.331 187.96C215.331 186.776 215.315 180.52 215.315 178.76C215.315 178.088 215.395 177.4 215.459 176.824H212.963C213.075 177.4 213.123 178.184 213.123 178.76C213.123 180.104 213.123 186.728 213.123 187.96ZM214.851 180.968V183.272C216.595 183.848 219.283 184.872 221.107 185.816L222.003 183.592C220.435 182.824 216.979 181.56 214.851 180.968ZM231.267 178.296L231.283 180.344C233.283 180.536 236.195 180.536 238.147 180.344V178.28C236.435 178.488 233.235 178.568 231.267 178.296ZM232.547 185.128L230.723 184.968C230.531 185.784 230.435 186.408 230.435 187.048C230.435 188.68 231.763 189.672 234.515 189.672C236.323 189.672 237.619 189.56 238.659 189.352L238.611 187.192C237.219 187.496 236.035 187.624 234.611 187.624C232.979 187.624 232.355 187.192 232.355 186.472C232.355 186.056 232.419 185.672 232.547 185.128ZM228.803 177.224L226.563 177.048C226.547 177.56 226.467 178.168 226.403 178.6C226.227 179.848 225.747 182.536 225.747 184.952C225.747 187.128 226.051 189.08 226.371 190.168L228.211 190.056C228.195 189.832 228.195 189.56 228.179 189.384C228.179 189.224 228.227 188.872 228.275 188.632C228.435 187.784 228.963 186.056 229.427 184.712L228.435 183.928C228.195 184.472 227.939 185.016 227.699 185.56C227.651 185.24 227.635 184.84 227.635 184.52C227.635 182.92 228.195 179.72 228.419 178.664C228.483 178.376 228.691 177.56 228.803 177.224ZM246.051 176.792L243.475 176.776C243.603 177.4 243.667 178.168 243.667 178.936C243.667 180.312 243.523 184.504 243.523 186.648C243.523 189.384 245.203 190.536 247.827 190.536C251.475 190.536 253.747 188.408 254.787 186.872L253.331 185.096C252.163 186.84 250.499 188.36 247.859 188.36C246.611 188.36 245.651 187.832 245.651 186.216C245.651 184.232 245.763 180.664 245.843 178.936C245.875 178.296 245.955 177.464 246.051 176.792ZM263.683 176.712L261.235 176.52C261.283 176.904 261.267 177.56 261.187 178.152C261.075 179.096 260.707 180.856 260.307 182.36C259.699 184.6 258.483 187.944 257.539 189.56L259.763 190.312C260.643 188.408 261.715 185.144 262.291 182.904C262.723 181.272 263.123 179.32 263.347 178.232C263.427 177.88 263.571 177.16 263.683 176.712ZM259.603 179.112C258.947 179.112 258.419 179.08 257.587 178.984L257.651 180.984C258.211 181.016 258.803 181.048 259.587 181.048C261.395 181.048 263.907 180.776 265.891 180.312V178.312C263.811 178.808 261.555 179.112 259.603 179.112ZM264.627 181.56V183.432C265.635 183.304 266.627 183.256 267.731 183.256C268.691 183.256 269.667 183.368 270.483 183.464L270.515 181.544C269.587 181.448 268.627 181.4 267.715 181.4C266.675 181.4 265.523 181.464 264.627 181.56ZM265.491 185.576L263.587 185.4C263.459 186.024 263.315 186.792 263.315 187.544C263.315 189.16 264.755 190.072 267.459 190.072C268.739 190.072 269.811 189.976 270.707 189.848L270.787 187.816C269.651 188.024 268.547 188.136 267.475 188.136C265.747 188.136 265.283 187.608 265.283 186.904C265.283 186.552 265.379 186.04 265.491 185.576ZM276.259 178.056L273.795 178.024C273.907 178.52 273.923 179.208 273.923 179.64C273.923 180.616 273.939 182.504 274.099 183.976C274.547 188.264 276.067 189.832 277.843 189.832C279.123 189.832 280.115 188.872 281.187 186.072L279.571 184.136C279.267 185.4 278.643 187.288 277.875 187.288C276.867 187.288 276.387 185.704 276.163 183.4C276.067 182.232 276.067 181.048 276.067 180.008C276.067 179.56 276.147 178.616 276.259 178.056ZM284.259 178.408L282.227 179.08C283.971 181.064 284.835 184.936 285.075 187.528L287.187 186.696C287.011 184.248 285.779 180.248 284.259 178.408Z" fill="#333333"/>
</g>
<defs>
<clipPath id="clip0_68_66">
<rect width="368" height="216" fill="white"/>
</clipPath>
</defs>
</svg>
