<svg width="368" height="216" viewBox="0 0 368 216" fill="none" xmlns="http://www.w3.org/2000/svg">
<g clip-path="url(#clip0_68_205)">
<rect width="368" height="216" fill="#F2F2F2"/>
<path d="M324.05 197.54L324.408 190.055C328.145 188.2 332.312 187.22 336.548 187.201C330.718 191.628 331.446 200.163 327.493 206.117C324.965 209.86 320.74 212.333 316.013 212.836L311.134 215.611C309.779 208.595 311.799 201.38 316.663 195.867C318.028 194.351 319.592 193 321.32 191.848C322.489 194.71 324.05 197.54 324.05 197.54Z" fill="#F2F2F2"/>
<path d="M77.3977 189.338L65.6232 186.027C64.079 180.2 64.0895 174.111 65.654 168.288C70.5028 177.959 84.3572 180.173 92.342 187.842C97.3467 192.722 99.6898 199.452 98.7097 206.13L101.287 213.873C89.6135 213.09 78.8943 207.599 71.9534 198.847C70.0553 196.403 68.4961 193.747 67.3126 190.941C72.3065 190.415 77.3977 189.338 77.3977 189.338Z" fill="#F2F2F2"/>
<path d="M77.3977 189.337L65.6232 186.026C64.079 180.199 64.0895 174.11 65.654 168.288C70.5028 177.959 84.3572 180.173 92.342 187.842C97.3467 192.722 99.6898 199.452 98.7097 206.13L101.287 213.872C89.6135 213.09 78.8943 207.599 71.9534 198.846C70.0553 196.403 68.4961 193.746 67.3126 190.941C72.3065 190.414 77.3977 189.337 77.3977 189.337Z" fill="#F2F2F2"/>
<path d="M283.251 214.387C283.249 214.613 283.152 214.83 282.98 214.991C282.809 215.15 282.576 215.239 282.334 215.238H278.648C278.143 215.24 277.732 214.861 277.731 214.393V110.845C277.731 108.563 276.905 106.71 275.892 106.706H46.4155C45.3977 106.71 44.5769 108.563 44.5724 110.845V213.752C44.5708 214.191 44.2122 214.557 43.7425 214.6C42.9997 214.668 42.2569 214.727 41.5187 214.783C41.5004 214.783 41.4821 214.787 41.4637 214.787C41.0602 214.821 40.6567 214.847 40.2533 214.876H40.2487C40.0378 214.523 39.836 214.161 39.6297 213.799C39.5635 213.676 39.529 213.54 39.5288 213.403V105.475C39.5288 104.845 39.5563 104.21 39.6022 103.584C39.6676 102.725 39.7824 101.869 39.946 101.021C40.7209 97.0646 42.4724 94.386 44.4623 94.3774H277.841C278.131 94.3792 278.418 94.4357 278.684 94.5435C279.075 94.7043 279.429 94.9342 279.725 95.2206C280.127 95.6089 280.471 96.0458 280.747 96.5195C281.729 98.1249 282.43 100.518 282.678 103.303C282.678 103.329 282.682 103.354 282.682 103.38C282.747 104.07 282.779 104.772 282.774 105.475L282.838 114.601L282.88 120.044L283.003 137.12L283.049 143.184L283.251 214.387Z" fill="#E6E6E6"/>
<path d="M283.251 214.387C283.249 214.614 283.152 214.831 282.98 214.992C282.809 215.151 282.576 215.239 282.334 215.239H278.648C278.143 215.24 277.732 214.862 277.731 214.393V110.845C277.731 108.563 276.905 106.71 275.892 106.706H46.4155C45.3977 106.71 44.5769 108.563 44.5724 110.845V213.752C44.5708 214.191 44.2122 214.557 43.7425 214.6C42.9997 214.668 42.2569 214.728 41.5187 214.783C41.5004 214.783 41.4821 214.787 41.4637 214.787C41.0602 214.821 40.6567 214.847 40.2533 214.877H40.2487C40.0378 214.523 39.836 214.161 39.6297 213.799C39.5635 213.676 39.529 213.541 39.5288 213.403V105.475C39.5288 104.845 39.5563 104.211 39.6022 103.585C39.6676 102.725 39.7824 101.869 39.946 101.021C40.7209 97.0648 42.4724 94.3862 44.4623 94.3777H277.841C278.131 94.3795 278.418 94.436 278.684 94.5438C279.075 94.7045 279.429 94.9345 279.725 95.2209C280.127 95.6092 280.471 96.0461 280.747 96.5197C281.729 98.1252 282.43 100.518 282.678 103.304C282.678 103.329 282.682 103.355 282.682 103.38C282.747 104.07 282.779 104.773 282.774 105.475L282.838 114.601L282.88 120.044L283.003 137.12L283.049 143.185L283.251 214.387Z" fill="#E6E6E6"/>
<path d="M198.084 62.8074H174.698C174.009 62.8083 173.451 63.3277 173.452 63.9675V98.2801H199.333V63.9675C199.334 63.3271 198.775 62.8077 198.086 62.8074H198.084ZM186.47 82.3033C184.948 82.2967 183.715 81.1523 183.708 79.7385V75.7808C183.708 74.3643 184.945 73.2159 186.47 73.2159C187.995 73.2159 189.231 74.3643 189.231 75.7808V79.7385C189.224 81.1523 187.992 82.2968 186.47 82.3033Z" fill="#CCCCCC"/>
<path d="M198.084 62.8074H174.698C174.009 62.8083 173.451 63.3277 173.452 63.9675V98.2801H199.333V63.9675C199.334 63.3271 198.775 62.8077 198.086 62.8074H198.084ZM186.47 82.3033C184.948 82.2967 183.715 81.1523 183.708 79.7385V75.7808C183.708 74.3643 184.945 73.2159 186.47 73.2159C187.995 73.2159 189.231 74.3643 189.231 75.7808V79.7385C189.224 81.1523 187.992 82.2968 186.47 82.3033Z" fill="#CCCCCC"/>
<path d="M173.372 97.1826V100.493C173.373 100.85 173.684 101.14 174.069 101.14H198.717C199.101 101.138 199.412 100.85 199.414 100.493V97.1826H173.372Z" fill="#3F3D56"/>
<path d="M173.372 97.1824V100.493C173.373 100.85 173.684 101.139 174.069 101.14H198.717C199.101 101.138 199.412 100.85 199.414 100.493V97.1824H173.372Z" fill="#3F3D56"/>
<path d="M236.81 9.25879H136.843C135.055 9.26143 133.606 10.6072 133.603 12.268V74.9223C133.605 76.5836 135.054 77.9299 136.843 77.9315H236.81C238.598 77.93 240.048 76.5836 240.05 74.9223V12.268C240.047 10.6072 238.598 9.26143 236.81 9.25879Z" fill="#E6E6E6"/>
<path d="M236.81 9.25903H136.843C135.055 9.26168 133.606 10.6074 133.603 12.2683V74.9225C133.605 76.5838 135.054 77.9302 136.843 77.9318H236.81C238.598 77.9302 240.048 76.5838 240.05 74.9225V12.2683C240.047 10.6074 238.598 9.26168 236.81 9.25903Z" fill="#E6E6E6"/>
<path d="M235.975 11.4324H137.678C136.72 11.4343 135.945 12.1557 135.945 13.0451V74.1464C135.947 75.0346 136.722 75.7542 137.678 75.7557H235.975C236.932 75.7542 237.706 75.0346 237.708 74.1464V13.0451C237.708 12.1557 236.933 11.4343 235.975 11.4324Z" fill="white"/>
<path d="M235.975 11.4324H137.678C136.72 11.4343 135.945 12.1557 135.945 13.0451V74.1464C135.947 75.0346 136.722 75.7542 137.678 75.7557H235.975C236.932 75.7542 237.706 75.0346 237.708 74.1464V13.0451C237.708 12.1557 236.933 11.4343 235.975 11.4324Z" fill="white"/>
<path d="M216.829 102.292H158.347C157.753 102.292 157.271 101.845 157.271 101.293C157.271 101.224 157.279 101.155 157.294 101.087L158.202 97.0843C158.308 96.6229 158.746 96.2927 159.254 96.291H215.921C216.429 96.2927 216.868 96.6229 216.974 97.0843L217.881 101.087C218.004 101.627 217.632 102.157 217.05 102.271C216.977 102.285 216.903 102.292 216.829 102.292Z" fill="#CCCCCC"/>
<path d="M216.829 102.292H158.347C157.753 102.292 157.271 101.845 157.271 101.293C157.271 101.224 157.279 101.155 157.294 101.087L158.202 97.0841C158.308 96.6227 158.746 96.2925 159.254 96.2908H215.921C216.429 96.2925 216.868 96.6227 216.974 97.0841L217.881 101.087C218.004 101.627 217.632 102.157 217.05 102.271C216.977 102.285 216.903 102.292 216.829 102.292Z" fill="#CCCCCC"/>
<path d="M161.247 97.0117H159.894C159.77 97.0117 159.67 97.1048 159.67 97.2196V97.8076C159.67 97.9224 159.77 98.0155 159.894 98.0155H161.247C161.371 98.0155 161.471 97.9224 161.471 97.8076V97.2196C161.471 97.1048 161.371 97.0117 161.247 97.0117Z" fill="#E6E6E6"/>
<path d="M161.247 97.012H159.894C159.77 97.012 159.67 97.105 159.67 97.2199V97.8078C159.67 97.9226 159.77 98.0157 159.894 98.0157H161.247C161.371 98.0157 161.471 97.9226 161.471 97.8078V97.2199C161.471 97.105 161.371 97.012 161.247 97.012Z" fill="#E6E6E6"/>
<path d="M164.849 97.0117H163.496C163.372 97.0117 163.272 97.1048 163.272 97.2196V97.8076C163.272 97.9224 163.372 98.0155 163.496 98.0155H164.849C164.973 98.0155 165.073 97.9224 165.073 97.8076V97.2196C165.073 97.1048 164.973 97.0117 164.849 97.0117Z" fill="#E6E6E6"/>
<path d="M164.849 97.012H163.496C163.372 97.012 163.272 97.105 163.272 97.2199V97.8078C163.272 97.9226 163.372 98.0157 163.496 98.0157H164.849C164.973 98.0157 165.073 97.9226 165.073 97.8078V97.2199C165.073 97.105 164.973 97.012 164.849 97.012Z" fill="#E6E6E6"/>
<path d="M168.452 97.0117H167.098C166.975 97.0117 166.874 97.1048 166.874 97.2196V97.8076C166.874 97.9224 166.975 98.0155 167.098 98.0155H168.452C168.575 98.0155 168.676 97.9224 168.676 97.8076V97.2196C168.676 97.1048 168.575 97.0117 168.452 97.0117Z" fill="#E6E6E6"/>
<path d="M168.452 97.012H167.098C166.974 97.012 166.874 97.105 166.874 97.2199V97.8078C166.874 97.9226 166.974 98.0157 167.098 98.0157H168.452C168.575 98.0157 168.675 97.9226 168.675 97.8078V97.2199C168.675 97.105 168.575 97.012 168.452 97.012Z" fill="#E6E6E6"/>
<path d="M172.054 97.0117H170.701C170.577 97.0117 170.477 97.1048 170.477 97.2196V97.8076C170.477 97.9224 170.577 98.0155 170.701 98.0155H172.054C172.178 98.0155 172.278 97.9224 172.278 97.8076V97.2196C172.278 97.1048 172.178 97.0117 172.054 97.0117Z" fill="#E6E6E6"/>
<path d="M172.054 97.012H170.701C170.577 97.012 170.477 97.105 170.477 97.2199V97.8078C170.477 97.9226 170.577 98.0157 170.701 98.0157H172.054C172.178 98.0157 172.278 97.9226 172.278 97.8078V97.2199C172.278 97.105 172.178 97.012 172.054 97.012Z" fill="#E6E6E6"/>
<path d="M175.656 97.0117H174.303C174.179 97.0117 174.079 97.1048 174.079 97.2196V97.8076C174.079 97.9224 174.179 98.0155 174.303 98.0155H175.656C175.78 98.0155 175.88 97.9224 175.88 97.8076V97.2196C175.88 97.1048 175.78 97.0117 175.656 97.0117Z" fill="#E6E6E6"/>
<path d="M175.656 97.012H174.303C174.179 97.012 174.079 97.105 174.079 97.2199V97.8078C174.079 97.9226 174.179 98.0157 174.303 98.0157H175.656C175.78 98.0157 175.88 97.9226 175.88 97.8078V97.2199C175.88 97.105 175.78 97.012 175.656 97.012Z" fill="#E6E6E6"/>
<path d="M179.259 97.0117H177.905C177.782 97.0117 177.681 97.1048 177.681 97.2196V97.8076C177.681 97.9224 177.782 98.0155 177.905 98.0155H179.259C179.382 98.0155 179.483 97.9224 179.483 97.8076V97.2196C179.483 97.1048 179.382 97.0117 179.259 97.0117Z" fill="#E6E6E6"/>
<path d="M179.259 97.012H177.905C177.782 97.012 177.681 97.105 177.681 97.2199V97.8078C177.681 97.9226 177.782 98.0157 177.905 98.0157H179.259C179.382 98.0157 179.483 97.9226 179.483 97.8078V97.2199C179.483 97.105 179.382 97.012 179.259 97.012Z" fill="#E6E6E6"/>
<path d="M182.861 97.0117H181.508C181.384 97.0117 181.284 97.1048 181.284 97.2196V97.8076C181.284 97.9224 181.384 98.0155 181.508 98.0155H182.861C182.985 98.0155 183.085 97.9224 183.085 97.8076V97.2196C183.085 97.1048 182.985 97.0117 182.861 97.0117Z" fill="#E6E6E6"/>
<path d="M182.861 97.012H181.508C181.384 97.012 181.284 97.105 181.284 97.2199V97.8078C181.284 97.9226 181.384 98.0157 181.508 98.0157H182.861C182.985 98.0157 183.085 97.9226 183.085 97.8078V97.2199C183.085 97.105 182.985 97.012 182.861 97.012Z" fill="#E6E6E6"/>
<path d="M186.463 97.0117H185.11C184.986 97.0117 184.886 97.1048 184.886 97.2196V97.8076C184.886 97.9224 184.986 98.0155 185.11 98.0155H186.463C186.587 98.0155 186.687 97.9224 186.687 97.8076V97.2196C186.687 97.1048 186.587 97.0117 186.463 97.0117Z" fill="#E6E6E6"/>
<path d="M186.463 97.012H185.11C184.986 97.012 184.886 97.105 184.886 97.2199V97.8078C184.886 97.9226 184.986 98.0157 185.11 98.0157H186.463C186.587 98.0157 186.687 97.9226 186.687 97.8078V97.2199C186.687 97.105 186.587 97.012 186.463 97.012Z" fill="#E6E6E6"/>
<path d="M190.066 97.0117H188.712C188.589 97.0117 188.489 97.1048 188.489 97.2196V97.8076C188.489 97.9224 188.589 98.0155 188.712 98.0155H190.066C190.189 98.0155 190.29 97.9224 190.29 97.8076V97.2196C190.29 97.1048 190.189 97.0117 190.066 97.0117Z" fill="#E6E6E6"/>
<path d="M190.066 97.012H188.712C188.589 97.012 188.488 97.105 188.488 97.2199V97.8078C188.488 97.9226 188.589 98.0157 188.712 98.0157H190.066C190.189 98.0157 190.29 97.9226 190.29 97.8078V97.2199C190.29 97.105 190.189 97.012 190.066 97.012Z" fill="#E6E6E6"/>
<path d="M193.668 97.0117H192.315C192.191 97.0117 192.091 97.1048 192.091 97.2196V97.8076C192.091 97.9224 192.191 98.0155 192.315 98.0155H193.668C193.792 98.0155 193.892 97.9224 193.892 97.8076V97.2196C193.892 97.1048 193.792 97.0117 193.668 97.0117Z" fill="#E6E6E6"/>
<path d="M193.668 97.012H192.315C192.191 97.012 192.091 97.105 192.091 97.2199V97.8078C192.091 97.9226 192.191 98.0157 192.315 98.0157H193.668C193.792 98.0157 193.892 97.9226 193.892 97.8078V97.2199C193.892 97.105 193.792 97.012 193.668 97.012Z" fill="#E6E6E6"/>
<path d="M197.271 97.0117H195.917C195.793 97.0117 195.693 97.1048 195.693 97.2196V97.8076C195.693 97.9224 195.793 98.0155 195.917 98.0155H197.271C197.394 98.0155 197.494 97.9224 197.494 97.8076V97.2196C197.494 97.1048 197.394 97.0117 197.271 97.0117Z" fill="#E6E6E6"/>
<path d="M197.271 97.012H195.917C195.793 97.012 195.693 97.105 195.693 97.2199V97.8078C195.693 97.9226 195.793 98.0157 195.917 98.0157H197.271C197.394 98.0157 197.494 97.9226 197.494 97.8078V97.2199C197.494 97.105 197.394 97.012 197.271 97.012Z" fill="#E6E6E6"/>
<path d="M200.873 97.0117H199.519C199.396 97.0117 199.296 97.1048 199.296 97.2196V97.8076C199.296 97.9224 199.396 98.0155 199.519 98.0155H200.873C200.996 98.0155 201.097 97.9224 201.097 97.8076V97.2196C201.097 97.1048 200.996 97.0117 200.873 97.0117Z" fill="#E6E6E6"/>
<path d="M200.873 97.012H199.519C199.396 97.012 199.296 97.105 199.296 97.2199V97.8078C199.296 97.9226 199.396 98.0157 199.519 98.0157H200.873C200.996 98.0157 201.097 97.9226 201.097 97.8078V97.2199C201.097 97.105 200.996 97.012 200.873 97.012Z" fill="#E6E6E6"/>
<path d="M204.475 97.0117H203.122C202.998 97.0117 202.898 97.1048 202.898 97.2196V97.8076C202.898 97.9224 202.998 98.0155 203.122 98.0155H204.475C204.599 98.0155 204.699 97.9224 204.699 97.8076V97.2196C204.699 97.1048 204.599 97.0117 204.475 97.0117Z" fill="#E6E6E6"/>
<path d="M204.475 97.012H203.122C202.998 97.012 202.898 97.105 202.898 97.2199V97.8078C202.898 97.9226 202.998 98.0157 203.122 98.0157H204.475C204.599 98.0157 204.699 97.9226 204.699 97.8078V97.2199C204.699 97.105 204.599 97.012 204.475 97.012Z" fill="#E6E6E6"/>
<path d="M208.078 97.0117H206.724C206.6 97.0117 206.5 97.1048 206.5 97.2196V97.8076C206.5 97.9224 206.6 98.0155 206.724 98.0155H208.078C208.201 98.0155 208.301 97.9224 208.301 97.8076V97.2196C208.301 97.1048 208.201 97.0117 208.078 97.0117Z" fill="#E6E6E6"/>
<path d="M208.078 97.012H206.724C206.6 97.012 206.5 97.105 206.5 97.2199V97.8078C206.5 97.9226 206.6 98.0157 206.724 98.0157H208.078C208.201 98.0157 208.301 97.9226 208.301 97.8078V97.2199C208.301 97.105 208.201 97.012 208.078 97.012Z" fill="#E6E6E6"/>
<path d="M211.68 97.0117H210.326C210.203 97.0117 210.103 97.1048 210.103 97.2196V97.8076C210.103 97.9224 210.203 98.0155 210.326 98.0155H211.68C211.804 98.0155 211.904 97.9224 211.904 97.8076V97.2196C211.904 97.1048 211.804 97.0117 211.68 97.0117Z" fill="#E6E6E6"/>
<path d="M211.68 97.012H210.326C210.203 97.012 210.103 97.105 210.103 97.2199V97.8078C210.103 97.9226 210.203 98.0157 210.326 98.0157H211.68C211.804 98.0157 211.904 97.9226 211.904 97.8078V97.2199C211.904 97.105 211.804 97.012 211.68 97.012Z" fill="#E6E6E6"/>
<path d="M215.282 97.0117H213.929C213.805 97.0117 213.705 97.1048 213.705 97.2196V97.8076C213.705 97.9224 213.805 98.0155 213.929 98.0155H215.282C215.406 98.0155 215.506 97.9224 215.506 97.8076V97.2196C215.506 97.1048 215.406 97.0117 215.282 97.0117Z" fill="#E6E6E6"/>
<path d="M215.282 97.012H213.929C213.805 97.012 213.705 97.105 213.705 97.2199V97.8078C213.705 97.9226 213.805 98.0157 213.929 98.0157H215.282C215.406 98.0157 215.506 97.9226 215.506 97.8078V97.2199C215.506 97.105 215.406 97.012 215.282 97.012Z" fill="#E6E6E6"/>
<path d="M161.204 98.6846H159.851C159.727 98.6846 159.627 98.7776 159.627 98.8925V99.4804C159.627 99.5952 159.727 99.6883 159.851 99.6883H161.204C161.328 99.6883 161.428 99.5952 161.428 99.4804V98.8925C161.428 98.7776 161.328 98.6846 161.204 98.6846Z" fill="#E6E6E6"/>
<path d="M161.204 98.6846H159.851C159.727 98.6846 159.627 98.7776 159.627 98.8925V99.4804C159.627 99.5952 159.727 99.6883 159.851 99.6883H161.204C161.328 99.6883 161.428 99.5952 161.428 99.4804V98.8925C161.428 98.7776 161.328 98.6846 161.204 98.6846Z" fill="#E6E6E6"/>
<path d="M164.807 98.6846H163.453C163.33 98.6846 163.229 98.7776 163.229 98.8925V99.4804C163.229 99.5952 163.33 99.6883 163.453 99.6883H164.807C164.93 99.6883 165.031 99.5952 165.031 99.4804V98.8925C165.031 98.7776 164.93 98.6846 164.807 98.6846Z" fill="#E6E6E6"/>
<path d="M164.807 98.6846H163.453C163.33 98.6846 163.229 98.7776 163.229 98.8925V99.4804C163.229 99.5952 163.33 99.6883 163.453 99.6883H164.807C164.93 99.6883 165.031 99.5952 165.031 99.4804V98.8925C165.031 98.7776 164.93 98.6846 164.807 98.6846Z" fill="#E6E6E6"/>
<path d="M168.409 98.6846H167.056C166.932 98.6846 166.832 98.7776 166.832 98.8925V99.4804C166.832 99.5952 166.932 99.6883 167.056 99.6883H168.409C168.533 99.6883 168.633 99.5952 168.633 99.4804V98.8925C168.633 98.7776 168.533 98.6846 168.409 98.6846Z" fill="#E6E6E6"/>
<path d="M168.409 98.6846H167.056C166.932 98.6846 166.832 98.7776 166.832 98.8925V99.4804C166.832 99.5952 166.932 99.6883 167.056 99.6883H168.409C168.533 99.6883 168.633 99.5952 168.633 99.4804V98.8925C168.633 98.7776 168.533 98.6846 168.409 98.6846Z" fill="#E6E6E6"/>
<path d="M172.011 98.6846H170.658C170.534 98.6846 170.434 98.7776 170.434 98.8925V99.4804C170.434 99.5952 170.534 99.6883 170.658 99.6883H172.011C172.135 99.6883 172.235 99.5952 172.235 99.4804V98.8925C172.235 98.7776 172.135 98.6846 172.011 98.6846Z" fill="#E6E6E6"/>
<path d="M172.011 98.6846H170.658C170.534 98.6846 170.434 98.7776 170.434 98.8925V99.4804C170.434 99.5952 170.534 99.6883 170.658 99.6883H172.011C172.135 99.6883 172.235 99.5952 172.235 99.4804V98.8925C172.235 98.7776 172.135 98.6846 172.011 98.6846Z" fill="#E6E6E6"/>
<path d="M175.614 98.6846H174.26C174.137 98.6846 174.036 98.7776 174.036 98.8925V99.4804C174.036 99.5952 174.137 99.6883 174.26 99.6883H175.614C175.737 99.6883 175.838 99.5952 175.838 99.4804V98.8925C175.838 98.7776 175.737 98.6846 175.614 98.6846Z" fill="#E6E6E6"/>
<path d="M175.614 98.6846H174.26C174.137 98.6846 174.036 98.7776 174.036 98.8925V99.4804C174.036 99.5952 174.137 99.6883 174.26 99.6883H175.614C175.737 99.6883 175.838 99.5952 175.838 99.4804V98.8925C175.838 98.7776 175.737 98.6846 175.614 98.6846Z" fill="#E6E6E6"/>
<path d="M179.216 98.6846H177.863C177.739 98.6846 177.639 98.7776 177.639 98.8925V99.4804C177.639 99.5952 177.739 99.6883 177.863 99.6883H179.216C179.34 99.6883 179.44 99.5952 179.44 99.4804V98.8925C179.44 98.7776 179.34 98.6846 179.216 98.6846Z" fill="#E6E6E6"/>
<path d="M179.216 98.6846H177.863C177.739 98.6846 177.639 98.7776 177.639 98.8925V99.4804C177.639 99.5952 177.739 99.6883 177.863 99.6883H179.216C179.34 99.6883 179.44 99.5952 179.44 99.4804V98.8925C179.44 98.7776 179.34 98.6846 179.216 98.6846Z" fill="#E6E6E6"/>
<path d="M182.819 98.6846H181.465C181.341 98.6846 181.241 98.7776 181.241 98.8925V99.4804C181.241 99.5952 181.341 99.6883 181.465 99.6883H182.819C182.942 99.6883 183.042 99.5952 183.042 99.4804V98.8925C183.042 98.7776 182.942 98.6846 182.819 98.6846Z" fill="#E6E6E6"/>
<path d="M182.819 98.6846H181.465C181.341 98.6846 181.241 98.7776 181.241 98.8925V99.4804C181.241 99.5952 181.341 99.6883 181.465 99.6883H182.819C182.942 99.6883 183.042 99.5952 183.042 99.4804V98.8925C183.042 98.7776 182.942 98.6846 182.819 98.6846Z" fill="#E6E6E6"/>
<path d="M186.421 98.6846H185.067C184.944 98.6846 184.844 98.7776 184.844 98.8925V99.4804C184.844 99.5952 184.944 99.6883 185.067 99.6883H186.421C186.545 99.6883 186.645 99.5952 186.645 99.4804V98.8925C186.645 98.7776 186.545 98.6846 186.421 98.6846Z" fill="#E6E6E6"/>
<path d="M186.421 98.6846H185.067C184.944 98.6846 184.844 98.7776 184.844 98.8925V99.4804C184.844 99.5952 184.944 99.6883 185.067 99.6883H186.421C186.545 99.6883 186.645 99.5952 186.645 99.4804V98.8925C186.645 98.7776 186.545 98.6846 186.421 98.6846Z" fill="#E6E6E6"/>
<path d="M190.023 98.6846H188.67C188.546 98.6846 188.446 98.7776 188.446 98.8925V99.4804C188.446 99.5952 188.546 99.6883 188.67 99.6883H190.023C190.147 99.6883 190.247 99.5952 190.247 99.4804V98.8925C190.247 98.7776 190.147 98.6846 190.023 98.6846Z" fill="#E6E6E6"/>
<path d="M190.023 98.6846H188.67C188.546 98.6846 188.446 98.7776 188.446 98.8925V99.4804C188.446 99.5952 188.546 99.6883 188.67 99.6883H190.023C190.147 99.6883 190.247 99.5952 190.247 99.4804V98.8925C190.247 98.7776 190.147 98.6846 190.023 98.6846Z" fill="#E6E6E6"/>
<path d="M193.626 98.6846H192.272C192.148 98.6846 192.048 98.7776 192.048 98.8925V99.4804C192.048 99.5952 192.148 99.6883 192.272 99.6883H193.626C193.749 99.6883 193.849 99.5952 193.849 99.4804V98.8925C193.849 98.7776 193.749 98.6846 193.626 98.6846Z" fill="#E6E6E6"/>
<path d="M193.626 98.6846H192.272C192.148 98.6846 192.048 98.7776 192.048 98.8925V99.4804C192.048 99.5952 192.148 99.6883 192.272 99.6883H193.626C193.749 99.6883 193.849 99.5952 193.849 99.4804V98.8925C193.849 98.7776 193.749 98.6846 193.626 98.6846Z" fill="#E6E6E6"/>
<path d="M197.228 98.6846H195.874C195.751 98.6846 195.651 98.7776 195.651 98.8925V99.4804C195.651 99.5952 195.751 99.6883 195.874 99.6883H197.228C197.352 99.6883 197.452 99.5952 197.452 99.4804V98.8925C197.452 98.7776 197.352 98.6846 197.228 98.6846Z" fill="#E6E6E6"/>
<path d="M197.228 98.6846H195.874C195.751 98.6846 195.651 98.7776 195.651 98.8925V99.4804C195.651 99.5952 195.751 99.6883 195.874 99.6883H197.228C197.352 99.6883 197.452 99.5952 197.452 99.4804V98.8925C197.452 98.7776 197.352 98.6846 197.228 98.6846Z" fill="#E6E6E6"/>
<path d="M200.83 98.6846H199.477C199.353 98.6846 199.253 98.7776 199.253 98.8925V99.4804C199.253 99.5952 199.353 99.6883 199.477 99.6883H200.83C200.954 99.6883 201.054 99.5952 201.054 99.4804V98.8925C201.054 98.7776 200.954 98.6846 200.83 98.6846Z" fill="#E6E6E6"/>
<path d="M200.83 98.6846H199.477C199.353 98.6846 199.253 98.7776 199.253 98.8925V99.4804C199.253 99.5952 199.353 99.6883 199.477 99.6883H200.83C200.954 99.6883 201.054 99.5952 201.054 99.4804V98.8925C201.054 98.7776 200.954 98.6846 200.83 98.6846Z" fill="#E6E6E6"/>
<path d="M204.433 98.6846H203.079C202.956 98.6846 202.855 98.7776 202.855 98.8925V99.4804C202.855 99.5952 202.956 99.6883 203.079 99.6883H204.433C204.556 99.6883 204.657 99.5952 204.657 99.4804V98.8925C204.657 98.7776 204.556 98.6846 204.433 98.6846Z" fill="#E6E6E6"/>
<path d="M204.433 98.6846H203.079C202.956 98.6846 202.855 98.7776 202.855 98.8925V99.4804C202.855 99.5952 202.956 99.6883 203.079 99.6883H204.433C204.556 99.6883 204.656 99.5952 204.656 99.4804V98.8925C204.656 98.7776 204.556 98.6846 204.433 98.6846Z" fill="#E6E6E6"/>
<path d="M208.035 98.6846H206.682C206.558 98.6846 206.458 98.7776 206.458 98.8925V99.4804C206.458 99.5952 206.558 99.6883 206.682 99.6883H208.035C208.159 99.6883 208.259 99.5952 208.259 99.4804V98.8925C208.259 98.7776 208.159 98.6846 208.035 98.6846Z" fill="#E6E6E6"/>
<path d="M208.035 98.6846H206.682C206.558 98.6846 206.458 98.7776 206.458 98.8925V99.4804C206.458 99.5952 206.558 99.6883 206.682 99.6883H208.035C208.159 99.6883 208.259 99.5952 208.259 99.4804V98.8925C208.259 98.7776 208.159 98.6846 208.035 98.6846Z" fill="#E6E6E6"/>
<path d="M211.637 98.6846H210.284C210.16 98.6846 210.06 98.7776 210.06 98.8925V99.4804C210.06 99.5952 210.16 99.6883 210.284 99.6883H211.637C211.761 99.6883 211.861 99.5952 211.861 99.4804V98.8925C211.861 98.7776 211.761 98.6846 211.637 98.6846Z" fill="#E6E6E6"/>
<path d="M211.637 98.6846H210.284C210.16 98.6846 210.06 98.7776 210.06 98.8925V99.4804C210.06 99.5952 210.16 99.6883 210.284 99.6883H211.637C211.761 99.6883 211.861 99.5952 211.861 99.4804V98.8925C211.861 98.7776 211.761 98.6846 211.637 98.6846Z" fill="#E6E6E6"/>
<path d="M215.24 98.6846H213.886C213.763 98.6846 213.662 98.7776 213.662 98.8925V99.4804C213.662 99.5952 213.763 99.6883 213.886 99.6883H215.24C215.363 99.6883 215.464 99.5952 215.464 99.4804V98.8925C215.464 98.7776 215.363 98.6846 215.24 98.6846Z" fill="#E6E6E6"/>
<path d="M215.24 98.6846H213.886C213.763 98.6846 213.662 98.7776 213.662 98.8925V99.4804C213.662 99.5952 213.763 99.6883 213.886 99.6883H215.24C215.363 99.6883 215.464 99.5952 215.464 99.4804V98.8925C215.464 98.7776 215.363 98.6846 215.24 98.6846Z" fill="#E6E6E6"/>
<path d="M191.104 100.692H177.142C177.019 100.692 176.918 100.785 176.918 100.9V101.488C176.918 101.603 177.019 101.696 177.142 101.696H191.104C191.228 101.696 191.328 101.603 191.328 101.488V100.9C191.328 100.785 191.228 100.692 191.104 100.692Z" fill="#E6E6E6"/>
<path d="M191.104 100.692H177.142C177.019 100.692 176.918 100.785 176.918 100.9V101.488C176.918 101.603 177.019 101.696 177.142 101.696H191.104C191.228 101.696 191.328 101.603 191.328 101.488V100.9C191.328 100.785 191.228 100.692 191.104 100.692Z" fill="#E6E6E6"/>
<path d="M231.034 19.8508H139.058C138.856 19.8467 138.695 19.6913 138.7 19.5036C138.704 19.3218 138.862 19.1754 139.058 19.1714H231.034C231.236 19.1755 231.396 19.331 231.392 19.5186C231.388 19.7004 231.23 19.8468 231.034 19.8508Z" fill="#CACACA"/>
<path d="M231.034 19.8511H139.058C138.856 19.8469 138.695 19.6915 138.7 19.5039C138.704 19.3221 138.862 19.1756 139.058 19.1716H231.034C231.236 19.1758 231.396 19.3312 231.392 19.5188C231.388 19.7006 231.23 19.8471 231.034 19.8511Z" fill="#CACACA"/>
<path d="M145.319 17.4368C146.502 17.4368 147.462 16.5255 147.462 15.4015C147.462 14.2774 146.502 13.3662 145.319 13.3662C144.135 13.3662 143.175 14.2774 143.175 15.4015C143.175 16.5255 144.135 17.4368 145.319 17.4368Z" fill="#CCCCCC"/>
<path d="M145.319 17.4368C146.502 17.4368 147.462 16.5255 147.462 15.4015C147.462 14.2774 146.502 13.3662 145.319 13.3662C144.135 13.3662 143.175 14.2774 143.175 15.4015C143.175 16.5255 144.135 17.4368 145.319 17.4368Z" fill="#CCCCCC"/>
<path d="M152.724 17.4368C153.907 17.4368 154.867 16.5255 154.867 15.4015C154.867 14.2774 153.907 13.3662 152.724 13.3662C151.54 13.3662 150.58 14.2774 150.58 15.4015C150.58 16.5255 151.54 17.4368 152.724 17.4368Z" fill="#CCCCCC"/>
<path d="M152.724 17.4368C153.907 17.4368 154.867 16.5255 154.867 15.4015C154.867 14.2774 153.907 13.3662 152.724 13.3662C151.54 13.3662 150.58 14.2774 150.58 15.4015C150.58 16.5255 151.54 17.4368 152.724 17.4368Z" fill="#CCCCCC"/>
<path d="M160.129 17.4368C161.312 17.4368 162.272 16.5255 162.272 15.4015C162.272 14.2774 161.312 13.3662 160.129 13.3662C158.945 13.3662 157.985 14.2774 157.985 15.4015C157.985 16.5255 158.945 17.4368 160.129 17.4368Z" fill="#CCCCCC"/>
<path d="M160.129 17.4368C161.313 17.4368 162.272 16.5255 162.272 15.4015C162.272 14.2774 161.313 13.3662 160.129 13.3662C158.945 13.3662 157.985 14.2774 157.985 15.4015C157.985 16.5255 158.945 17.4368 160.129 17.4368Z" fill="#CCCCCC"/>
<path d="M184.952 25.0017L184.655 24.1956L222.645 5.86182L222.942 6.66795L184.952 25.0017Z" fill="#3F3D56"/>
<path d="M184.952 25.002L184.654 24.1958L222.645 5.86206L222.942 6.6682L184.952 25.002Z" fill="#3F3D56"/>
<path d="M299.578 58.9602L299.28 58.154L322.14 39.9131L322.437 40.7188L299.578 58.9602Z" fill="#3F3D56"/>
<path d="M299.578 58.9599L299.28 58.1538L322.14 39.9128L322.437 40.7186L299.578 58.9599Z" fill="#3F3D56"/>
<path d="M255.657 63.2063L217.667 44.8725L217.964 44.0664L255.954 62.4002L255.657 63.2063Z" fill="#3F3D56"/>
<path d="M255.657 63.2063L217.667 44.8725L217.964 44.0664L255.954 62.4002L255.657 63.2063Z" fill="#3F3D56"/>
<path d="M275.105 50.4485L252.833 16.4885L253.537 15.9421L275.808 49.9021L275.105 50.4485Z" fill="#3F3D56"/>
<path d="M275.105 50.4482L252.833 16.4883L253.537 15.9419L275.808 49.9019L275.105 50.4482Z" fill="#3F3D56"/>
<path d="M292.486 6.19796L270.795 6.10512V5.25342L292.486 5.34625V6.19796Z" fill="#3F3D56"/>
<path d="M292.486 6.19771L270.795 6.10488V5.25317L292.486 5.34601V6.19771Z" fill="#3F3D56"/>
<path d="M331.778 11.4808H307.478C304.186 11.4808 301.517 9.00225 301.517 5.94477C301.517 2.88728 304.186 0.408691 307.478 0.408691H331.778C335.07 0.408691 337.739 2.88728 337.739 5.94477C337.739 9.00225 335.07 11.4808 331.778 11.4808Z" fill="#1FB9EE"/>
<path d="M331.778 11.4806H307.478C304.186 11.4806 301.517 9.00201 301.517 5.94452C301.517 2.88703 304.186 0.408447 307.478 0.408447H331.778C335.07 0.408447 337.739 2.88703 337.739 5.94452C337.739 9.00201 335.07 11.4806 331.778 11.4806Z" fill="#1FB9EE"/>
<path d="M362.039 43.8456H337.739C334.447 43.8456 331.778 41.367 331.778 38.3095C331.778 35.252 334.447 32.7734 337.739 32.7734H362.039C365.331 32.7734 368 35.252 368 38.3095C368 41.367 365.331 43.8456 362.039 43.8456Z" fill="#1FB9EE"/>
<path d="M362.039 43.8453H337.739C334.447 43.8453 331.778 41.3668 331.778 38.3093C331.778 35.2518 334.447 32.7732 337.739 32.7732H362.039C365.331 32.7732 368 35.2518 368 38.3093C368 41.3668 365.331 43.8453 362.039 43.8453Z" fill="#1FB9EE"/>
<path d="M322.747 66.6682L301.057 66.5758V65.7241L322.747 65.8165V66.6682Z" fill="#3F3D56"/>
<path d="M322.747 66.6682L301.057 66.5758V65.7241L322.747 65.8165V66.6682Z" fill="#3F3D56"/>
<path d="M362.039 71.9518H337.739C334.447 71.9518 331.778 69.4732 331.778 66.4157C331.778 63.3582 334.447 60.8796 337.739 60.8796H362.039C365.331 60.8796 368 63.3582 368 66.4157C368 69.4732 365.331 71.9518 362.039 71.9518Z" fill="#1FB9EE"/>
<path d="M362.039 71.9515H337.739C334.447 71.9515 331.778 69.473 331.778 66.4155C331.778 63.358 334.447 60.8794 337.739 60.8794H362.039C365.331 60.8794 368 63.358 368 66.4155C368 69.473 365.331 71.9515 362.039 71.9515Z" fill="#1FB9EE"/>
<path d="M290.971 68.1364H266.671C263.379 68.1364 260.71 65.6578 260.71 62.6003C260.71 59.5428 263.379 57.0642 266.671 57.0642H290.971C294.263 57.0642 296.932 59.5428 296.932 62.6003C296.932 65.6578 294.263 68.1364 290.971 68.1364Z" fill="#1FB9EE"/>
<path d="M290.971 68.1364H266.671C263.379 68.1364 260.71 65.6578 260.71 62.6003C260.71 59.5428 263.379 57.0642 266.671 57.0642H290.971C294.263 57.0642 296.932 59.5428 296.932 62.6003C296.932 65.6578 294.263 68.1364 290.971 68.1364Z" fill="#1FB9EE"/>
<path d="M257.959 11.0721H233.658C230.367 11.0721 227.698 8.59356 227.698 5.53607C227.698 2.47859 230.367 0 233.658 0H257.959C261.251 0 263.92 2.47859 263.92 5.53607C263.92 8.59356 261.251 11.0721 257.959 11.0721Z" fill="#1FB9EE"/>
<path d="M257.959 11.0721H233.659C230.367 11.0721 227.698 8.59356 227.698 5.53607C227.698 2.47859 230.367 0 233.659 0H257.959C261.251 0 263.92 2.47859 263.92 5.53607C263.92 8.59356 261.251 11.0721 257.959 11.0721Z" fill="#1FB9EE"/>
<path d="M141.807 106.114H114.297C112.271 106.114 110.629 107.639 110.629 109.521C110.629 111.402 112.271 112.927 114.297 112.927H124.384V139.33H131.72V112.927H141.807C143.833 112.927 145.475 111.402 145.475 109.521C145.475 107.639 143.833 106.114 141.807 106.114Z" fill="#3F3D56"/>
<path d="M141.807 106.114H114.297C112.271 106.114 110.629 107.639 110.629 109.52C110.629 111.402 112.271 112.927 114.297 112.927H124.384V139.33H131.72V112.927H141.807C143.833 112.927 145.475 111.402 145.475 109.52C145.475 107.639 143.833 106.114 141.807 106.114Z" fill="#3F3D56"/>
<path d="M159.964 153.953H86.3824C71.6376 153.903 59.1628 143.817 57.0765 130.26L54.4719 121.362C49.0809 102.922 40.8693 85.2964 30.0881 69.0231C25.1604 61.5904 22.6241 54.3956 28.3848 47.4685C28.4339 47.4095 28.4821 47.3514 28.5295 47.2941C33.1499 41.7085 56.1472 40.4993 63.6442 40.2642C63.9404 40.2548 64.2377 40.2502 64.5361 40.2502H110.303C110.602 40.2502 110.899 40.2549 111.195 40.2642C119.429 40.4871 126.867 44.8901 130.561 51.7285C134.502 58.7102 133.999 67.1381 129.251 73.6725C113.174 96.1025 108.252 110.167 113.292 119.275C118.166 128.085 133.108 132.589 160.315 133.449C167.626 133.681 170.982 138.968 171.005 143.783C171.028 148.474 167.802 153.653 160.665 153.939C160.433 153.948 160.199 153.953 159.964 153.953Z" fill="#3F3D56"/>
<path d="M159.964 153.953H86.3824C71.6376 153.903 59.1628 143.817 57.0765 130.26L54.4719 121.362C49.0809 102.922 40.8693 85.2966 30.0881 69.0234C25.1604 61.5906 22.6241 54.3958 28.3848 47.4688C28.4339 47.4098 28.4821 47.3516 28.5295 47.2943C33.1499 41.7087 56.1472 40.4996 63.6442 40.2644C63.9404 40.255 64.2377 40.2504 64.5361 40.2505H110.303C110.602 40.2505 110.899 40.2551 111.195 40.2644C119.429 40.4874 126.867 44.8904 130.561 51.7287C134.502 58.7105 133.999 67.1384 129.251 73.6728C113.174 96.1028 108.252 110.167 113.292 119.275C118.166 128.085 133.108 132.589 160.315 133.45C167.626 133.681 170.982 138.969 171.005 143.784C171.028 148.474 167.802 153.653 160.665 153.939C160.433 153.948 160.199 153.953 159.964 153.953Z" fill="#3F3D56"/>
<path d="M98.8824 214.637H126.393C128.418 214.637 130.061 213.111 130.061 211.23C130.061 209.348 128.418 207.823 126.393 207.823H116.306V150.333H108.969V207.823H98.8824C96.8566 207.823 95.2144 209.348 95.2144 211.23C95.2144 213.111 96.8566 214.637 98.8824 214.637Z" fill="#3F3D56"/>
<path d="M98.8824 214.637H126.393C128.418 214.637 130.061 213.112 130.061 211.23C130.061 209.349 128.418 207.823 126.393 207.823H116.306V150.333H108.969V207.823H98.8824C96.8566 207.823 95.2144 209.349 95.2144 211.23C95.2144 213.112 96.8566 214.637 98.8824 214.637Z" fill="#3F3D56"/>
<path d="M123.782 191.46L128.521 193.85L141.066 177.74L134.072 174.211L123.782 191.46Z" fill="#A0616A"/>
<path d="M123.782 191.46L128.521 193.85L141.066 177.74L134.072 174.211L123.782 191.46Z" fill="#A0616A"/>
<path d="M126.063 185.719L134.666 188.221L133.297 191.569L139.196 199.521C139.951 200.538 139.675 201.931 138.58 202.632C137.928 203.05 137.098 203.143 136.358 202.882L126.342 199.347L125.971 195.427L123.942 198.5L120.166 197.168L126.063 185.719Z" fill="#2F2E41"/>
<path d="M135.756 28.9902C136.18 31.6932 134.165 34.204 131.255 34.5983C130.945 34.6403 130.631 34.6568 130.317 34.6476L112.045 70.7578L106.315 63.3354L125.124 29.1901C125.413 26.4568 128.033 24.4586 130.976 24.727C133.438 24.9516 135.414 26.7141 135.756 28.9902Z" fill="#A0616A"/>
<path d="M135.756 28.9899C136.18 31.6929 134.165 34.2038 131.255 34.598C130.945 34.6401 130.631 34.6566 130.317 34.6473L112.045 70.7576L106.315 63.3351L125.124 29.1898C125.413 26.4566 128.033 24.4584 130.976 24.7268C133.438 24.9514 135.414 26.7138 135.756 28.9899Z" fill="#A0616A"/>
<path d="M75.1188 78.0589C75.1188 78.0589 74.6292 84.3672 82.3105 85.6045C89.9918 86.8418 110.526 74.7815 113.899 72.9296C117.271 71.0778 123.556 47.7786 123.556 47.7786L118.09 39.1926C111.342 47.1207 106.043 54.4313 105.721 59.6207L75.1188 78.0589Z" fill="#1FB9EE"/>
<path d="M75.1187 78.0586C75.1187 78.0586 74.6291 84.367 82.3104 85.6043C89.9918 86.8416 110.526 74.7812 113.899 72.9294C117.271 71.0776 123.556 47.7783 123.556 47.7783L118.09 39.1924C111.342 47.1204 106.043 54.4311 105.721 59.6205L75.1187 78.0586Z" fill="#1FB9EE"/>
<path d="M83.9866 99.7888L85.6455 106.409C85.6455 106.409 85.6618 112.514 86.8258 113.639C87.9817 114.76 113.399 112.51 113.399 112.51C113.399 112.51 110.704 102.673 110.74 95.2297L83.9866 99.7888Z" fill="#A0616A"/>
<path d="M83.9866 99.7885L85.6455 106.409C85.6455 106.409 85.6618 112.513 86.8258 113.639C87.9817 114.759 113.399 112.51 113.399 112.51C113.399 112.51 110.704 102.673 110.74 95.2295L83.9866 99.7885Z" fill="#A0616A"/>
<path d="M137.681 184.47L128.511 179.786C128.336 168.703 135.513 153.705 144.026 137.996C124.988 141.037 107.027 142.012 91.4912 138.333C86.1843 137.031 82.9859 132.013 84.3097 127.066C84.3702 126.832 84.4401 126.601 84.5195 126.373C86.3788 121.104 82.2098 117.801 86.0443 112.006C96.1297 108.807 105.71 107.904 114.472 110.729L119.961 122.002L147.17 118.731C152.671 118.12 157.665 121.768 158.323 126.878C158.326 126.901 158.329 126.924 158.331 126.948C158.368 127.222 158.392 127.497 158.403 127.774C152.901 151.729 146.732 173.284 137.681 184.47Z" fill="#2F2E41"/>
<path d="M137.681 184.47L128.511 179.786C128.336 168.703 135.513 153.705 144.026 137.996C124.988 141.037 107.027 142.012 91.4911 138.333C86.1843 137.031 82.9859 132.013 84.3097 127.066C84.3702 126.832 84.4401 126.601 84.5195 126.373C86.3788 121.104 82.2097 117.801 86.0443 112.006C96.1297 108.807 105.71 107.904 114.471 110.729L119.961 122.002L147.17 118.731C152.671 118.12 157.665 121.768 158.323 126.878C158.326 126.901 158.328 126.924 158.331 126.948C158.368 127.222 158.392 127.497 158.403 127.774C152.901 151.729 146.732 173.284 137.681 184.47Z" fill="#2F2E41"/>
<path d="M80.2931 57.8752L90.775 57.3003C91.6811 57.2506 92.5214 57.7403 92.8675 58.5196L95.8297 65.1892L108.141 74.6397C108.141 74.6397 113.015 80.4007 113.026 87.8407C113.037 95.2808 114.755 112.502 114.755 112.502C114.755 112.502 107.642 103.202 103.251 105.675C102.504 106.096 102.241 106.957 101.459 107.392C101.069 107.608 100.167 107.398 99.7727 107.615C93.7224 110.951 87.4125 114.21 86.8229 113.638C85.6653 112.516 84.2611 106.783 84.2611 106.783L74.6664 74.0406C73.6131 70.5524 74.2941 66.8095 76.523 63.8365C77.1933 62.9599 77.8956 62.3078 78.5483 62.2C80.0137 61.9102 79.2342 58.8596 80.2931 57.8752Z" fill="#1FB9EE"/>
<path d="M80.2931 57.8754L90.775 57.3006C91.6811 57.2509 92.5214 57.7405 92.8675 58.5199L95.8297 65.1894L108.141 74.64C108.141 74.64 113.015 80.4009 113.026 87.841C113.037 95.2811 114.755 112.502 114.755 112.502C114.755 112.502 107.642 103.202 103.251 105.675C102.504 106.096 102.241 106.957 101.459 107.392C101.069 107.609 100.167 107.398 99.7727 107.615C93.7224 110.951 87.4125 114.21 86.8229 113.639C85.6653 112.517 84.2611 106.783 84.2611 106.783L74.6664 74.0409C73.6131 70.5527 74.2941 66.8098 76.523 63.8367C77.1933 62.9602 77.8956 62.3081 78.5483 62.2002C80.0137 61.9104 79.2342 58.8599 80.2931 57.8754Z" fill="#1FB9EE"/>
<path d="M169.458 205.329L173.882 202.472L163.859 184.908L157.329 189.125L169.458 205.329Z" fill="#A0616A"/>
<path d="M170.127 193.544L163.192 199.301C152.166 187.89 143.831 171.886 136.767 153.712C118.259 148.678 104.302 140.558 92.1174 130.918C87.9839 127.669 84.8852 123.496 88.4106 119.539C88.5754 119.354 88.7475 119.175 88.9269 119.002C93.0893 115.029 103.645 115.786 109.828 112.146L123.638 125.857L122.77 129.532L148.71 137.694C153.933 139.394 156.682 144.704 154.852 149.554C154.843 149.578 154.834 149.601 154.825 149.625C154.728 149.886 154.619 150.143 154.498 150.396L170.127 193.544Z" fill="#2F2E41"/>
<path d="M170.127 193.544L163.192 199.3C152.166 187.89 143.831 171.886 136.767 153.712C118.259 148.677 104.302 140.558 92.1174 130.918C87.9839 127.669 84.8852 123.496 88.4106 119.538C88.5754 119.353 88.7475 119.174 88.9269 119.002C93.0893 115.028 103.645 115.786 109.828 112.146L123.638 125.856L122.77 129.532L148.71 137.694C153.933 139.393 156.682 144.703 154.852 149.553C154.843 149.577 154.834 149.601 154.825 149.625C154.728 149.886 154.619 150.143 154.498 150.396L170.127 193.544Z" fill="#2F2E41"/>
<path d="M166.878 204.17L173.961 198.99L176.162 201.93L186.56 201.901C187.89 201.897 188.971 202.895 188.976 204.131C188.978 204.866 188.592 205.555 187.942 205.975L179.145 211.655L175.451 209.725L177.036 213.016L173.719 215.157L166.878 204.17Z" fill="#2F2E41"/>
<path d="M95.7714 140.392C93.0641 139.325 91.8009 136.421 92.95 133.906C93.0725 133.638 93.2203 133.381 93.3916 133.137L69.6621 99.8772L79.4678 99.1848L101.11 131.85C103.475 133.5 103.952 136.617 102.176 138.813C100.691 140.651 98.0427 141.303 95.7714 140.392Z" fill="#A0616A"/>
<path d="M95.7713 140.392C93.0641 139.325 91.8009 136.421 92.95 133.907C93.0725 133.639 93.2203 133.381 93.3916 133.137L69.662 99.8776L79.4677 99.1853L101.11 131.851C103.475 133.5 103.952 136.617 102.176 138.814C100.691 140.651 98.0426 141.304 95.7713 140.392Z" fill="#A0616A"/>
<path d="M82.1277 66.7782C82.1277 66.7782 76.5784 63.1125 71.4498 68.5659C66.3212 74.0194 66.7494 96.5813 66.7012 100.22C66.6861 101.359 68.4575 103.817 70.8979 106.657C71.9936 107.932 73.2241 109.284 74.4883 110.627C75.2199 111.405 74.5895 113.023 75.3242 113.779C76.0548 114.531 78.1505 114.42 78.8454 115.118C82.1439 118.429 84.8236 120.949 84.8236 120.949L95.5619 121.072C95.683 113.658 90.2164 107.04 83.1934 100.644L82.1277 66.7782Z" fill="#1FB9EE"/>
<path d="M82.1278 66.7784C82.1278 66.7784 76.5784 63.1127 71.4498 68.5662C66.3212 74.0196 66.7495 96.5815 66.7013 100.22C66.6862 101.359 68.4575 103.818 70.898 106.657C71.9936 107.932 73.2241 109.284 74.4884 110.628C75.22 111.405 74.5896 113.024 75.3242 113.779C76.0548 114.531 78.1505 114.42 78.8455 115.118C82.144 118.429 84.8237 120.949 84.8237 120.949L95.562 121.072C95.6831 113.658 90.2165 107.04 83.1935 100.644L82.1278 66.7784Z" fill="#1FB9EE"/>
<path d="M71.3038 34.4972C70.2871 35.1788 69.2176 35.8809 67.9771 36.0498C66.7365 36.2187 65.2842 35.6617 64.9409 34.5417C64.5211 33.1722 65.8525 31.9254 67.0492 31.0354L70.8437 28.2132C71.5386 27.6409 72.323 27.1698 73.1702 26.8162C74.0321 26.4639 75.0197 26.4946 75.8544 26.8995C76.6837 27.4196 77.1632 28.3019 77.1213 29.2304C77.0672 30.1457 76.742 31.0292 76.1815 31.7837C74.7582 33.8443 72.4908 35.2759 69.9041 35.747" fill="#2F2E41"/>
<path d="M71.3037 34.4975C70.2871 35.179 69.2176 35.8811 67.977 36.05C66.7365 36.2189 65.2842 35.6619 64.9408 34.5419C64.5211 33.1725 65.8525 31.9256 67.0491 31.0356L70.8436 28.2135C71.5385 27.6411 72.3229 27.17 73.1701 26.8164C74.0321 26.4641 75.0197 26.4948 75.8544 26.8997C76.6836 27.4198 77.1632 28.3021 77.1212 29.2307C77.0671 30.1459 76.7419 31.0295 76.1815 31.784C74.7581 33.8445 72.4907 35.2761 69.9041 35.7473" fill="#2F2E41"/>
<path d="M100.083 107.817H72.5732C70.5474 107.817 68.9052 109.342 68.9052 111.224C68.9052 113.105 70.5474 114.631 72.5732 114.631H82.6603V141.034H89.9963V114.631H100.083C102.109 114.631 103.751 113.105 103.751 111.224C103.751 109.342 102.109 107.817 100.083 107.817Z" fill="#3F3D56"/>
<path d="M100.083 107.817H72.5732C70.5474 107.817 68.9052 109.342 68.9052 111.224C68.9052 113.105 70.5474 114.631 72.5732 114.631H82.6603V141.034H89.9963V114.631H100.083C102.109 114.631 103.751 113.105 103.751 111.224C103.751 109.342 102.109 107.817 100.083 107.817Z" fill="#3F3D56"/>
<path d="M72.9893 27.3497C73.1 24.7954 70.1693 22.7728 67.4231 22.9327C64.677 23.0926 62.3162 24.8867 60.7589 26.9944C59.202 29.1003 58.2667 31.5395 57.0402 33.826C55.8136 36.1125 54.1803 38.3513 51.743 39.5361C49.3062 40.7193 45.9141 40.5082 44.2298 38.4881C43.1676 39.9842 42.9366 41.8608 43.6078 43.541C44.2973 45.1994 45.5832 46.5853 47.2475 47.4635C47.9099 47.8283 48.6175 48.1173 49.3548 48.3241C49.6588 47.562 50.0865 46.8475 50.6231 46.2055C50.3807 46.9656 50.2882 47.76 50.35 48.5506C51.4864 48.7529 52.6554 48.7358 53.7843 48.5003C56.0321 48.0333 57.9115 46.6098 58.8562 44.6586C59.8862 42.394 59.3616 39.8121 59.5818 37.3624C59.8002 34.9123 61.3898 32.1153 64.0367 32.0754C66.0524 32.0446 65.7856 32.199 67.0628 33.6475" fill="#2F2E41"/>
<path d="M72.9893 27.3495C73.1 24.7951 70.1694 22.7726 67.4232 22.9325C64.677 23.0923 62.3163 24.8865 60.7589 26.9941C59.202 29.1 58.2668 31.5392 57.0402 33.8258C55.8137 36.1123 54.1803 38.351 51.743 39.5359C49.3062 40.719 45.9142 40.5079 44.2299 38.4879C43.1677 39.9839 42.9367 41.8606 43.6078 43.5407C44.2974 45.1992 45.5833 46.585 47.2475 47.4632C47.91 47.8281 48.6176 48.1171 49.3548 48.3239C49.6588 47.5617 50.0865 46.8473 50.6232 46.2053C50.3808 46.9653 50.2883 47.7598 50.3501 48.5503C51.4864 48.7527 52.6554 48.7356 53.7844 48.5001C56.0322 48.0331 57.9116 46.6095 58.8562 44.6584C59.8862 42.3938 59.3616 39.8118 59.5819 37.3622C59.8003 34.9121 61.3899 32.1151 64.0367 32.0752C66.0525 32.0444 65.7857 32.1987 67.0628 33.6473" fill="#2F2E41"/>
<path d="M91.2932 40.7719C91.2932 46.8868 85.9559 51.844 79.3721 51.844C72.7883 51.844 66.534 44.7576 66.534 38.6426C66.534 32.5276 72.7883 29.6997 79.3721 29.6997C85.9559 29.6997 91.2932 34.6569 91.2932 40.7719Z" fill="#2F2E41"/>
<path d="M91.2932 40.7721C91.2932 46.8871 85.956 51.8442 79.3722 51.8442C72.7883 51.8442 66.5341 44.7578 66.5341 38.6428C66.5341 32.5279 72.7883 29.7 79.3722 29.7C85.956 29.7 91.2932 34.6571 91.2932 40.7721Z" fill="#2F2E41"/>
<path d="M85.2466 54.0406C91.4003 52.8711 95.3682 47.2897 94.109 41.5742C92.8498 35.8586 86.8405 32.1734 80.6867 33.3429C74.533 34.5124 70.5651 40.0938 71.8243 45.8093C73.0835 51.5248 79.0928 55.2101 85.2466 54.0406Z" fill="#A0616A"/>
<path d="M85.2465 54.0406C91.4003 52.8711 95.3681 47.2897 94.1089 41.5742C92.8498 35.8586 86.8404 32.1734 80.6867 33.3429C74.5329 34.5124 70.5651 40.0938 71.8242 45.8093C73.0834 51.5248 79.0928 55.2101 85.2465 54.0406Z" fill="#A0616A"/>
<path d="M97.2537 42.0495C93.887 42.9034 90.4876 43.7984 89.1749 42.0495C88.9198 40.8899 88.4364 39.7841 87.749 38.7875C87.6197 39.9036 87.3377 40.9997 86.9099 42.0495C82.6564 42.9083 78.6809 43.1135 75.2456 42.0495C74.7733 42.843 74.499 43.725 74.4432 44.6302C74.2733 44.5311 74.0955 44.4443 73.9113 44.3704C73.6904 44.2544 73.4264 44.2327 73.1869 44.3108C73.0213 44.4037 72.9113 44.5625 72.8889 44.7409C72.8661 44.9186 72.8754 45.0985 72.9164 45.2732C72.9645 45.8824 73.1605 46.4734 73.4895 47.0022C73.7527 47.3705 74.1703 47.6192 74.6404 47.6878C75.1172 50.1791 78.9136 53.5475 78.9136 53.5475C67.451 53.9734 67.451 46.751 67.451 39.9203L68.8266 37.3652H73.4116V31.8291H86.2497C92.3264 31.8306 97.2522 36.4056 97.2537 42.0495Z" fill="#2F2E41"/>
<path d="M97.2537 42.0495C93.887 42.9034 90.4876 43.7984 89.1749 42.0495C88.9198 40.8899 88.4364 39.7841 87.749 38.7875C87.6197 39.9036 87.3377 40.9997 86.9099 42.0495C82.6564 42.9083 78.6809 43.1135 75.2456 42.0495C74.7733 42.843 74.499 43.725 74.4432 44.6302C74.2733 44.5311 74.0955 44.4443 73.9113 44.3704C73.6904 44.2544 73.4264 44.2327 73.1869 44.3108C73.0213 44.4037 72.9113 44.5625 72.8889 44.7409C72.8661 44.9186 72.8754 45.0985 72.9164 45.2732C72.9645 45.8824 73.1605 46.4734 73.4895 47.0022C73.7527 47.3705 74.1703 47.6192 74.6404 47.6878C75.1172 50.1791 78.9136 53.5475 78.9136 53.5475C67.451 53.9734 67.451 46.751 67.451 39.9203L68.8266 37.3652H73.4116V31.8291H86.2497C92.3264 31.8306 97.2522 36.4056 97.2537 42.0495Z" fill="#2F2E41"/>
<path d="M201.717 215.869L0.548781 216C0.247274 216.001 0.00158025 215.776 7.58622e-06 215.496C-0.00156508 215.216 0.241579 214.987 0.543087 214.986H0.548781L201.717 214.855C202.019 214.856 202.262 215.084 202.261 215.364C202.26 215.642 202.017 215.868 201.717 215.869Z" fill="#CACACA"/>
<path d="M336.059 215.869L232.093 216C231.791 216.001 231.546 215.776 231.544 215.496C231.543 215.216 231.786 214.987 232.087 214.986H232.093L336.059 214.855C336.36 214.854 336.605 215.08 336.606 215.36C336.607 215.64 336.364 215.868 336.062 215.869H336.059Z" fill="#CACACA"/>
<path d="M206.315 63.0262H166.905C163.482 63.0226 160.708 60.4463 160.704 57.2672V33.0136C160.708 29.8345 163.482 27.2582 166.905 27.2546H206.315C209.738 27.2582 212.512 29.8345 212.515 33.0136V57.2672C212.512 60.4463 209.738 63.0227 206.315 63.0262ZM166.905 28.1063C163.988 28.1094 161.625 30.3047 161.621 33.0136V57.2672C161.625 59.9761 163.988 62.1714 166.905 62.1745H206.315C209.231 62.1714 211.595 59.9761 211.598 57.2672V33.0136C211.595 30.3047 209.231 28.1094 206.315 28.1063L166.905 28.1063Z" fill="#E6E6E6"/>
<path d="M206.315 63.0262H166.905C163.482 63.0226 160.708 60.4463 160.704 57.2672V33.0136C160.708 29.8345 163.482 27.2582 166.905 27.2546H206.315C209.738 27.2582 212.512 29.8345 212.515 33.0136V57.2672C212.512 60.4463 209.738 63.0227 206.315 63.0262ZM166.905 28.1063C163.988 28.1094 161.625 30.3047 161.621 33.0136V57.2672C161.625 59.9761 163.988 62.1714 166.905 62.1745H206.315C209.231 62.1714 211.595 59.9761 211.598 57.2672V33.0136C211.595 30.3047 209.231 28.1094 206.315 28.1063L166.905 28.1063Z" fill="#E6E6E6"/>
<path d="M178.582 34.9199H168.04V35.7716H178.582V34.9199Z" fill="#E6E6E6"/>
<path d="M178.582 34.9199H168.04V35.7716H178.582V34.9199Z" fill="#E6E6E6"/>
<path d="M191.424 38.3267H168.04V39.1784H191.424V38.3267Z" fill="#E6E6E6"/>
<path d="M191.424 38.3267H168.04V39.1784H191.424V38.3267Z" fill="#E6E6E6"/>
<path d="M191.424 41.3076H168.04V42.1593H191.424V41.3076Z" fill="#E6E6E6"/>
<path d="M191.424 41.3076H168.04V42.1593H191.424V41.3076Z" fill="#E6E6E6"/>
<path d="M197.843 44.2886H168.04V45.1403H197.843V44.2886Z" fill="#E6E6E6"/>
<path d="M197.843 44.2886H168.04V45.1403H197.843V44.2886Z" fill="#E6E6E6"/>
<path d="M183.63 47.2695H168.04V48.1212H183.63V47.2695Z" fill="#E6E6E6"/>
<path d="M183.63 47.2695H168.04V48.1212H183.63V47.2695Z" fill="#E6E6E6"/>
<path d="M196.468 50.2505H168.04V51.1022H196.468V50.2505Z" fill="#E6E6E6"/>
<path d="M196.468 50.2505H168.04V51.1022H196.468V50.2505Z" fill="#E6E6E6"/>
<path d="M173.084 53.2314H168.04V54.0831H173.084V53.2314Z" fill="#E6E6E6"/>
<path d="M173.084 53.2314H168.04V54.0831H173.084V53.2314Z" fill="#E6E6E6"/>
<path d="M167.697 16.5906C167.653 16.5906 167.608 16.5746 167.575 16.5427L166.596 15.6138C166.531 15.5519 166.531 15.453 166.596 15.3911L167.575 14.4624C167.641 14.3995 167.75 14.3985 167.817 14.4599C167.885 14.5214 167.886 14.6222 167.82 14.6851L166.959 15.5025L167.82 16.32C167.886 16.3828 167.885 16.4837 167.817 16.5452C167.784 16.5755 167.74 16.5906 167.697 16.5906Z" fill="#CCCCCC"/>
<path d="M167.697 16.5901C167.653 16.5901 167.608 16.5741 167.575 16.5422L166.596 15.6133C166.531 15.5514 166.531 15.4525 166.596 15.3907L167.575 14.4619C167.641 14.3991 167.75 14.398 167.817 14.4594C167.885 14.5209 167.886 14.6217 167.82 14.6846L166.959 15.502L167.82 16.3195C167.886 16.3823 167.885 16.4832 167.817 16.5447C167.784 16.575 167.74 16.5901 167.697 16.5901Z" fill="#CCCCCC"/>
<path d="M169.341 16.5905C169.298 16.5905 169.255 16.5754 169.221 16.5451C169.153 16.4835 169.152 16.3828 169.219 16.3199L170.079 15.5024L169.219 14.6849C169.152 14.6221 169.153 14.5213 169.221 14.4598C169.289 14.3982 169.397 14.3993 169.464 14.4622L170.442 15.391C170.507 15.4529 170.507 15.5518 170.442 15.6137L169.464 16.5426C169.43 16.5744 169.386 16.5905 169.341 16.5905Z" fill="#CCCCCC"/>
<path d="M169.341 16.5902C169.298 16.5902 169.255 16.5751 169.221 16.5448C169.153 16.4833 169.152 16.3825 169.219 16.3196L170.079 15.5021L169.219 14.6847C169.152 14.6219 169.153 14.521 169.221 14.4595C169.289 14.3979 169.397 14.3991 169.464 14.462L170.442 15.3908C170.507 15.4527 170.507 15.5516 170.442 15.6135L169.464 16.5423C169.43 16.5742 169.386 16.5902 169.341 16.5902Z" fill="#CCCCCC"/>
<path d="M220.521 14.2852H218.702C218.494 14.2852 218.326 14.4412 218.326 14.6339V16.325C218.326 16.5177 218.494 16.6738 218.702 16.6738H220.521C220.728 16.6738 220.898 16.5177 220.898 16.325V14.6339C220.898 14.4412 220.728 14.2852 220.521 14.2852Z" fill="#CCCCCC"/>
<path d="M220.521 14.2852H218.702C218.494 14.2852 218.326 14.4412 218.326 14.6339V16.325C218.326 16.5177 218.494 16.6738 218.702 16.6738H220.521C220.728 16.6738 220.898 16.5177 220.898 16.325V14.6339C220.898 14.4412 220.728 14.2852 220.521 14.2852Z" fill="#CCCCCC"/>
<path d="M216.063 14.2852H214.244C214.036 14.2852 213.868 14.4412 213.868 14.6339V16.325C213.868 16.5177 214.036 16.6738 214.244 16.6738H216.063C216.27 16.6738 216.44 16.5177 216.44 16.325V14.6339C216.44 14.4412 216.27 14.2852 216.063 14.2852Z" fill="#CCCCCC"/>
<path d="M216.063 14.2852H214.244C214.036 14.2852 213.868 14.4412 213.868 14.6339V16.325C213.868 16.5177 214.036 16.6738 214.244 16.6738H216.063C216.27 16.6738 216.44 16.5177 216.44 16.325V14.6339C216.44 14.4412 216.27 14.2852 216.063 14.2852Z" fill="#CCCCCC"/>
<path d="M224.721 14.3647H222.902C222.695 14.3647 222.527 14.5208 222.527 14.7135V16.4046C222.527 16.5973 222.695 16.7534 222.902 16.7534H224.721C224.929 16.7534 225.098 16.5973 225.098 16.4046V14.7135C225.098 14.5208 224.929 14.3647 224.721 14.3647Z" fill="#CCCCCC"/>
<path d="M224.721 14.365H222.902C222.695 14.365 222.527 14.521 222.527 14.7137V16.4049C222.527 16.5976 222.695 16.7536 222.902 16.7536H224.721C224.929 16.7536 225.098 16.5976 225.098 16.4049V14.7137C225.098 14.521 224.929 14.365 224.721 14.365Z" fill="#CCCCCC"/>
<path d="M197.303 15.0081H182.762C182.508 15.0081 182.304 15.1991 182.304 15.4332C182.304 15.6673 182.508 15.8584 182.762 15.8584H197.303C197.555 15.8584 197.76 15.6673 197.76 15.4332C197.76 15.1992 197.555 15.0081 197.303 15.0081Z" fill="#CCCCCC"/>
<path d="M197.303 15.0081H182.762C182.508 15.0081 182.304 15.1991 182.304 15.4332C182.304 15.6673 182.508 15.8584 182.762 15.8584H197.303C197.555 15.8584 197.76 15.6673 197.76 15.4332C197.76 15.1992 197.555 15.0081 197.303 15.0081Z" fill="#CCCCCC"/>
<rect x="18.7516" y="159.84" width="330.497" height="47.52" fill="#E1F3FF"/>
<path d="M56.9632 177.112V178.84H71.0272V177.112H56.9632ZM62.9152 175.896V178.136H64.8992V175.896H62.9152ZM57.4912 180.104V190.888H59.3152V181.752H69.7952V180.104H57.4912ZM68.8032 180.104V188.824C68.8032 189.048 68.7232 189.128 68.4512 189.128C68.1792 189.144 67.2512 189.144 66.4192 189.096C66.6752 189.576 66.9632 190.424 67.0432 190.936C68.3072 190.936 69.2032 190.888 69.8432 190.6C70.4672 190.312 70.6592 189.768 70.6592 188.84V180.104H68.8032ZM61.5232 181.544C61.4432 182.824 61.1072 183.448 59.1232 183.8C59.4592 184.104 59.8592 184.728 60.0032 185.128C62.5472 184.552 63.0912 183.464 63.2192 181.544H61.5232ZM64.4832 181.544V182.792C64.4832 184.104 64.7872 184.52 66.2112 184.52C66.4832 184.52 67.2192 184.52 67.5072 184.52C68.4992 184.52 68.9152 184.152 69.0752 182.792C68.6432 182.696 67.9712 182.472 67.6672 182.248C67.6192 183.032 67.5552 183.144 67.2992 183.144C67.1392 183.144 66.6112 183.144 66.4672 183.144C66.1792 183.144 66.1472 183.112 66.1472 182.76V181.544H64.4832ZM60.8832 185.128V190.168H62.5792V185.128H60.8832ZM61.9392 185.128V186.536H65.4752V187.896H61.9392V189.304H67.2032V185.128H61.9392ZM59.8272 178.808C60.0832 179.352 60.3712 180.088 60.4672 180.552L62.4512 180.152C62.3232 179.688 62.0192 179 61.7312 178.488L59.8272 178.808ZM66.0832 178.472C65.9072 178.968 65.5712 179.688 65.2992 180.184L67.2032 180.504C67.4912 180.072 67.8272 179.496 68.2112 178.792L66.0832 178.472ZM77.1552 178.36H82.7872V180.52H77.1552V178.36ZM75.2992 176.536V182.344H84.7552V176.536H75.2992ZM73.1072 183.688V190.92H74.9152V185.512H77.2992V190.824H79.2192V183.688H73.1072ZM80.5792 183.688V190.92H82.4192V185.512H84.9792V190.84H86.9152V183.688H80.5792ZM73.9072 188.28V190.12H78.0992V188.28H73.9072ZM81.4592 188.28V190.12H85.9392V188.28H81.4592ZM97.4432 178.52L95.2512 178.456C95.0912 180.136 94.7392 181.976 94.2752 183.48C93.6032 185.64 92.9952 186.664 92.3072 186.664C91.6992 186.664 91.0592 185.88 91.0592 184.264C91.0592 182.248 92.9152 179.48 96.3072 179.48C99.0752 179.48 100.643 181.272 100.643 183.784C100.643 186.136 99.0432 187.592 97.0112 188.088C96.5792 188.184 96.1312 188.264 95.5072 188.344L96.7232 190.232C100.755 189.608 102.819 187.224 102.819 183.864C102.819 180.36 100.307 177.608 96.3552 177.608C92.2112 177.608 88.9952 180.776 88.9952 184.456C88.9952 187.16 90.4672 189.128 92.2592 189.128C94.0032 189.128 95.3792 187.144 96.3392 183.912C96.8992 182.024 97.2192 180.152 97.4432 178.52ZM113.475 176.2V189.672H115.443V176.2H113.475ZM109.203 180.744V182.6H119.507V180.744H109.203ZM109.635 188.456V190.312H119.235V188.456H109.635ZM106.643 180.6V190.888H108.547V178.744L108.515 178.712L106.643 180.6ZM108.339 175.912C107.427 178.28 105.875 180.632 104.259 182.12C104.611 182.584 105.171 183.624 105.363 184.072C107.235 182.248 109.059 179.32 110.195 176.504L108.339 175.912ZM123.651 176.792V178.744H128.179V176.792H123.651ZM127.235 176.792C127.235 180.056 127.939 187.208 134.035 190.872C134.371 190.392 135.139 189.544 135.587 189.192C129.651 185.72 129.219 179.832 129.219 176.792H127.235ZM126.547 180.296C125.683 184.536 123.763 187.64 120.419 189.336C120.915 189.688 121.811 190.488 122.163 190.904C125.507 188.888 127.635 185.448 128.755 180.696L126.547 180.296ZM151.587 188.648L151.315 186.408C150.595 187.128 149.843 187.544 149.251 187.544C148.851 187.544 148.627 187.256 148.627 186.84C148.627 185.176 149.155 182.824 149.155 181.176C149.155 179.832 148.371 178.808 146.643 178.808C144.531 178.808 141.859 181.208 140.883 182.232L140.899 184.696C142.179 183.064 144.563 180.712 146.051 180.712C146.739 180.712 147.139 181.096 147.139 181.88C147.139 183.352 146.563 185.688 146.563 187.432C146.563 188.984 147.363 189.848 148.563 189.848C149.875 189.848 150.835 189.336 151.587 188.648ZM140.531 181.032L140.403 181.32L140.371 181.736C139.571 183 137.651 185.528 136.643 186.776L137.891 188.536C138.739 187.368 140.163 185.224 140.867 184.2L141.795 181.192C142.067 180.776 142.563 179.992 142.835 179.624L142.195 178.792C141.475 179.032 139.427 179.336 138.419 179.384C137.843 179.416 137.475 179.416 137.027 179.4L137.235 181.464C138.291 181.304 139.811 181.112 140.531 181.032ZM140.339 177.944C140.339 178.584 139.987 183.064 139.939 184.488C139.891 186.488 139.875 187.56 139.859 189.112C139.859 189.368 139.843 189.928 139.811 190.296H142.003C141.971 189.944 141.907 189.352 141.891 189.064C141.795 187.576 141.795 186.216 141.795 184.92C141.795 182.056 142.323 177.864 142.595 176.584L140.259 176.52C140.355 177.016 140.339 177.496 140.339 177.944ZM160.403 179.304L161.907 178.216C161.347 177.624 160.147 176.6 159.587 176.152L158.115 177.176C158.739 177.656 159.843 178.728 160.403 179.304ZM156.051 177.592L153.971 178.408C154.291 178.808 154.675 179.416 154.915 179.8C155.571 180.952 156.163 182.408 156.803 183.896C157.619 185.816 158.451 188.52 158.947 190.536L161.155 189.976C160.627 188.168 159.379 184.76 158.627 183.016C158.051 181.672 157.331 180.088 156.675 178.856C156.499 178.552 156.179 177.896 156.051 177.592ZM152.595 182.28L153.523 184.328C155.507 183.432 160.307 180.568 162.899 180.568C164.099 180.568 164.803 181.24 164.803 182.04C164.803 183.192 163.923 183.848 162.723 183.848C162.035 183.848 161.235 183.624 160.515 183.32L160.451 185.32C161.059 185.544 162.051 185.768 162.931 185.768C165.379 185.768 166.915 184.36 166.915 182.12C166.915 180.264 165.411 178.76 162.947 178.76C160.371 178.76 157.091 180.632 154.179 181.768C153.907 181.88 153.219 182.136 152.595 182.28ZM172.707 189.096V190.504H180.515V189.096H172.707ZM174.995 179.256V181.176H176.851V179.256H174.995ZM169.091 180.36V183.544H170.899V181.8H181.139V183.544H183.011V180.36H169.091ZM172.643 182.472V183.848H178.563V184.68H172.643V186.056H180.483V182.472H172.643ZM172.723 186.776V188.184H179.779V190.936H181.699V186.776H172.723ZM171.587 182.472V190.952H173.411V182.472H171.587ZM170.707 177.016V178.52H175.747V177.016H170.707ZM177.187 177.016V178.52H183.395V177.016H177.187ZM170.771 175.768C170.275 176.984 169.363 178.232 168.403 179.032C168.835 179.256 169.603 179.768 169.971 180.056C170.915 179.144 171.939 177.688 172.563 176.248L170.771 175.768ZM177.283 175.768C176.819 176.936 175.923 178.104 174.899 178.84C175.379 179.048 176.195 179.464 176.579 179.752C177.539 178.92 178.531 177.592 179.107 176.216L177.283 175.768ZM171.299 178.184C171.683 178.76 172.099 179.576 172.243 180.072L173.971 179.576C173.779 179.064 173.331 178.296 172.931 177.752L171.299 178.184ZM178.451 178.232C178.899 178.792 179.427 179.608 179.635 180.088L181.411 179.592C181.155 179.08 180.595 178.312 180.131 177.784L178.451 178.232ZM192.195 181.048H197.043V182.424H192.195V181.048ZM192.195 178.2H197.043V179.544H192.195V178.2ZM190.467 176.568V184.04H198.867V176.568H190.467ZM190.355 185.416V187.144H199.043V185.416H190.355ZM189.235 188.68V190.408H199.571V188.68H189.235ZM184.547 176.808V178.6H189.859V176.808H184.547ZM184.707 181.416V183.192H189.587V181.416H184.707ZM184.371 187.496L184.803 189.448C186.339 188.952 188.259 188.328 190.051 187.72L189.715 185.88C187.795 186.504 185.747 187.144 184.371 187.496ZM186.323 177.512V187.64L188.147 187.352V177.512H186.323ZM193.843 177.256V183.288H193.667V189.496H195.635V183.288H195.459V177.256H193.843ZM207.763 176.648L205.651 176.472C205.603 177.288 205.395 178.264 205.075 179.128C204.403 180.888 203.171 182.616 201.123 184.504L202.835 185.784C203.379 185.08 203.827 184.504 204.307 184.024C204.915 183.448 205.923 182.92 206.803 182.92C207.475 182.92 208.115 183.256 208.115 184.28C208.131 185.144 208.099 186.504 208.035 187.256H209.955C209.939 186.248 209.891 184.504 209.891 183.64C209.891 182.152 208.883 181.368 207.555 181.368C207.011 181.368 206.163 181.48 205.731 181.672C206.179 181.032 206.643 180.12 206.979 179.336C207.427 178.184 207.635 177.24 207.763 176.648ZM201.731 178.136V179.992C202.611 180.072 203.779 180.104 204.435 180.104C206.387 180.104 209.603 179.96 211.859 179.64L211.875 177.784C209.555 178.2 206.659 178.312 204.547 178.312C203.731 178.312 202.547 178.248 201.731 178.136ZM214.403 182.68L213.619 180.808C213.011 181.112 212.451 181.368 211.827 181.64C210.867 182.088 209.859 182.472 208.387 183.24C206.467 184.2 204.179 185.512 204.179 187.736C204.179 189.8 206.051 190.424 208.547 190.424C210.067 190.424 212.019 190.28 213.091 190.136L213.155 188.072C211.747 188.36 209.955 188.536 208.595 188.536C207.043 188.536 206.275 188.296 206.275 187.416C206.275 186.536 207.059 185.848 208.515 185.096C210.019 184.328 211.459 183.752 212.499 183.352C213.043 183.144 213.907 182.824 214.403 182.68ZM217.571 180.072V190.904H219.315V180.072H217.571ZM220.947 185V190.072H222.659V185H220.947ZM221.715 185V186.072H225.331V188.456H221.715V189.512H227.011V185H221.715ZM218.499 180.072V181.192H221.843V183.288H218.499V184.392H223.571V180.072H218.499ZM218.515 181.72V182.744H222.339V181.72H218.515ZM221.715 186.728V187.768H226.099V186.728H221.715ZM225.571 181.72V182.744H229.491V181.72H225.571ZM229.267 180.072H224.515V184.392H229.267V183.288H226.243V181.192H229.267V180.072ZM228.835 180.072V188.968C228.835 189.192 228.755 189.256 228.515 189.272C228.275 189.272 227.459 189.288 226.739 189.24C226.963 189.704 227.203 190.424 227.267 190.904C228.451 190.92 229.299 190.888 229.875 190.616C230.451 190.344 230.627 189.88 230.627 188.984V180.072H228.835ZM218.707 177.032V178.472H223.747V177.032H218.707ZM225.139 177.032V178.472H231.283V177.032H225.139ZM218.771 175.768C218.275 176.968 217.379 178.184 216.403 178.968C216.835 179.208 217.603 179.704 217.971 180.008C218.915 179.112 219.939 177.672 220.563 176.248L218.771 175.768ZM225.315 175.768C224.835 176.984 223.907 178.184 222.867 178.952C223.331 179.144 224.147 179.576 224.547 179.848C225.507 179 226.547 177.624 227.139 176.216L225.315 175.768ZM219.299 178.232C219.651 178.776 220.035 179.512 220.179 179.976L221.843 179.512C221.667 179.032 221.251 178.328 220.883 177.816L219.299 178.232ZM226.467 178.232C226.915 178.776 227.395 179.528 227.603 180.008L229.315 179.528C229.075 179.032 228.547 178.296 228.099 177.784L226.467 178.232ZM236.675 180.552H243.411V181.544H236.675V180.552ZM236.675 178.12H243.411V179.112H236.675V178.12ZM234.787 176.584V183.096H245.363V176.584H234.787ZM235.779 184.056V185.736H245.139V184.056H235.779ZM244.707 184.056V184.328C244.435 187.496 244.083 188.84 243.731 189.176C243.555 189.352 243.411 189.384 243.139 189.384C242.851 189.384 242.211 189.384 241.539 189.304C241.827 189.752 242.003 190.456 242.035 190.936C242.851 190.968 243.603 190.968 244.035 190.904C244.563 190.856 244.963 190.712 245.363 190.312C245.875 189.752 246.243 188.296 246.579 184.808C246.627 184.568 246.659 184.056 246.659 184.056H244.707ZM236.755 182.248C235.811 183.896 234.115 185.4 232.339 186.312C232.755 186.616 233.475 187.32 233.795 187.688C235.571 186.584 237.427 184.808 238.595 182.84L236.755 182.248ZM238.323 184.648C237.363 186.536 235.571 188.216 233.619 189.192C234.035 189.512 234.739 190.2 235.043 190.568C236.995 189.368 238.963 187.432 240.131 185.192L238.323 184.648ZM241.603 184.76C240.915 186.84 239.619 188.728 238.003 189.848C238.419 190.12 239.187 190.712 239.507 191.032C241.123 189.72 242.579 187.592 243.411 185.192L241.603 184.76ZM255.139 178.296L255.155 180.344C257.155 180.536 260.067 180.536 262.019 180.344V178.28C260.307 178.488 257.107 178.568 255.139 178.296ZM256.419 185.128L254.595 184.968C254.403 185.784 254.307 186.408 254.307 187.048C254.307 188.68 255.635 189.672 258.387 189.672C260.195 189.672 261.491 189.56 262.531 189.352L262.483 187.192C261.091 187.496 259.907 187.624 258.483 187.624C256.851 187.624 256.227 187.192 256.227 186.472C256.227 186.056 256.291 185.672 256.419 185.128ZM252.675 177.224L250.435 177.048C250.419 177.56 250.339 178.168 250.275 178.6C250.099 179.848 249.619 182.536 249.619 184.952C249.619 187.128 249.923 189.08 250.243 190.168L252.083 190.056C252.067 189.832 252.067 189.56 252.051 189.384C252.051 189.224 252.099 188.872 252.147 188.632C252.307 187.784 252.835 186.056 253.299 184.712L252.307 183.928C252.067 184.472 251.811 185.016 251.571 185.56C251.523 185.24 251.507 184.84 251.507 184.52C251.507 182.92 252.067 179.72 252.291 178.664C252.355 178.376 252.563 177.56 252.675 177.224ZM269.923 176.792L267.347 176.776C267.475 177.4 267.539 178.168 267.539 178.936C267.539 180.312 267.395 184.504 267.395 186.648C267.395 189.384 269.075 190.536 271.699 190.536C275.347 190.536 277.619 188.408 278.659 186.872L277.203 185.096C276.035 186.84 274.371 188.36 271.731 188.36C270.483 188.36 269.523 187.832 269.523 186.216C269.523 184.232 269.635 180.664 269.715 178.936C269.747 178.296 269.827 177.464 269.923 176.792ZM287.555 176.712L285.107 176.52C285.155 176.904 285.139 177.56 285.059 178.152C284.947 179.096 284.579 180.856 284.179 182.36C283.571 184.6 282.355 187.944 281.411 189.56L283.635 190.312C284.515 188.408 285.587 185.144 286.163 182.904C286.595 181.272 286.995 179.32 287.219 178.232C287.299 177.88 287.443 177.16 287.555 176.712ZM283.475 179.112C282.819 179.112 282.291 179.08 281.459 178.984L281.523 180.984C282.083 181.016 282.675 181.048 283.459 181.048C285.267 181.048 287.779 180.776 289.763 180.312V178.312C287.683 178.808 285.427 179.112 283.475 179.112ZM288.499 181.56V183.432C289.507 183.304 290.499 183.256 291.603 183.256C292.563 183.256 293.539 183.368 294.355 183.464L294.387 181.544C293.459 181.448 292.499 181.4 291.587 181.4C290.547 181.4 289.395 181.464 288.499 181.56ZM289.363 185.576L287.459 185.4C287.331 186.024 287.187 186.792 287.187 187.544C287.187 189.16 288.627 190.072 291.331 190.072C292.611 190.072 293.683 189.976 294.579 189.848L294.659 187.816C293.523 188.024 292.419 188.136 291.347 188.136C289.619 188.136 289.155 187.608 289.155 186.904C289.155 186.552 289.251 186.04 289.363 185.576ZM300.131 178.056L297.667 178.024C297.779 178.52 297.795 179.208 297.795 179.64C297.795 180.616 297.811 182.504 297.971 183.976C298.419 188.264 299.939 189.832 301.715 189.832C302.995 189.832 303.987 188.872 305.059 186.072L303.443 184.136C303.139 185.4 302.515 187.288 301.747 187.288C300.739 187.288 300.259 185.704 300.035 183.4C299.939 182.232 299.939 181.048 299.939 180.008C299.939 179.56 300.019 178.616 300.131 178.056ZM308.131 178.408L306.099 179.08C307.843 181.064 308.707 184.936 308.947 187.528L311.059 186.696C310.883 184.248 309.651 180.248 308.131 178.408Z" fill="#333333"/>
</g>
<defs>
<clipPath id="clip0_68_205">
<rect width="368" height="216" fill="white"/>
</clipPath>
</defs>
</svg>
