<svg width="368" height="216" viewBox="0 0 368 216" fill="none" xmlns="http://www.w3.org/2000/svg">
<g clip-path="url(#clip0_68_388)">
<rect width="368" height="216" fill="#F2F2F2"/>
<path d="M323.535 207.964C327.559 213.36 336.353 215.771 336.353 215.771C336.353 215.771 338.622 209.433 334.599 204.037C330.575 198.641 321.781 196.23 321.781 196.23C321.781 196.23 319.512 202.568 323.535 207.964Z" fill="#F1F1F1"/>
<path d="M326.453 206.246C333.901 209.474 336.628 215.726 336.628 215.726C336.628 215.726 327.281 216.743 319.834 213.514C312.387 210.286 309.659 204.034 309.659 204.034C309.659 204.034 319.006 203.017 326.453 206.246Z" fill="#F1F1F1"/>
<path d="M221.803 212.035H216.58L214.096 198.137L221.804 198.137L221.803 212.035Z" fill="#FFB7B7"/>
<path d="M223.135 215.528L206.295 215.528V215.381C206.295 214.182 206.986 213.032 208.215 212.183C209.444 211.335 211.111 210.859 212.85 210.859L223.135 210.859L223.135 215.528Z" fill="#2F2E41"/>
<path d="M254.178 212.035H248.956L246.471 198.137L254.179 198.137L254.178 212.035Z" fill="#FFB7B7"/>
<path d="M255.51 215.528L238.67 215.528V215.381C238.671 214.182 239.361 213.032 240.59 212.183C241.819 211.335 243.487 210.859 245.225 210.859L255.51 210.859L255.51 215.528Z" fill="#2F2E41"/>
<path d="M239.013 133.749L228.738 119.482L231.384 107.648L219.03 105.297L217.752 121.168L233.773 136.19C233.658 136.752 233.782 137.326 234.129 137.841C234.477 138.356 235.034 138.79 235.732 139.092C236.43 139.393 237.24 139.548 238.064 139.538C238.887 139.528 239.689 139.353 240.371 139.035C241.054 138.717 241.588 138.27 241.909 137.747C242.231 137.224 242.325 136.647 242.182 136.088C242.038 135.528 241.662 135.01 241.1 134.595C240.537 134.179 239.813 133.886 239.013 133.749Z" fill="#FFB7B7"/>
<path d="M239.013 133.749L228.738 119.482L231.384 107.648L219.03 105.297L217.752 121.168L233.773 136.189C233.658 136.752 233.782 137.326 234.129 137.841C234.477 138.356 235.034 138.79 235.732 139.091C236.43 139.393 237.24 139.548 238.064 139.538C238.887 139.528 239.689 139.353 240.371 139.035C241.054 138.717 241.588 138.27 241.909 137.746C242.231 137.223 242.325 136.647 242.182 136.088C242.038 135.528 241.662 135.009 241.1 134.594C240.537 134.179 239.813 133.885 239.013 133.749Z" fill="#FFB7B7"/>
<path d="M261.242 133.749L271.518 119.482L268.871 107.648L281.225 105.297L282.503 121.168L266.482 136.19C266.598 136.752 266.474 137.326 266.126 137.841C265.778 138.356 265.222 138.79 264.523 139.092C263.825 139.393 263.015 139.548 262.192 139.538C261.368 139.528 260.567 139.353 259.884 139.035C259.202 138.717 258.667 138.27 258.346 137.747C258.025 137.224 257.93 136.647 258.074 136.088C258.218 135.528 258.593 135.01 259.156 134.595C259.718 134.179 260.443 133.886 261.242 133.749Z" fill="#FFB7B7"/>
<path d="M261.242 133.749L271.518 119.482L268.871 107.648L281.225 105.297L282.503 121.168L266.482 136.189C266.598 136.752 266.474 137.326 266.126 137.841C265.778 138.356 265.222 138.79 264.523 139.091C263.825 139.393 263.015 139.548 262.192 139.538C261.368 139.528 260.567 139.353 259.884 139.035C259.202 138.717 258.667 138.27 258.346 137.746C258.025 137.223 257.93 136.647 258.074 136.088C258.218 135.528 258.593 135.009 259.156 134.594C259.718 134.179 260.443 133.885 261.242 133.749Z" fill="#FFB7B7"/>
<path d="M254.384 84.9895C260.591 84.9895 265.623 81.5178 265.623 77.2351C265.623 72.9525 260.591 69.4807 254.384 69.4807C248.177 69.4807 243.145 72.9525 243.145 77.2351C243.145 81.5178 248.177 84.9895 254.384 84.9895Z" fill="#FFB9B9"/>
<path d="M254.384 84.9895C260.591 84.9895 265.623 81.5178 265.623 77.2351C265.623 72.9525 260.591 69.4807 254.384 69.4807C248.176 69.4807 243.145 72.9525 243.145 77.2351C243.145 81.5178 248.176 84.9895 254.384 84.9895Z" fill="#FFB9B9"/>
<path d="M243.23 77.1936C243.23 77.1936 242.01 75.9316 242.479 74.5725C242.759 73.8009 242.87 73.0046 242.807 72.2103C243.332 71.0329 243.991 69.886 244.777 68.7802C245.762 67.5506 245.293 67.0329 248.389 66.6446C251.484 66.2562 250.218 63.4734 258.378 66.4828C258.654 66.748 259.037 66.951 259.479 67.0662C259.921 67.1814 260.403 67.2035 260.864 67.1299C262.552 66.9034 263.162 68.5214 263.162 68.5214C263.162 68.5214 264.288 68.0684 264.71 68.7155C265.132 69.3627 268.142 68.3271 268.142 72.6956C268.142 77.064 264.717 80.9662 264.717 80.9662C264.717 80.9662 262.312 86.2019 256.73 85.4577C251.149 84.7134 250.341 85.1638 246.507 80.1672C245.722 81.7291 244.517 75.7994 243.23 77.1936Z" fill="#2F2E41"/>
<path d="M243.23 77.1938C243.23 77.1938 242.01 75.9318 242.479 74.5727C242.759 73.8011 242.87 73.0048 242.808 72.2105C243.332 71.0332 243.991 69.8863 244.777 68.7805C245.762 67.5508 245.293 67.0331 248.389 66.6448C251.484 66.2565 250.218 63.4736 258.378 66.483C258.654 66.7482 259.037 66.9512 259.479 67.0664C259.922 67.1816 260.403 67.2038 260.864 67.1302C262.553 66.9037 263.162 68.5216 263.162 68.5216C263.162 68.5216 264.288 68.0686 264.71 68.7158C265.132 69.363 268.142 68.3274 268.142 72.6958C268.142 77.0643 264.717 80.9665 264.717 80.9665C264.717 80.9665 262.312 86.2022 256.731 85.4579C251.149 84.7137 250.341 85.164 246.507 80.1675C245.722 81.7294 244.517 75.7996 243.23 77.1938Z" fill="#2F2E41"/>
<path d="M229.68 127.34L228.377 130.866C228.377 130.866 222.239 132.912 219.783 151.288L216.474 178.841L211.425 207.717L221.922 208.279L229.2 189.985L244.925 151.519L247.907 180.619L244.59 206.991L255.666 207.285L263.333 177.894C263.333 177.894 275.08 134.843 267.503 133.59L266.741 129.104L229.68 127.34Z" fill="#2F2E41"/>
<path d="M229.68 127.34L228.377 130.866C228.377 130.866 222.239 132.912 219.783 151.288L216.474 178.841L211.425 207.717L221.922 208.279L229.2 189.985L244.925 151.519L247.907 180.619L244.59 206.991L255.666 207.285L263.333 177.894C263.333 177.894 275.08 134.843 267.503 133.59L266.741 129.104L229.68 127.34Z" fill="#2F2E41"/>
<path d="M227.25 94.2054L245.331 87.3308L260.676 87.8959L279.004 95.3811L271.365 128.297C271.365 128.297 275.744 131.675 262.51 130.683C249.276 129.692 227.886 128.887 227.886 128.887C227.886 128.887 226.165 126.532 229.84 126.201C233.514 125.871 230.441 125.948 230.441 125.948C230.441 125.948 228.221 121.029 230.441 120.07L231.516 109.967L227.25 94.2054Z" fill="#3F3D56"/>
<path d="M227.25 94.2056L245.331 87.3311L260.676 87.8961L279.004 95.3813L271.365 128.298C271.365 128.298 275.744 131.675 262.51 130.684C249.276 129.692 227.886 128.887 227.886 128.887C227.886 128.887 226.165 126.532 229.84 126.202C233.514 125.871 230.441 125.948 230.441 125.948C230.441 125.948 228.221 121.029 230.441 120.07L231.516 109.967L227.25 94.2056Z" fill="#3F3D56"/>
<path d="M232.236 94.7158L227.25 94.2053L216.687 107.207L233.85 112.428L232.236 94.7158Z" fill="#3F3D56"/>
<path d="M232.236 94.7158L227.25 94.2053L216.687 107.207L233.85 112.428L232.236 94.7158Z" fill="#3F3D56"/>
<path d="M273.131 97.0673L279.004 95.3811L284.846 113.673L268.994 115.745L273.131 97.0673Z" fill="#3F3D56"/>
<path d="M273.131 97.0673L279.004 95.3811L284.846 113.673L268.994 115.745L273.131 97.0673Z" fill="#3F3D56"/>
<path d="M137.531 216H367.53C367.654 216 367.774 215.966 367.862 215.905C367.95 215.844 368 215.762 368 215.676C368 215.59 367.95 215.507 367.862 215.446C367.774 215.385 367.654 215.351 367.53 215.351H137.531C137.407 215.351 137.287 215.385 137.199 215.446C137.111 215.507 137.061 215.59 137.061 215.676C137.061 215.762 137.111 215.844 137.199 215.905C137.287 215.966 137.407 216 137.531 216Z" fill="#CBCBCB"/>
<path d="M112.883 129.03H53.1489V149.799H112.883V129.03Z" fill="white"/>
<path d="M112.883 129.029H53.1489V149.798H112.883V129.029Z" fill="white"/>
<path d="M105.825 134.346H60.2064V135.413H105.825V134.346Z" fill="#1FB9EE"/>
<path d="M105.825 134.346H60.2064V135.413H105.825V134.346Z" fill="#1FB9EE"/>
<path d="M105.825 138.881H60.2064V139.948H105.825V138.881Z" fill="#1FB9EE"/>
<path d="M105.825 138.881H60.2064V139.948H105.825V138.881Z" fill="#1FB9EE"/>
<path d="M105.825 143.415H60.2064V144.482H105.825V143.415Z" fill="#1FB9EE"/>
<path d="M105.825 143.415H60.2064V144.482H105.825V143.415Z" fill="#1FB9EE"/>
<path d="M113.353 150.123H52.6785V128.705H113.353V150.123ZM53.6192 149.474H112.412V129.354H53.6192V149.474Z" fill="#3F3D56"/>
<path d="M113.353 150.123H52.6785V128.705H113.353V150.123ZM53.6192 149.474H112.412V129.354H53.6192V149.474Z" fill="#3F3D56"/>
<path d="M69.9578 103.233C57.3116 103.241 44.9136 100.812 34.1591 96.2216L33.886 96.1049L34.0549 95.9164L69.7785 56.0261H138.057V56.248C138.057 82.1559 107.508 103.233 69.9578 103.233Z" fill="#1FB9EE"/>
<path d="M69.9578 103.233C57.3116 103.24 44.9135 100.812 34.1591 96.2214L33.8859 96.1046L34.0548 95.9162L69.7785 56.0259H138.057V56.2477C138.057 82.1557 107.508 103.233 69.9578 103.233Z" fill="#1FB9EE"/>
<path d="M26.1512 86.2959L25.9317 86.2022C13.8787 81.0603 5.1896 72.8907 1.69564 63.4152C-1.79833 53.9397 0.175742 43.8984 7.20181 35.4075L7.32995 35.2532L55.0231 54.0566L26.1512 86.2959Z" fill="#F1F1F1"/>
<path d="M26.1512 86.2959L25.9317 86.2022C13.8786 81.0603 5.18954 72.8907 1.69558 63.4152C-1.79839 53.9397 0.175681 43.8984 7.20175 35.4075L7.32989 35.2532L55.0231 54.0566L26.1512 86.2959Z" fill="#F1F1F1"/>
<path d="M138.057 49.7326H69.5576L84.3243 3.57593L84.638 3.62348C99.7836 5.93314 113.333 11.7399 123.047 20.0838C132.76 28.4276 138.055 38.8087 138.057 49.5107V49.7326Z" fill="#1FB9EE"/>
<path d="M138.057 49.7326H69.5575L84.3243 3.57593L84.6379 3.62348C99.7836 5.93314 113.333 11.7399 123.047 20.0838C132.76 28.4276 138.055 38.8087 138.057 49.5107V49.7326Z" fill="#1FB9EE"/>
<path d="M58.6471 42.4631L12.2346 24.1646L12.3594 24.0143C17.9861 17.2326 26.6046 11.8678 36.959 8.70153C47.3134 5.53525 58.8627 4.73297 69.9241 6.4116L70.1691 6.44876L58.6471 42.4631Z" fill="#F1F1F1"/>
<path d="M58.647 42.4626L12.2346 24.1641L12.3593 24.0138C17.9861 17.2321 26.6045 11.8673 36.9589 8.70104C47.3133 5.53477 58.8626 4.73249 69.924 6.41111L70.1691 6.44828L58.647 42.4626Z" fill="#F1F1F1"/>
<path d="M232.352 0.324463H172.618V21.0935H232.352V0.324463Z" fill="white"/>
<path d="M232.352 0.324463H172.618V21.0935H232.352V0.324463Z" fill="white"/>
<path d="M225.294 5.64111H179.676V6.70806H225.294V5.64111Z" fill="#1FB9EE"/>
<path d="M225.294 5.64111H179.676V6.70806H225.294V5.64111Z" fill="#1FB9EE"/>
<path d="M225.294 10.1755H179.676V11.2425H225.294V10.1755Z" fill="#1FB9EE"/>
<path d="M225.294 10.1753H179.676V11.2422H225.294V10.1753Z" fill="#1FB9EE"/>
<path d="M225.294 14.7102H179.676V15.7772H225.294V14.7102Z" fill="#1FB9EE"/>
<path d="M225.294 14.7104H179.676V15.7774H225.294V14.7104Z" fill="#1FB9EE"/>
<path d="M232.822 21.4181H172.148V0H232.822V21.4181ZM173.089 20.769H231.882V0.649032H173.089V20.769Z" fill="#3F3D56"/>
<path d="M232.822 21.4181H172.148V0H232.822V21.4181ZM173.089 20.769H231.882V0.649032H173.089V20.769Z" fill="#3F3D56"/>
<path d="M83.6139 75.2776H82.6732V128.705H83.6139V75.2776Z" fill="#3F3D56"/>
<path d="M83.6139 75.2776H82.6732V128.705H83.6139V75.2776Z" fill="#3F3D56"/>
<path d="M172.386 10.7331L101.768 32.7708L102.156 33.3621L172.774 11.3244L172.386 10.7331Z" fill="#3F3D56"/>
<path d="M172.386 10.7333L101.768 32.771L102.156 33.3624L172.774 11.3247L172.386 10.7333Z" fill="#3F3D56"/>
<rect x="18.7516" y="159.84" width="330.497" height="47.52" fill="#E1F3FF"/>
<path d="M80.9786 185.144V186.808H95.2666V185.144H80.9786ZM82.6106 176.456V177.944H92.2106V176.456H82.6106ZM81.1866 179.848V181.352H93.8266V179.848H81.1866ZM87.1226 184.376V190.904H89.0746V184.376H87.1226ZM86.5306 185.864C85.2826 187.272 82.8506 188.52 80.5466 189.128C80.9626 189.528 81.5386 190.264 81.8266 190.728C84.1946 189.928 86.6266 188.376 88.0986 186.568L86.5306 185.864ZM89.6506 185.912L88.0826 186.648C89.5866 188.376 92.0666 189.896 94.4026 190.664C94.6906 190.184 95.2666 189.432 95.6986 189.048C93.3786 188.472 90.8986 187.256 89.6506 185.912ZM87.4746 180.712V182.856C87.4746 183.032 87.4106 183.096 87.1706 183.096C86.9466 183.112 86.0666 183.112 85.3786 183.064C85.6026 183.496 85.8426 184.104 85.9386 184.584C87.0746 184.584 87.9386 184.584 88.5786 184.36C89.2346 184.152 89.4266 183.768 89.4266 182.92V180.712H87.4746ZM93.1066 179.848V180.12C92.6266 181.144 91.7306 182.344 91.0266 183.08L92.7386 183.688C93.5866 182.824 94.5306 181.496 95.2666 180.232L93.7946 179.768L93.4426 179.848H93.1066ZM86.3226 180.152C85.1706 181.464 82.8986 182.68 80.8346 183.272C81.2186 183.64 81.7466 184.296 82.0186 184.728C84.1626 183.96 86.4666 182.472 87.8106 180.808L86.3226 180.152ZM84.5146 179.208C86.4186 179.544 88.7866 180.264 90.0826 180.872L91.1866 179.736C89.7786 179.16 87.4586 178.488 85.6026 178.168L84.5146 179.208ZM91.4106 176.456V176.792C90.7066 177.48 89.1066 178.376 87.6826 178.872C87.9546 179.128 88.4026 179.64 88.6266 179.976C90.4026 179.352 92.1786 178.344 93.4746 177.304L92.2746 176.36L91.8906 176.456H91.4106ZM105.347 178.792V180.504H110.067V178.792H105.347ZM105.155 175.88C104.867 178.44 104.211 180.872 103.075 182.36C103.491 182.6 104.291 183.176 104.627 183.48C105.827 181.752 106.611 179.032 107.011 176.152L105.155 175.88ZM107.459 179.608H106.499V182.872C106.515 184.424 105.779 187.608 102.755 189.32C103.091 189.72 103.635 190.52 103.843 190.936C106.067 189.656 107.203 187.192 107.443 185.88C107.683 187.16 108.707 189.704 110.723 190.936C110.995 190.472 111.523 189.672 111.875 189.256C109.059 187.528 108.387 184.392 108.387 182.872V179.608H107.459ZM109.683 178.792V179.064C109.507 180.44 109.203 182.2 108.963 183.272L110.499 183.64C110.835 182.472 111.235 180.632 111.523 179.032L110.227 178.728L109.939 178.792H109.683ZM96.8346 177.4V179.064H103.827V177.4H96.8346ZM96.6266 186.664V188.344H104.003V186.664H96.6266ZM99.4266 175.88V180.616H101.219V175.88H99.4266ZM99.6186 180.584V185.032H99.4266V190.904H101.203V185.032H101.011V180.584H99.6186ZM98.5626 183.48H102.083V184.456H98.5626V183.48ZM98.5626 181.272H102.083V182.232H98.5626V181.272ZM97.0906 179.928V185.8H103.619V179.928H97.0906ZM113.427 179L113.571 180.872C114.259 180.904 114.931 180.92 115.571 180.92C117.619 180.936 119.923 180.52 121.299 180.136L121.251 178.28C119.699 178.776 117.539 179.112 115.555 179.112C114.979 179.112 114.115 179.08 113.427 179ZM119.651 176.6L117.443 176.392C117.395 177.624 117.043 179.112 116.659 180.264C116.035 181.992 114.595 184.792 113.155 186.552L115.091 187.544C116.451 185.656 117.891 182.68 118.627 180.376C119.059 179.016 119.443 177.448 119.651 176.6ZM123.411 181.592H121.395C121.475 183.272 121.651 186.216 121.651 187.176C121.651 188.072 121.299 188.68 120.211 188.68C119.331 188.68 118.819 188.264 118.819 187.672C118.819 187.112 119.427 186.712 120.355 186.712C122.771 186.712 124.595 188.36 125.747 189.432L126.803 187.704C125.475 186.504 123.267 185.096 120.467 185.096C118.243 185.096 116.931 186.312 116.931 187.864C116.931 189.624 118.499 190.52 120.483 190.52C122.771 190.52 123.571 189.352 123.571 187.864C123.571 186.968 123.427 184.584 123.395 183.64C123.379 182.936 123.363 182.264 123.411 181.592ZM126.163 182.44L127.299 180.744C126.467 180.152 124.499 179.08 123.347 178.584L122.307 180.152C123.411 180.648 125.235 181.688 126.163 182.44ZM136.627 176.648H134.259C134.323 177.032 134.387 177.768 134.387 178.12C134.371 182.344 133.635 185.064 131.539 187.144C130.899 187.8 130.099 188.328 129.427 188.696L131.299 190.2C134.835 187.688 136.339 184.44 136.515 178.088C136.531 177.704 136.579 177.032 136.627 176.648ZM142.051 180.088L140.675 179.4C140.291 179.48 139.875 179.512 139.459 179.512H132.051C131.443 179.512 130.627 179.48 129.955 179.4V181.512C130.627 181.448 131.523 181.432 132.067 181.432H139.875C139.875 183.16 139.651 186.36 139.187 187.368C139.027 187.768 138.803 187.944 138.291 187.944C137.651 187.944 136.835 187.848 136.035 187.72L136.291 189.848C137.075 189.912 138.019 189.992 138.947 189.992C140.035 189.992 140.659 189.56 140.995 188.76C141.683 187.128 141.891 182.664 141.955 180.92C141.955 180.744 142.003 180.344 142.051 180.088ZM157.443 178.648L156.147 177.672C155.811 177.784 155.187 177.864 154.483 177.864C153.779 177.864 149.683 177.864 148.835 177.864C148.371 177.864 147.379 177.816 146.947 177.752V180.04C147.299 180.008 148.179 179.928 148.835 179.928C149.523 179.928 153.603 179.928 154.275 179.928C153.907 181.064 152.931 182.648 151.875 183.848C150.371 185.512 147.907 187.464 145.315 188.424L146.979 190.152C149.459 188.984 151.875 187 153.667 184.936C155.043 183.336 156.227 181.16 156.883 179.64C157.027 179.304 157.315 178.824 157.443 178.648ZM153.875 183.608L152.371 185.096C154.083 186.648 155.827 188.552 157.011 190.2L158.835 188.616C157.795 187.336 155.523 184.952 153.875 183.608ZM166.963 181.992L165.539 183.448C167.411 184.632 170.451 186.872 171.843 188.184L173.379 186.36C171.891 185.176 168.931 183.128 166.963 181.992ZM174.499 179.272L172.867 178.264C172.499 178.376 171.971 178.456 171.475 178.456H166.915L166.179 180.264H171.587C171.283 181.512 170.291 183.352 169.219 184.616C167.843 186.216 165.939 187.896 162.595 188.936L164.451 190.536C167.507 189.384 169.555 187.592 171.059 185.72C172.499 183.944 173.475 181.896 173.955 180.424C174.099 180.024 174.307 179.576 174.499 179.272ZM169.203 176.808L166.883 176.088C166.739 176.648 166.403 177.384 166.163 177.768C165.347 179.16 163.875 181.352 161.075 183.08L162.787 184.408C165.091 182.824 167.139 180.376 168.211 178.44C168.403 178.104 168.819 177.368 169.203 176.808ZM191.347 179.4L189.763 178.104C189.411 178.216 188.883 178.28 188.259 178.28C186.547 178.28 180.403 178.28 179.395 178.28C178.835 178.28 177.971 178.2 177.539 178.12V180.376C177.875 180.328 178.739 180.248 179.395 180.248C180.611 180.248 186.435 180.248 187.843 180.248C187.011 181.72 185.219 183.896 183.107 185.368L184.707 186.84C187.187 185.016 189.555 182.136 190.803 180.072C190.931 179.88 191.123 179.656 191.347 179.4ZM182.915 187.08C183.955 188.136 185.299 189.64 185.955 190.536L187.843 189.032C187.075 188.104 185.811 186.776 184.755 185.752C183.539 184.584 181.939 183.288 181.075 182.632L179.395 184.008C180.339 184.68 181.971 186.136 182.915 187.08ZM193.107 183.272L194.099 185.288C196.627 184.536 199.219 183.336 201.027 182.264C202.915 181.128 204.867 179.624 206.323 178.152L204.595 176.52C203.555 177.784 201.731 179.384 200.099 180.392C198.307 181.496 195.971 182.536 193.107 183.272ZM199.763 181.432V188.104C199.763 188.808 199.699 189.816 199.635 190.2H202.179C202.067 189.8 202.035 188.808 202.035 188.104V180.888L199.763 181.432ZM219.918 176.184L218.654 176.696C219.086 177.352 219.566 178.264 219.902 178.92L221.182 178.376C220.926 177.816 220.334 176.792 219.918 176.184ZM221.934 175.624L220.67 176.136C221.086 176.744 221.614 177.672 221.95 178.344L223.23 177.8C222.942 177.24 222.35 176.216 221.934 175.624ZM220.638 179.032L219.342 178.056C219.006 178.168 218.382 178.264 217.678 178.264C216.974 178.264 212.878 178.264 212.03 178.264C211.566 178.264 210.574 178.2 210.142 178.136V180.424C210.494 180.392 211.374 180.312 212.03 180.312C212.718 180.312 216.798 180.312 217.47 180.312C217.102 181.448 216.126 183.032 215.07 184.232C213.566 185.912 211.102 187.848 208.51 188.824L210.174 190.552C212.654 189.368 215.07 187.384 216.862 185.32C218.238 183.72 219.422 181.544 220.078 180.024C220.222 179.688 220.51 179.208 220.638 179.032ZM217.07 183.992L215.566 185.48C217.278 187.032 219.022 188.936 220.206 190.584L222.03 189C220.99 187.72 218.718 185.336 217.07 183.992ZM231.406 176.648L229.294 176.472C229.246 177.288 229.038 178.264 228.718 179.128C228.046 180.888 226.814 182.616 224.766 184.504L226.478 185.784C227.022 185.08 227.47 184.504 227.95 184.024C228.558 183.448 229.566 182.92 230.446 182.92C231.118 182.92 231.758 183.256 231.758 184.28C231.774 185.144 231.742 186.504 231.678 187.256H233.598C233.582 186.248 233.534 184.504 233.534 183.64C233.534 182.152 232.526 181.368 231.198 181.368C230.654 181.368 229.806 181.48 229.374 181.672C229.822 181.032 230.286 180.12 230.622 179.336C231.07 178.184 231.278 177.24 231.406 176.648ZM225.374 178.136V179.992C226.254 180.072 227.422 180.104 228.078 180.104C230.03 180.104 233.246 179.96 235.502 179.64L235.518 177.784C233.198 178.2 230.302 178.312 228.19 178.312C227.374 178.312 226.19 178.248 225.374 178.136ZM238.046 182.68L237.262 180.808C236.654 181.112 236.094 181.368 235.47 181.64C234.51 182.088 233.502 182.472 232.03 183.24C230.11 184.2 227.822 185.512 227.822 187.736C227.822 189.8 229.694 190.424 232.19 190.424C233.71 190.424 235.662 190.28 236.734 190.136L236.798 188.072C235.39 188.36 233.598 188.536 232.238 188.536C230.686 188.536 229.918 188.296 229.918 187.416C229.918 186.536 230.702 185.848 232.158 185.096C233.662 184.328 235.102 183.752 236.142 183.352C236.686 183.144 237.55 182.824 238.046 182.68ZM245.566 176.792L242.99 176.776C243.118 177.4 243.182 178.168 243.182 178.936C243.182 180.312 243.038 184.504 243.038 186.648C243.038 189.384 244.718 190.536 247.342 190.536C250.99 190.536 253.262 188.408 254.302 186.872L252.846 185.096C251.678 186.84 250.014 188.36 247.374 188.36C246.126 188.36 245.166 187.832 245.166 186.216C245.166 184.232 245.278 180.664 245.358 178.936C245.39 178.296 245.47 177.464 245.566 176.792ZM263.198 176.712L260.75 176.52C260.798 176.904 260.782 177.56 260.702 178.152C260.59 179.096 260.222 180.856 259.822 182.36C259.214 184.6 257.998 187.944 257.054 189.56L259.278 190.312C260.158 188.408 261.23 185.144 261.806 182.904C262.238 181.272 262.638 179.32 262.862 178.232C262.942 177.88 263.086 177.16 263.198 176.712ZM259.118 179.112C258.462 179.112 257.934 179.08 257.102 178.984L257.166 180.984C257.726 181.016 258.318 181.048 259.102 181.048C260.91 181.048 263.422 180.776 265.406 180.312V178.312C263.326 178.808 261.07 179.112 259.118 179.112ZM264.142 181.56V183.432C265.15 183.304 266.142 183.256 267.246 183.256C268.206 183.256 269.182 183.368 269.998 183.464L270.03 181.544C269.102 181.448 268.142 181.4 267.23 181.4C266.19 181.4 265.038 181.464 264.142 181.56ZM265.006 185.576L263.102 185.4C262.974 186.024 262.83 186.792 262.83 187.544C262.83 189.16 264.27 190.072 266.974 190.072C268.254 190.072 269.326 189.976 270.222 189.848L270.302 187.816C269.166 188.024 268.062 188.136 266.99 188.136C265.262 188.136 264.798 187.608 264.798 186.904C264.798 186.552 264.894 186.04 265.006 185.576ZM275.774 178.056L273.31 178.024C273.422 178.52 273.438 179.208 273.438 179.64C273.438 180.616 273.454 182.504 273.614 183.976C274.062 188.264 275.582 189.832 277.358 189.832C278.638 189.832 279.63 188.872 280.702 186.072L279.086 184.136C278.782 185.4 278.158 187.288 277.39 187.288C276.382 187.288 275.902 185.704 275.678 183.4C275.582 182.232 275.582 181.048 275.582 180.008C275.582 179.56 275.662 178.616 275.774 178.056ZM283.774 178.408L281.742 179.08C283.486 181.064 284.35 184.936 284.59 187.528L286.702 186.696C286.526 184.248 285.294 180.248 283.774 178.408Z" fill="#333333"/>
</g>
<defs>
<clipPath id="clip0_68_388">
<rect width="368" height="216" fill="white"/>
</clipPath>
</defs>
</svg>
