<svg width="368" height="216" viewBox="0 0 368 216" fill="none" xmlns="http://www.w3.org/2000/svg">
<g clip-path="url(#clip0_68_446)">
<rect width="368" height="216" fill="#F2F2F2"/>
<path d="M334.082 0.141113H0.142578V159.594H334.082V0.141113Z" fill="#E6E6E6"/>
<path d="M334.082 0.141113H0.142578V159.594H334.082V0.141113Z" fill="#E6E6E6"/>
<path d="M324.533 20.1404H9.69153V150.16H324.533V20.1404Z" fill="white"/>
<path d="M324.533 20.1401H9.69153V150.16H324.533V20.1401Z" fill="white"/>
<path d="M333.94 0H0V10.5772H333.94V0Z" fill="#1FB9EE"/>
<path d="M333.94 0H0V10.5772H333.94V0Z" fill="#1FB9EE"/>
<path d="M10.5426 7.36808C11.9948 7.36808 13.172 6.49038 13.172 5.40767C13.172 4.32497 11.9948 3.44727 10.5426 3.44727C9.09039 3.44727 7.91315 4.32497 7.91315 5.40767C7.91315 6.49038 9.09039 7.36808 10.5426 7.36808Z" fill="white"/>
<path d="M10.5426 7.36784C11.9948 7.36784 13.172 6.49013 13.172 5.40743C13.172 4.32473 11.9948 3.44702 10.5426 3.44702C9.09039 3.44702 7.91315 4.32473 7.91315 5.40743C7.91315 6.49013 9.09039 7.36784 10.5426 7.36784Z" fill="white"/>
<path d="M20.5234 7.36808C21.9756 7.36808 23.1528 6.49038 23.1528 5.40767C23.1528 4.32497 21.9756 3.44727 20.5234 3.44727C19.0712 3.44727 17.8939 4.32497 17.8939 5.40767C17.8939 6.49038 19.0712 7.36808 20.5234 7.36808Z" fill="white"/>
<path d="M20.5234 7.36784C21.9756 7.36784 23.1528 6.49013 23.1528 5.40743C23.1528 4.32473 21.9756 3.44702 20.5234 3.44702C19.0712 3.44702 17.8939 4.32473 17.8939 5.40743C17.8939 6.49013 19.0712 7.36784 20.5234 7.36784Z" fill="white"/>
<path d="M30.5041 7.36808C31.9563 7.36808 33.1335 6.49038 33.1335 5.40767C33.1335 4.32497 31.9563 3.44727 30.5041 3.44727C29.0519 3.44727 27.8746 4.32497 27.8746 5.40767C27.8746 6.49038 29.0519 7.36808 30.5041 7.36808Z" fill="white"/>
<path d="M30.504 7.36784C31.9562 7.36784 33.1335 6.49013 33.1335 5.40743C33.1335 4.32473 31.9562 3.44702 30.504 3.44702C29.0518 3.44702 27.8746 4.32473 27.8746 5.40743C27.8746 6.49013 29.0518 7.36784 30.504 7.36784Z" fill="white"/>
<path d="M119.199 33.6311H38.2992V136.67H119.199V33.6311Z" fill="#E6E6E6"/>
<path d="M119.199 33.6311H38.2992V136.67H119.199V33.6311Z" fill="#E6E6E6"/>
<path d="M200.58 33.6311H133.164V61.9937H200.58V33.6311Z" fill="#1FB9EE"/>
<path d="M200.58 33.6311H133.164V61.9937H200.58V33.6311Z" fill="#1FB9EE"/>
<path d="M200.58 69.8921H133.164V100.409H200.58V69.8921Z" fill="#E6E6E6"/>
<path d="M200.58 69.8918H133.164V100.409H200.58V69.8918Z" fill="#E6E6E6"/>
<path d="M200.58 108.307H133.164V136.67H200.58V108.307Z" fill="#E6E6E6"/>
<path d="M200.58 108.307H133.164V136.67H200.58V108.307Z" fill="#E6E6E6"/>
<path d="M295.926 33.6311H215.026V78.5348H295.926V33.6311Z" fill="#E6E6E6"/>
<path d="M295.926 33.6311H215.026V78.5348H295.926V33.6311Z" fill="#E6E6E6"/>
<path d="M295.926 91.7661H215.026V136.67H295.926V91.7661Z" fill="#E6E6E6"/>
<path d="M295.926 91.7661H215.026V136.67H295.926V91.7661Z" fill="#E6E6E6"/>
<path d="M264.76 81.7607V72.0936C264.76 68.658 266.591 65.3631 269.849 62.9338C273.108 60.5044 277.527 59.1396 282.135 59.1396C286.743 59.1396 291.163 60.5044 294.421 62.9338C297.679 65.3631 299.51 68.658 299.51 72.0936V81.7607C299.509 82.2221 299.263 82.6644 298.826 82.9906C298.388 83.3168 297.795 83.5003 297.176 83.5008H267.094C266.475 83.5003 265.882 83.3168 265.445 82.9906C265.007 82.6644 264.761 82.2221 264.76 81.7607Z" fill="#2F2E41"/>
<path d="M264.76 81.7605V72.0934C264.76 68.6578 266.591 65.3629 269.849 62.9335C273.108 60.5042 277.527 59.1394 282.135 59.1394C286.743 59.1394 291.163 60.5042 294.421 62.9335C297.679 65.3629 299.51 68.6578 299.51 72.0934V81.7605C299.509 82.2218 299.263 82.6641 298.826 82.9903C298.388 83.3166 297.795 83.5001 297.176 83.5006H267.094C266.475 83.5001 265.882 83.3166 265.445 82.9903C265.007 82.6641 264.761 82.2218 264.76 81.7605Z" fill="#2F2E41"/>
<path d="M307.827 207.567L301.698 208.832L292.24 191.811L301.285 189.945L307.827 207.567Z" fill="#FFB8B8"/>
<path d="M296.837 208.43L308.655 205.991L310.715 211.539L291.455 215.513C291.184 214.785 291.109 214.023 291.233 213.273C291.357 212.523 291.678 211.798 292.178 211.14C292.678 210.483 293.346 209.905 294.146 209.44C294.945 208.974 295.859 208.631 296.837 208.43Z" fill="#2F2E41"/>
<path d="M243.936 211.082H237.578L234.552 192.796H243.937L243.936 211.082Z" fill="#FFB8B8"/>
<path d="M233.036 209.727H245.298V215.484H225.314C225.314 214.728 225.514 213.979 225.902 213.281C226.29 212.582 226.859 211.948 227.576 211.413C228.293 210.879 229.144 210.455 230.081 210.165C231.018 209.876 232.022 209.727 233.036 209.727Z" fill="#2F2E41"/>
<path d="M236.269 108.89C236.723 109.347 237.305 109.724 237.976 109.994C238.646 110.265 239.388 110.423 240.149 110.457C240.91 110.49 241.672 110.399 242.381 110.19C243.09 109.981 243.728 109.658 244.252 109.245L261.155 114.913L259.617 107.824L243.802 103.528C242.812 102.919 241.557 102.601 240.274 102.635C238.991 102.67 237.77 103.054 236.841 103.714C235.913 104.375 235.341 105.267 235.236 106.221C235.131 107.175 235.498 108.124 236.269 108.89Z" fill="#FFB8B8"/>
<path d="M236.269 108.89C236.723 109.346 237.305 109.723 237.976 109.994C238.646 110.265 239.388 110.423 240.149 110.456C240.91 110.49 241.672 110.399 242.381 110.19C243.09 109.98 243.728 109.658 244.252 109.244L261.155 114.912L259.617 107.824L243.802 103.528C242.812 102.918 241.557 102.601 240.274 102.635C238.991 102.669 237.77 103.053 236.841 103.714C235.913 104.375 235.341 105.267 235.236 106.221C235.131 107.175 235.498 108.124 236.269 108.89Z" fill="#FFB8B8"/>
<path d="M271.389 151.517C266.078 151.517 260.581 150.927 255.96 149.173C253.506 148.26 251.333 146.98 249.574 145.412C247.815 143.844 246.509 142.022 245.738 140.061C243.33 134.377 246.366 128.793 249.301 123.393C251.121 120.046 252.839 116.886 253.285 113.771L253.44 112.665C254.135 107.697 254.735 103.406 258.055 101.797C259.776 100.963 262.09 100.915 265.13 101.651L293.679 108.565L292.629 148.97L292.456 149.013C292.306 149.051 282.242 151.517 271.389 151.517Z" fill="#2F2E41"/>
<path d="M271.389 151.517C266.078 151.517 260.581 150.927 255.96 149.173C253.506 148.26 251.333 146.98 249.574 145.412C247.815 143.844 246.509 142.022 245.738 140.061C243.33 134.377 246.366 128.793 249.301 123.393C251.121 120.046 252.839 116.886 253.285 113.77L253.44 112.664C254.135 107.696 254.735 103.406 258.055 101.796C259.776 100.962 262.09 100.915 265.13 101.651L293.679 108.565L292.629 148.97L292.456 149.013C292.306 149.051 282.242 151.517 271.389 151.517Z" fill="#2F2E41"/>
<path d="M264.631 89.0721C264.631 89.0721 278.634 85.9787 289.526 87.1387C289.526 87.1387 283.302 112.66 285.377 121.167C287.451 129.674 249.33 124.454 257.11 116.333L259.703 106.666C259.703 106.666 254.517 102.799 259.185 98.1592L264.631 89.0721Z" fill="#1FB9EE"/>
<path d="M264.631 89.0726C264.631 89.0726 278.634 85.9791 289.526 87.1392C289.526 87.1392 283.302 112.66 285.377 121.168C287.451 129.675 249.33 124.454 257.11 116.334L259.703 106.667C259.703 106.667 254.517 102.8 259.185 98.1597L264.631 89.0726Z" fill="#1FB9EE"/>
<path d="M257.743 150.751L240.484 148.339L246.51 113.766C246.915 112.801 256.249 90.8965 260.488 89.7113C263.566 88.9032 266.714 88.2512 269.91 87.7598L270.524 87.6682L267.063 91.5385L253.286 116.153L257.743 150.751Z" fill="#2F2E41"/>
<path d="M257.743 150.751L240.484 148.338L246.51 113.766C246.915 112.801 256.249 90.8963 260.488 89.7111C263.566 88.9029 266.714 88.2509 269.91 87.7595L270.524 87.668L267.063 91.5382L253.286 116.152L257.743 150.751Z" fill="#2F2E41"/>
<path d="M248.75 206.845L226.451 204.074L238.965 165.977L257.586 113.876L257.77 114.801C257.784 114.87 259.524 121.676 285.337 118.656L285.564 118.63L285.626 118.794L316.824 200.98L291.415 204.137L268.24 144.175L248.75 206.845Z" fill="#2F2E41"/>
<path d="M248.75 206.845L226.451 204.074L238.965 165.977L257.586 113.876L257.77 114.801C257.784 114.87 259.524 121.676 285.337 118.656L285.564 118.63L285.626 118.794L316.824 200.98L291.415 204.137L268.24 144.175L248.75 206.845Z" fill="#2F2E41"/>
<path d="M279.658 157.221L279.672 156.928C279.687 156.604 281.221 124.303 280.709 111.312C280.195 98.2775 285.855 86.9894 285.912 86.8769L285.958 86.7863L286.083 86.7595C293.407 85.1997 299.76 89.855 299.823 89.9022L299.912 89.9687L297.827 102.797L306.756 149.448L279.658 157.221Z" fill="#2F2E41"/>
<path d="M279.658 157.221L279.672 156.928C279.687 156.604 281.221 124.303 280.709 111.312C280.195 98.2775 285.855 86.9894 285.912 86.8769L285.958 86.7863L286.083 86.7595C293.407 85.1997 299.76 89.855 299.823 89.9022L299.912 89.9687L297.827 102.797L306.756 149.448L279.658 157.221Z" fill="#2F2E41"/>
<path d="M278.565 83.2758C285.6 83.2758 291.303 79.0237 291.303 73.7784C291.303 68.5331 285.6 64.281 278.565 64.281C271.529 64.281 265.826 68.5331 265.826 73.7784C265.826 79.0237 271.529 83.2758 278.565 83.2758Z" fill="#FFB8B8"/>
<path d="M278.565 83.276C285.6 83.276 291.303 79.0239 291.303 73.7786C291.303 68.5334 285.6 64.2812 278.565 64.2812C271.529 64.2812 265.826 68.5334 265.826 73.7786C265.826 79.0239 271.529 83.276 278.565 83.276Z" fill="#FFB8B8"/>
<path d="M260.65 72.867C260.654 70.1503 262.103 67.5456 264.68 65.6246C267.257 63.7035 270.75 62.6229 274.394 62.6199H276.987C280.631 62.6229 284.125 63.7035 286.702 65.6246C289.278 67.5456 290.728 70.1503 290.732 72.867V73.0604H285.251L283.382 69.158L283.008 73.0604H280.176L279.233 71.0915L279.044 73.0604H260.65V72.867Z" fill="#2F2E41"/>
<path d="M260.65 72.8668C260.654 70.15 262.103 67.5454 264.68 65.6243C267.257 63.7033 270.75 62.6227 274.394 62.6196H276.987C280.631 62.6227 284.125 63.7033 286.702 65.6243C289.278 67.5454 290.728 70.15 290.732 72.8668V73.0601H285.251L283.382 69.1578L283.008 73.0601H280.176L279.233 71.0912L279.044 73.0601H260.65V72.8668Z" fill="#2F2E41"/>
<path d="M277.311 84.5879C277.054 84.3282 276.9 84.0195 276.868 83.6975C276.836 83.3755 276.926 83.0532 277.129 82.7678C279.877 78.8707 283.724 71.6698 278.617 67.229L278.25 66.9099H293.077V83.5064L279.608 85.2782C279.471 85.2962 279.333 85.3053 279.195 85.3054C278.827 85.3054 278.465 85.2403 278.137 85.1156C277.81 84.9909 277.527 84.81 277.311 84.5879Z" fill="#2F2E41"/>
<path d="M277.311 84.5882C277.054 84.3284 276.9 84.0197 276.868 83.6977C276.836 83.3757 276.926 83.0535 277.129 82.768C279.877 78.871 283.724 71.6701 278.617 67.2292L278.25 66.9102H293.077V83.5067L279.608 85.2784C279.471 85.2964 279.333 85.3055 279.195 85.3056C278.827 85.3056 278.465 85.2406 278.137 85.1159C277.81 84.9911 277.527 84.8103 277.311 84.5882Z" fill="#2F2E41"/>
<path d="M217.616 16.0652C207.241 9.53813 194.545 5.40002 181.073 4.15447C167.6 2.90892 153.933 4.60963 141.734 9.04964C129.535 13.4897 119.33 20.4775 112.36 29.163C105.39 37.8484 101.957 47.8569 102.478 57.9706C102.999 68.0843 107.451 77.8671 115.293 86.1286C123.135 94.3901 134.029 100.774 146.649 104.504C159.269 108.233 173.071 109.148 186.375 107.136C199.679 105.124 211.913 100.272 221.586 93.1714L307.484 147.21C308.791 148.034 310.483 148.437 312.189 148.33C313.894 148.224 315.473 147.616 316.578 146.642C317.683 145.667 318.224 144.406 318.081 143.134C317.938 141.863 317.124 140.685 315.817 139.862L315.807 139.856L229.909 85.8172C239.888 75.1397 244.159 62.0688 241.884 49.1659C239.61 36.263 230.955 24.4584 217.616 16.0652ZM212.078 80.6137C205.386 86.5265 196.493 90.827 186.523 92.9715C176.553 95.1159 165.954 95.008 156.066 92.6613C146.178 90.3147 137.446 85.8347 130.973 79.7878C124.5 73.741 120.578 66.399 119.702 58.6901C118.826 50.9813 121.036 43.2519 126.052 36.4794C131.068 29.7069 138.665 24.1955 147.882 20.6421C157.1 17.0887 167.523 15.6529 177.835 16.5162C188.147 17.3796 197.884 20.5034 205.815 25.4926C211.08 28.8052 215.419 32.8587 218.584 37.4217C221.749 41.9846 223.677 46.9675 224.258 52.086C224.84 57.2044 224.064 62.3582 221.974 67.253C219.884 72.1478 216.521 76.6878 212.078 80.6137Z" fill="#3F3D56"/>
<path d="M217.616 16.065C207.241 9.53789 194.545 5.39978 181.073 4.15423C167.601 2.90867 153.933 4.60938 141.734 9.0494C129.535 13.4894 119.33 20.4773 112.36 29.1627C105.391 37.8482 101.957 47.8567 102.478 57.9704C102.999 68.084 107.451 77.8668 115.293 86.1283C123.135 94.3898 134.029 100.774 146.649 104.503C159.269 108.233 173.071 109.148 186.375 107.136C199.68 105.124 211.913 100.272 221.586 93.1711L307.484 147.21C308.791 148.033 310.483 148.436 312.189 148.33C313.894 148.223 315.473 147.616 316.578 146.642C317.683 145.667 318.224 144.405 318.081 143.134C317.938 141.862 317.124 140.685 315.817 139.861L315.807 139.855L229.909 85.817C239.888 75.1395 244.159 62.0685 241.885 49.1656C239.61 36.2628 230.955 24.4581 217.616 16.065ZM212.078 80.6135C205.386 86.5262 196.493 90.8268 186.523 92.9712C176.553 95.1157 165.954 95.0078 156.066 92.6611C146.178 90.3144 137.446 85.8344 130.973 79.7876C124.5 73.7408 120.578 66.3987 119.702 58.6899C118.826 50.981 121.036 43.2517 126.052 36.4792C131.068 29.7067 138.665 24.1952 147.882 20.6418C157.1 17.0884 167.523 15.6526 177.835 16.516C188.147 17.3794 197.884 20.5031 205.815 25.4923C211.08 28.805 215.42 32.8585 218.584 37.4214C221.749 41.9843 223.677 46.9673 224.258 52.0857C224.84 57.2042 224.064 62.358 221.974 67.2528C219.884 72.1476 216.521 76.6875 212.078 80.6135Z" fill="#3F3D56"/>
<path opacity="0.3" d="M138.146 85.2837C128.081 78.9512 121.578 70.0283 119.929 60.2867C118.279 50.5451 121.604 40.6973 129.243 32.6987C128.239 33.4519 127.27 34.2408 126.333 35.0652C121.89 38.9911 118.528 43.5311 116.438 48.4259C114.348 53.3207 113.571 58.4745 114.153 63.593C114.735 68.7114 116.663 73.6944 119.827 78.2573C122.992 82.8202 127.331 86.8737 132.597 90.1864C137.863 93.4991 143.952 96.0061 150.517 97.5642C157.082 99.1223 163.995 99.7011 170.86 99.2675C177.726 98.8338 184.409 97.3963 190.529 95.0369C196.649 92.6775 202.086 89.4425 206.529 85.5166C207.464 84.6911 208.344 83.8457 209.169 82.9803C199.879 89.9398 187.418 94.04 174.26 94.4667C161.103 94.8934 148.211 91.6155 138.146 85.2837Z" fill="black"/>
<path opacity="0.3" d="M138.146 85.2839C128.081 78.9515 121.578 70.0285 119.928 60.2869C118.279 50.5453 121.604 40.6975 129.243 32.699C128.239 33.4522 127.27 34.241 126.333 35.0654C121.89 38.9914 118.527 43.5314 116.438 48.4262C114.348 53.321 113.571 58.4747 114.153 63.5932C114.735 68.7117 116.663 73.6946 119.827 78.2575C122.992 82.8204 127.331 86.874 132.597 90.1867C137.863 93.4993 143.952 96.0063 150.517 97.5644C157.082 99.1226 163.995 99.7013 170.86 99.2677C177.726 98.8341 184.409 97.3965 190.529 95.0372C196.649 92.6778 202.086 89.4428 206.529 85.5168C207.464 84.6913 208.343 83.8459 209.169 82.9806C199.879 89.9401 187.418 94.0402 174.26 94.467C161.103 94.8937 148.211 91.6157 138.146 85.2839Z" fill="black"/>
<path d="M282.655 125.493C283.396 125.628 284.167 125.64 284.915 125.529C285.662 125.418 286.368 125.186 286.982 124.849C287.597 124.512 288.105 124.079 288.47 123.58C288.836 123.082 289.05 122.529 289.099 121.962L306.957 118.266L299.698 113.547L283.852 117.78C282.568 117.783 281.33 118.137 280.373 118.774C279.416 119.412 278.806 120.29 278.658 121.24C278.511 122.191 278.836 123.149 279.573 123.933C280.309 124.717 281.406 125.272 282.655 125.493Z" fill="#FFB8B8"/>
<path d="M282.655 125.493C283.396 125.628 284.167 125.641 284.915 125.529C285.662 125.418 286.368 125.186 286.982 124.849C287.597 124.513 288.105 124.08 288.47 123.581C288.836 123.082 289.05 122.529 289.099 121.962L306.957 118.266L299.698 113.547L283.852 117.78C282.568 117.783 281.33 118.137 280.373 118.775C279.416 119.412 278.806 120.29 278.658 121.241C278.511 122.191 278.836 123.149 279.573 123.933C280.309 124.717 281.406 125.272 282.655 125.493Z" fill="#FFB8B8"/>
<path d="M290.078 123.537L288.991 115.84L303.908 109.703L294.182 100.926L295.769 91.0652L299.721 89.8025L299.844 89.9203C301.708 91.7068 318.052 107.43 318.052 109.373C318.052 111.37 314.925 117.232 310.647 118.827C306.521 120.365 291.026 123.355 290.369 123.481L290.078 123.537Z" fill="#2F2E41"/>
<path d="M290.078 123.537L288.991 115.839L303.908 109.703L294.182 100.925L295.769 91.065L299.721 89.8022L299.844 89.9201C301.708 91.7066 318.052 107.429 318.052 109.373C318.052 111.369 314.925 117.232 310.647 118.826C306.521 120.365 291.026 123.354 290.369 123.481L290.078 123.537Z" fill="#2F2E41"/>
<path d="M367.481 216H169.875C169.738 216 169.606 215.959 169.508 215.887C169.411 215.814 169.357 215.716 169.357 215.613C169.357 215.511 169.411 215.412 169.508 215.34C169.606 215.267 169.738 215.227 169.875 215.227H367.481C367.619 215.227 367.751 215.267 367.848 215.34C367.945 215.412 368 215.511 368 215.613C368 215.716 367.945 215.814 367.848 215.887C367.751 215.959 367.619 216 367.481 216Z" fill="#CCCCCC"/>
<rect x="18.7516" y="159.84" width="330.497" height="47.52" fill="#E1F3FF"/>
<path d="M72.4664 176.112V177.84H86.5304V176.112H72.4664ZM78.4184 174.896V177.136H80.4024V174.896H78.4184ZM72.9944 179.104V189.888H74.8184V180.752H85.2984V179.104H72.9944ZM84.3064 179.104V187.824C84.3064 188.048 84.2264 188.128 83.9544 188.128C83.6824 188.144 82.7544 188.144 81.9224 188.096C82.1784 188.576 82.4664 189.424 82.5464 189.936C83.8104 189.936 84.7064 189.888 85.3464 189.6C85.9704 189.312 86.1624 188.768 86.1624 187.84V179.104H84.3064ZM77.0264 180.544C76.9464 181.824 76.6104 182.448 74.6264 182.8C74.9624 183.104 75.3624 183.728 75.5064 184.128C78.0504 183.552 78.5944 182.464 78.7224 180.544H77.0264ZM79.9864 180.544V181.792C79.9864 183.104 80.2904 183.52 81.7144 183.52C81.9864 183.52 82.7224 183.52 83.0104 183.52C84.0024 183.52 84.4184 183.152 84.5784 181.792C84.1464 181.696 83.4744 181.472 83.1704 181.248C83.1224 182.032 83.0584 182.144 82.8024 182.144C82.6424 182.144 82.1144 182.144 81.9704 182.144C81.6824 182.144 81.6504 182.112 81.6504 181.76V180.544H79.9864ZM76.3864 184.128V189.168H78.0824V184.128H76.3864ZM77.4424 184.128V185.536H80.9784V186.896H77.4424V188.304H82.7064V184.128H77.4424ZM75.3304 177.808C75.5864 178.352 75.8744 179.088 75.9704 179.552L77.9544 179.152C77.8264 178.688 77.5224 178 77.2344 177.488L75.3304 177.808ZM81.5864 177.472C81.4104 177.968 81.0744 178.688 80.8024 179.184L82.7064 179.504C82.9944 179.072 83.3304 178.496 83.7144 177.792L81.5864 177.472ZM92.6584 177.36H98.2904V179.52H92.6584V177.36ZM90.8024 175.536V181.344H100.258V175.536H90.8024ZM88.6104 182.688V189.92H90.4184V184.512H92.8024V189.824H94.7224V182.688H88.6104ZM96.0824 182.688V189.92H97.9224V184.512H100.482V189.84H102.418V182.688H96.0824ZM89.4104 187.28V189.12H93.6024V187.28H89.4104ZM96.9624 187.28V189.12H101.442V187.28H96.9624ZM112.946 177.52L110.754 177.456C110.594 179.136 110.242 180.976 109.778 182.48C109.106 184.64 108.498 185.664 107.81 185.664C107.202 185.664 106.562 184.88 106.562 183.264C106.562 181.248 108.418 178.48 111.81 178.48C114.578 178.48 116.146 180.272 116.146 182.784C116.146 185.136 114.546 186.592 112.514 187.088C112.082 187.184 111.634 187.264 111.01 187.344L112.226 189.232C116.258 188.608 118.322 186.224 118.322 182.864C118.322 179.36 115.81 176.608 111.858 176.608C107.714 176.608 104.498 179.776 104.498 183.456C104.498 186.16 105.97 188.128 107.762 188.128C109.506 188.128 110.882 186.144 111.842 182.912C112.402 181.024 112.722 179.152 112.946 177.52ZM128.978 175.2V188.672H130.946V175.2H128.978ZM124.706 179.744V181.6H135.01V179.744H124.706ZM125.138 187.456V189.312H134.738V187.456H125.138ZM122.146 179.6V189.888H124.05V177.744L124.018 177.712L122.146 179.6ZM123.842 174.912C122.93 177.28 121.378 179.632 119.762 181.12C120.114 181.584 120.674 182.624 120.866 183.072C122.738 181.248 124.562 178.32 125.698 175.504L123.842 174.912ZM139.154 175.792V177.744H143.682V175.792H139.154ZM142.738 175.792C142.738 179.056 143.442 186.208 149.538 189.872C149.874 189.392 150.642 188.544 151.09 188.192C145.154 184.72 144.722 178.832 144.722 175.792H142.738ZM142.05 179.296C141.186 183.536 139.266 186.64 135.922 188.336C136.418 188.688 137.314 189.488 137.666 189.904C141.01 187.888 143.138 184.448 144.258 179.696L142.05 179.296ZM167.09 187.648L166.818 185.408C166.098 186.128 165.346 186.544 164.754 186.544C164.354 186.544 164.13 186.256 164.13 185.84C164.13 184.176 164.658 181.824 164.658 180.176C164.658 178.832 163.874 177.808 162.146 177.808C160.034 177.808 157.362 180.208 156.386 181.232L156.402 183.696C157.682 182.064 160.066 179.712 161.554 179.712C162.242 179.712 162.642 180.096 162.642 180.88C162.642 182.352 162.066 184.688 162.066 186.432C162.066 187.984 162.866 188.848 164.066 188.848C165.378 188.848 166.338 188.336 167.09 187.648ZM156.034 180.032L155.906 180.32L155.874 180.736C155.074 182 153.154 184.528 152.146 185.776L153.394 187.536C154.242 186.368 155.666 184.224 156.37 183.2L157.298 180.192C157.57 179.776 158.066 178.992 158.338 178.624L157.698 177.792C156.978 178.032 154.93 178.336 153.922 178.384C153.346 178.416 152.978 178.416 152.53 178.4L152.738 180.464C153.794 180.304 155.314 180.112 156.034 180.032ZM155.842 176.944C155.842 177.584 155.49 182.064 155.442 183.488C155.394 185.488 155.378 186.56 155.362 188.112C155.362 188.368 155.346 188.928 155.314 189.296H157.506C157.474 188.944 157.41 188.352 157.394 188.064C157.298 186.576 157.298 185.216 157.298 183.92C157.298 181.056 157.826 176.864 158.098 175.584L155.762 175.52C155.858 176.016 155.842 176.496 155.842 176.944ZM175.906 178.304L177.41 177.216C176.85 176.624 175.65 175.6 175.09 175.152L173.618 176.176C174.242 176.656 175.346 177.728 175.906 178.304ZM171.554 176.592L169.474 177.408C169.794 177.808 170.178 178.416 170.418 178.8C171.074 179.952 171.666 181.408 172.306 182.896C173.122 184.816 173.954 187.52 174.45 189.536L176.658 188.976C176.13 187.168 174.882 183.76 174.13 182.016C173.554 180.672 172.834 179.088 172.178 177.856C172.002 177.552 171.682 176.896 171.554 176.592ZM168.098 181.28L169.026 183.328C171.01 182.432 175.81 179.568 178.402 179.568C179.602 179.568 180.306 180.24 180.306 181.04C180.306 182.192 179.426 182.848 178.226 182.848C177.538 182.848 176.738 182.624 176.018 182.32L175.954 184.32C176.562 184.544 177.554 184.768 178.434 184.768C180.882 184.768 182.418 183.36 182.418 181.12C182.418 179.264 180.914 177.76 178.45 177.76C175.874 177.76 172.594 179.632 169.682 180.768C169.41 180.88 168.722 181.136 168.098 181.28ZM188.21 188.096V189.504H196.018V188.096H188.21ZM190.498 178.256V180.176H192.354V178.256H190.498ZM184.594 179.36V182.544H186.402V180.8H196.642V182.544H198.514V179.36H184.594ZM188.146 181.472V182.848H194.066V183.68H188.146V185.056H195.986V181.472H188.146ZM188.226 185.776V187.184H195.282V189.936H197.202V185.776H188.226ZM187.09 181.472V189.952H188.914V181.472H187.09ZM186.21 176.016V177.52H191.25V176.016H186.21ZM192.69 176.016V177.52H198.898V176.016H192.69ZM186.274 174.768C185.778 175.984 184.866 177.232 183.906 178.032C184.338 178.256 185.106 178.768 185.474 179.056C186.418 178.144 187.442 176.688 188.066 175.248L186.274 174.768ZM192.786 174.768C192.322 175.936 191.426 177.104 190.402 177.84C190.882 178.048 191.698 178.464 192.082 178.752C193.042 177.92 194.034 176.592 194.61 175.216L192.786 174.768ZM186.802 177.184C187.186 177.76 187.602 178.576 187.746 179.072L189.474 178.576C189.282 178.064 188.834 177.296 188.434 176.752L186.802 177.184ZM193.954 177.232C194.402 177.792 194.93 178.608 195.138 179.088L196.914 178.592C196.658 178.08 196.098 177.312 195.634 176.784L193.954 177.232ZM207.698 180.048H212.546V181.424H207.698V180.048ZM207.698 177.2H212.546V178.544H207.698V177.2ZM205.97 175.568V183.04H214.37V175.568H205.97ZM205.858 184.416V186.144H214.546V184.416H205.858ZM204.738 187.68V189.408H215.074V187.68H204.738ZM200.05 175.808V177.6H205.362V175.808H200.05ZM200.21 180.416V182.192H205.09V180.416H200.21ZM199.874 186.496L200.306 188.448C201.842 187.952 203.762 187.328 205.554 186.72L205.218 184.88C203.298 185.504 201.25 186.144 199.874 186.496ZM201.826 176.512V186.64L203.65 186.352V176.512H201.826ZM209.346 176.256V182.288H209.17V188.496H211.138V182.288H210.962V176.256H209.346ZM222.754 175.968L220.386 175.712C220.402 176.912 220.226 178.272 219.922 179.712C219.474 181.728 218.274 185.952 216.37 188.512L218.466 189.344C220.146 186.64 221.426 182.08 221.954 179.824C222.13 179.008 222.322 178.016 222.482 177.296C222.562 176.896 222.658 176.384 222.754 175.968ZM228.274 177.568L226.354 178.384C227.506 179.808 228.642 182.624 229.058 184.4L231.09 183.456C230.594 181.936 229.25 178.96 228.274 177.568ZM216.274 179.248L216.466 181.408C216.946 181.328 217.778 181.216 218.242 181.152C219.122 181.04 221.89 180.688 222.834 180.688C223.842 180.688 224.386 180.88 224.386 182.16C224.386 183.728 224.178 185.68 223.73 186.576C223.49 187.104 223.074 187.264 222.53 187.264C222.114 187.264 221.202 187.104 220.578 186.928L220.93 189.04C221.474 189.168 222.226 189.264 222.85 189.264C224.05 189.264 224.946 188.912 225.474 187.792C226.146 186.416 226.386 183.824 226.386 181.936C226.386 179.616 225.186 178.864 223.49 178.864C222.306 178.864 219.266 179.216 217.986 179.248C217.394 179.264 216.85 179.28 216.274 179.248ZM227.986 175.36L226.706 175.872C227.138 176.496 227.634 177.44 227.97 178.096L229.25 177.552C228.946 176.96 228.386 175.936 227.986 175.36ZM229.874 174.624L228.61 175.152C229.042 175.76 229.57 176.688 229.89 177.36L231.17 176.816C230.882 176.256 230.29 175.232 229.874 174.624ZM237.25 181.952V183.456H241.362V181.952H237.25ZM237.25 184.64V186.144H241.378V184.64H237.25ZM234.146 187.344V189.104H244.946V187.344H234.146ZM232.946 179.072V189.92H234.786V180.832H244.066V189.92H246.018V179.072H232.946ZM236.434 180.24V188.128H238.146V180.24H236.434ZM240.61 180.24V188.112H242.338V180.24H240.61ZM238.242 176.64C238.178 177.648 237.922 178.992 237.698 179.92L239.458 180.384C239.778 179.552 240.13 178.304 240.514 177.12L238.242 176.64ZM232.274 175.808V177.632H246.738V175.808H232.274ZM254.146 181.792V188.096H255.922V181.792H254.146ZM258.194 176.944V186.08H259.826V176.944H258.194ZM252.338 175.712V177.28H257.89V175.712H252.338ZM252.226 183.392V185.04H257.762V183.392H252.226ZM251.89 180L252.066 181.68C253.538 181.536 255.426 181.376 257.25 181.184L257.218 179.648C255.25 179.792 253.266 179.936 251.89 180ZM251.762 187.648L252.05 189.376C253.778 189.104 256.034 188.736 258.178 188.352L258.082 186.752C255.794 187.104 253.378 187.456 251.762 187.648ZM255.522 178.432C256.082 179.6 256.594 181.136 256.738 182.08L258.21 181.552C258.05 180.608 257.49 179.12 256.898 177.984L255.522 178.432ZM253.73 176.304C253.538 177.552 253.106 179.264 252.69 180.384L254.098 180.784C254.578 179.76 255.186 178.112 255.666 176.704L253.73 176.304ZM260.818 175.152V187.84C260.818 188.064 260.738 188.128 260.53 188.128C260.306 188.128 259.634 188.128 258.962 188.096C259.186 188.624 259.426 189.44 259.49 189.936C260.562 189.936 261.346 189.872 261.842 189.552C262.37 189.264 262.53 188.768 262.53 187.824V175.152H260.818ZM250.834 174.928C250.146 177.264 248.962 179.6 247.666 181.104C247.97 181.616 248.434 182.72 248.594 183.184C250.226 181.264 251.698 178.24 252.61 175.44L250.834 174.928ZM249.57 179.312V189.904H251.33V177.632L251.282 177.6L249.57 179.312Z" fill="#333333"/>
</g>
<defs>
<clipPath id="clip0_68_446">
<rect width="368" height="216" fill="white"/>
</clipPath>
</defs>
</svg>
