<svg width="368" height="216" viewBox="0 0 368 216" fill="none" xmlns="http://www.w3.org/2000/svg">
<g clip-path="url(#clip0_68_506)">
<rect width="368" height="216" fill="#F2F2F2"/>
<path d="M324.981 210.57L318.824 210.57L315.895 190.654L324.981 190.654L324.981 210.57Z" fill="#FFB8B8"/>
<path d="M326.551 215.575L306.699 215.574V215.364C306.699 213.645 307.514 211.997 308.963 210.782C310.412 209.567 312.377 208.884 314.426 208.884H314.426L326.551 208.884L326.551 215.575Z" fill="#2F2E41"/>
<path d="M352.153 197.876L348.157 201.804L328.191 190.745L334.089 184.948L352.153 197.876Z" fill="#FFB8B8"/>
<path d="M357.712 200.123L344.826 212.788L344.635 212.651C343.076 211.535 342.11 209.946 341.948 208.233C341.786 206.52 342.443 204.823 343.773 203.515L343.773 203.515L351.643 195.78L357.712 200.123Z" fill="#2F2E41"/>
<path d="M281.266 112.627L279.35 127.45L356.821 126.523L323.035 80.3542L295.45 79.5232L281.266 112.627Z" fill="#2F2E41"/>
<path d="M281.266 112.627L279.35 127.45L356.821 126.523L323.035 80.3542L295.45 79.5232L281.266 112.627Z" fill="#2F2E41"/>
<path opacity="0.28" d="M281.266 112.627L279.35 127.45L356.821 126.523L323.035 80.3542L295.45 79.5232L281.266 112.627Z" fill="black"/>
<path opacity="0.28" d="M281.266 112.627L279.35 127.45L356.821 126.523L323.035 80.3542L295.45 79.5232L281.266 112.627Z" fill="black"/>
<path d="M296.5 115.172L293.765 128.735V140.858L315.816 146.895C315.816 146.895 313.235 193.983 316.676 196.983L316.592 204.223L326.212 204.589L326.29 199.494L330.369 161.408L332.771 133.445L328.876 112.244L296.5 115.172Z" fill="#2F2E41"/>
<path d="M296.5 115.172L293.765 128.735V140.858L315.816 146.895C315.816 146.895 313.235 193.984 316.676 196.983L316.592 204.223L326.212 204.59L326.29 199.494L330.369 161.408L332.771 133.445L328.876 112.245L296.5 115.172Z" fill="#2F2E41"/>
<path d="M313.584 126.847L293.765 140.858C293.765 140.858 292.605 166.137 295.551 169.101C298.081 171.647 330.986 193.61 330.986 193.61C330.986 193.61 336.834 198.109 340.111 198.181C343.389 198.252 347.201 192.487 347.201 192.487L339.61 187.651C339.61 187.651 319.947 172.257 314.108 166.137C311.752 163.666 311.752 163.419 311.752 163.419L312.557 153.146L320.657 134.079L313.584 126.847Z" fill="#2F2E41"/>
<path d="M313.584 126.847L293.765 140.858C293.765 140.858 292.605 166.137 295.551 169.101C298.081 171.648 330.986 193.61 330.986 193.61C330.986 193.61 336.834 198.109 340.111 198.181C343.389 198.253 347.201 192.488 347.201 192.488L339.61 187.651C339.61 187.651 319.947 172.258 314.108 166.137C311.752 163.666 311.752 163.419 311.752 163.419L312.557 153.146L320.657 134.08L313.584 126.847Z" fill="#2F2E41"/>
<path d="M292.542 59.7338L283.997 59.0715L276.246 60.1548L259.834 60.1592L258.436 70.1356L273.413 72.9465L277.063 71.4462L292.278 76.3079L292.542 59.7338Z" fill="#2F2E41"/>
<path d="M292.542 59.7333L283.997 59.071L276.246 60.1543L259.834 60.1587L258.436 70.1351L273.413 72.946L277.063 71.4458L292.278 76.3074L292.542 59.7333Z" fill="#2F2E41"/>
<path d="M302.749 59.7026C302.749 59.7026 320.884 58.2775 325.008 60.9949C329.131 63.7124 337.968 117.568 337.968 117.568L302.749 119.235L296.435 115.592L298.227 88.7048L302.749 59.7026Z" fill="#CCCCCC"/>
<path d="M302.749 59.7023C302.749 59.7023 320.884 58.2772 325.008 60.9947C329.131 63.7122 337.968 117.568 337.968 117.568L302.749 119.235L296.435 115.591L298.227 88.7046L302.749 59.7023Z" fill="#CCCCCC"/>
<path d="M308.284 59.3669L288.28 59.7351L269.629 130.414L284.357 133.132L308.284 59.3669Z" fill="#2F2E41"/>
<path d="M308.284 59.3669L288.28 59.7351L269.629 130.414L284.357 133.132L308.284 59.3669Z" fill="#2F2E41"/>
<path d="M322.505 58.7695L338.263 62.9058L337.368 91.9455L356.821 126.665L333.952 128.685L315.876 91.1948L322.505 58.7695Z" fill="#2F2E41"/>
<path d="M322.505 58.7695L338.263 62.9058L337.368 91.9455L356.821 126.665L333.952 128.685L315.876 91.1948L322.505 58.7695Z" fill="#2F2E41"/>
<path d="M348.489 130.191C349.042 129.784 349.481 129.279 349.776 128.713C350.071 128.148 350.214 127.535 350.196 126.918C350.178 126.301 349.998 125.695 349.67 125.142C349.343 124.589 348.874 124.104 348.299 123.719L351.469 114.444L345.218 111.454L340.961 124.605C340.255 125.459 339.947 126.5 340.095 127.532C340.244 128.564 340.838 129.514 341.766 130.203C342.694 130.891 343.891 131.27 345.13 131.268C346.369 131.266 347.565 130.883 348.489 130.191Z" fill="#FFB8B8"/>
<path d="M348.489 130.191C349.042 129.784 349.481 129.279 349.776 128.713C350.071 128.148 350.214 127.535 350.196 126.918C350.178 126.301 349.998 125.695 349.67 125.142C349.343 124.589 348.874 124.104 348.299 123.719L351.469 114.444L345.218 111.454L340.961 124.605C340.255 125.459 339.947 126.5 340.095 127.532C340.244 128.564 340.838 129.514 341.766 130.203C342.694 130.891 343.891 131.27 345.13 131.268C346.369 131.266 347.565 130.883 348.489 130.191Z" fill="#FFB8B8"/>
<path d="M329.131 63.7125L338.455 63.0342C338.455 63.0342 346.826 70.3766 348.73 76.0616C350.635 81.7467 352.697 99.5338 352.697 99.5338L351.837 125.555L340.938 119.348L340.207 96.9661L329.131 63.7125Z" fill="#2F2E41"/>
<path d="M329.131 63.7125L338.455 63.0342C338.455 63.0342 346.826 70.3766 348.73 76.0616C350.635 81.7467 352.697 99.5338 352.697 99.5338L351.837 125.555L340.938 119.348L340.207 96.9661L329.131 63.7125Z" fill="#2F2E41"/>
<path d="M326.882 50.6335C330.383 45.2618 328.029 38.5266 321.624 35.5902C315.219 32.6537 307.189 34.6279 303.687 39.9997C300.186 45.3714 302.54 52.1065 308.945 55.043C315.35 57.9795 323.381 56.0053 326.882 50.6335Z" fill="#FFB8B8"/>
<path d="M326.882 50.6335C330.383 45.2618 328.029 38.5266 321.624 35.5902C315.219 32.6537 307.189 34.6279 303.687 39.9997C300.186 45.3714 302.54 52.1065 308.945 55.043C315.35 57.9795 323.381 56.0053 326.882 50.6335Z" fill="#FFB8B8"/>
<path d="M313.811 40.6889C312.077 40.3528 310.277 40.7252 308.52 40.9666C306.764 41.208 304.828 41.2876 303.343 40.4657C302.245 39.8588 301.571 38.8546 300.937 37.8887C300.673 37.5438 300.497 37.1566 300.42 36.7517C300.345 36.0373 300.887 35.3856 301.463 34.8551C304.135 32.3913 308.041 31.0428 311.979 30.6145C315.227 30.2085 318.546 30.5484 321.582 31.5979C324.572 32.6977 327.142 34.7117 328.318 37.2661C328.859 38.5735 329.197 39.934 329.324 41.3139C329.501 42.3291 329.524 43.3592 329.391 44.3793C329.233 45.1355 328.996 45.8787 328.683 46.6002L326.736 51.5312C326.596 51.9971 326.334 52.4312 325.97 52.8022C325.783 52.9839 325.531 53.1099 325.251 53.1613C324.972 53.2127 324.68 53.1867 324.419 53.0872C324.575 52.5516 324.599 51.995 324.489 51.4515C324.428 51.1806 324.272 50.9312 324.04 50.7354C323.809 50.5397 323.513 50.4065 323.19 50.3531C322.473 50.2893 321.86 50.7559 321.179 50.9568C320.867 51.0343 320.54 51.0595 320.217 51.0311C319.894 51.0026 319.581 50.9211 319.295 50.7911C319.009 50.6611 318.757 50.4852 318.552 50.2734C318.348 50.0616 318.195 49.8181 318.103 49.5568C318.084 49.5041 318.068 49.4509 318.054 49.3971C317.947 48.8333 318.127 48.2298 317.873 47.7004C317.574 47.0802 316.782 46.7552 316.188 46.3095C315.645 45.8895 315.257 45.3483 315.068 44.7496C314.88 44.1508 314.899 43.5194 315.124 42.9295C315.283 42.5191 315.733 42.3325 315.643 41.8611C315.525 41.2426 314.437 40.8102 313.811 40.6889Z" fill="#2F2E41"/>
<path d="M313.811 40.6889C312.077 40.3528 310.277 40.7252 308.52 40.9666C306.764 41.208 304.828 41.2876 303.343 40.4657C302.245 39.8588 301.571 38.8546 300.937 37.8887C300.673 37.5438 300.497 37.1566 300.42 36.7517C300.345 36.0373 300.887 35.3856 301.463 34.8551C304.135 32.3913 308.041 31.0428 311.979 30.6145C315.227 30.2085 318.546 30.5484 321.582 31.5979C324.572 32.6977 327.142 34.7117 328.318 37.2661C328.859 38.5735 329.197 39.934 329.324 41.3139C329.501 42.3291 329.524 43.3592 329.391 44.3793C329.233 45.1355 328.996 45.8787 328.683 46.6002L326.736 51.5312C326.596 51.9971 326.334 52.4312 325.97 52.8022C325.783 52.9839 325.531 53.1099 325.251 53.1613C324.972 53.2127 324.68 53.1867 324.419 53.0872C324.575 52.5516 324.599 51.995 324.489 51.4515C324.428 51.1806 324.272 50.9312 324.04 50.7354C323.809 50.5397 323.513 50.4065 323.19 50.3531C322.473 50.2893 321.86 50.7559 321.179 50.9568C320.867 51.0343 320.54 51.0595 320.217 51.0311C319.894 51.0026 319.581 50.9211 319.295 50.7911C319.009 50.6611 318.757 50.4852 318.552 50.2734C318.348 50.0616 318.195 49.8181 318.103 49.5568C318.084 49.5041 318.068 49.4509 318.054 49.3971C317.947 48.8333 318.127 48.2298 317.873 47.7004C317.574 47.0802 316.782 46.7552 316.188 46.3095C315.645 45.8895 315.257 45.3483 315.068 44.7496C314.88 44.1508 314.899 43.5194 315.124 42.9295C315.283 42.5191 315.733 42.3325 315.643 41.8611C315.525 41.2426 314.437 40.8102 313.811 40.6889Z" fill="#2F2E41"/>
<path d="M166.866 87.546H0V0H166.866V87.546Z" fill="white"/>
<path d="M166.866 87.546H0V0H166.866V87.546Z" fill="white"/>
<path d="M166.866 87.546H0V0H166.866V87.546ZM0.761949 86.907H166.104V0.639024H0.761949V86.907Z" fill="#3F3D56"/>
<path d="M166.866 87.546H0V0H166.866V87.546ZM0.761949 86.907H166.104V0.639024H0.761949V86.907Z" fill="#3F3D56"/>
<path d="M146.484 208.801H51.2409V121.255H146.484V208.801Z" fill="white"/>
<path d="M146.484 208.8H51.241V121.254H146.484V208.8Z" fill="white"/>
<path d="M146.484 208.801H51.2409V121.255H146.484V208.801ZM52.0029 208.162H145.722V121.894H52.0029V208.162Z" fill="#3F3D56"/>
<path d="M146.484 208.8H51.241V121.254H146.484V208.8ZM52.0029 208.161H145.722V121.893H52.0029V208.161Z" fill="#3F3D56"/>
<path d="M133.531 200.532H113.721V201.206H133.531V200.532Z" fill="#3F3D56"/>
<path d="M133.531 202.553H113.721V203.227H133.531V202.553Z" fill="#3F3D56"/>
<path d="M133.531 204.574H113.721V205.247H133.531V204.574Z" fill="#3F3D56"/>
<path d="M98.8626 136.911V143.94C103.836 143.94 108.697 145.177 112.832 147.494C116.967 149.811 120.19 153.104 122.093 156.958C123.996 160.811 124.494 165.051 123.524 169.142C122.554 173.232 120.159 176.99 116.642 179.939L122.569 184.909C127.257 180.977 130.45 175.967 131.744 170.513C133.038 165.059 132.374 159.405 129.836 154.268C127.299 149.13 123.002 144.739 117.488 141.649C111.975 138.56 105.493 136.911 98.8626 136.911Z" fill="#E6E6E6"/>
<path d="M98.8626 136.911V143.94C103.836 143.94 108.697 145.177 112.832 147.494C116.967 149.811 120.19 153.105 122.093 156.958C123.996 160.811 124.494 165.051 123.524 169.142C122.554 173.233 120.159 176.99 116.642 179.939L122.569 184.91C127.257 180.977 130.45 175.967 131.744 170.513C133.038 165.059 132.374 159.406 129.836 154.268C127.299 149.13 123.002 144.739 117.488 141.649C111.975 138.56 105.493 136.911 98.8626 136.911Z" fill="#E6E6E6"/>
<path d="M122.569 184.909L116.642 179.939C112.343 183.545 106.632 185.722 100.566 186.067C94.4995 186.412 88.4899 184.901 83.65 181.815L78.577 187.413C85.0313 191.527 93.0445 193.54 101.133 193.08C109.221 192.62 116.836 189.717 122.569 184.909Z" fill="#575A89"/>
<path d="M73.7183 165.028C73.7183 162.258 74.3687 159.516 75.6323 156.958C76.8959 154.399 78.7481 152.075 81.0829 150.116C83.4178 148.158 86.1897 146.605 89.2403 145.545C92.2909 144.485 95.5606 143.94 98.8626 143.94V136.911C91.8444 136.911 85.0031 138.758 79.3031 142.192C73.6031 145.626 69.3318 150.473 67.0912 156.051C64.8507 161.629 64.7539 167.656 66.8146 173.283C68.8752 178.909 72.9893 183.852 78.577 187.413L83.65 181.815C80.5612 179.85 78.057 177.312 76.3339 174.399C74.6108 171.487 73.7155 168.279 73.7183 165.028Z" fill="#1FB9EE"/>
<path d="M73.7183 165.028C73.7183 162.259 74.3687 159.516 75.6323 156.958C76.8959 154.399 78.7481 152.075 81.0829 150.117C83.4178 148.158 86.1897 146.605 89.2403 145.545C92.2909 144.486 95.5606 143.94 98.8626 143.94V136.911C91.8444 136.911 85.0031 138.758 79.3031 142.192C73.6031 145.626 69.3318 150.473 67.0912 156.051C64.8507 161.629 64.7539 167.656 66.8146 173.283C68.8752 178.91 72.9893 183.852 78.577 187.413L83.65 181.815C80.5612 179.85 78.057 177.312 76.3339 174.4C74.6108 171.487 73.7155 168.279 73.7183 165.028Z" fill="#1FB9EE"/>
<path d="M287.445 154.484H192.201V66.9375H287.445V154.484Z" fill="white"/>
<path d="M287.445 154.484H192.201V66.9377H287.445V154.484Z" fill="white"/>
<path d="M287.445 154.484H192.201V66.9375H287.445V154.484ZM192.963 153.845H286.683V67.5765H192.963V153.845Z" fill="#3F3D56"/>
<path d="M287.445 154.484H192.201V66.9377H287.445V154.484ZM192.963 153.845H286.683V67.5768H192.963V153.845Z" fill="#3F3D56"/>
<path d="M223.06 120.456H205.916V143.461H223.06V120.456Z" fill="#575A89"/>
<path d="M223.06 120.456H205.916V143.46H223.06V120.456Z" fill="#575A89"/>
<path d="M247.823 104.8H230.679V143.461H247.823V104.8Z" fill="#E6E6E6"/>
<path d="M247.823 104.8H230.679V143.461H247.823V104.8Z" fill="#E6E6E6"/>
<path d="M272.587 86.5876H255.443V143.461H272.587V86.5876Z" fill="#1FB9EE"/>
<path d="M272.587 86.5876H255.443V143.461H272.587V86.5876Z" fill="#1FB9EE"/>
<path d="M278.301 144.1H201.345V77.3218H202.106V143.461H278.301V144.1Z" fill="#3F3D56"/>
<path d="M278.301 144.1H201.345V77.322H202.106V143.461H278.301V144.1Z" fill="#3F3D56"/>
<path d="M259.747 69.2684C262.645 69.2684 264.994 67.2981 264.994 64.8677C264.994 62.4373 262.645 60.467 259.747 60.467C256.849 60.467 254.5 62.4373 254.5 64.8677C254.5 67.2981 256.849 69.2684 259.747 69.2684Z" fill="#FFB8B8"/>
<path d="M259.747 69.2684C262.645 69.2684 264.994 67.2981 264.994 64.8677C264.994 62.4373 262.645 60.467 259.747 60.467C256.849 60.467 254.5 62.4373 254.5 64.8677C254.5 67.2981 256.849 69.2684 259.747 69.2684Z" fill="#FFB8B8"/>
<path d="M367.563 216H285.794C285.678 216 285.567 215.961 285.485 215.893C285.403 215.824 285.356 215.731 285.356 215.633C285.356 215.536 285.403 215.443 285.485 215.374C285.567 215.305 285.678 215.267 285.794 215.267H367.563C367.679 215.267 367.79 215.305 367.872 215.374C367.954 215.443 368 215.536 368 215.633C368 215.731 367.954 215.824 367.872 215.893C367.79 215.961 367.679 216 367.563 216Z" fill="#CCCCCC"/>
<path d="M143.693 69.2369H23.1737C23.0737 69.2369 22.9778 69.2036 22.907 69.1442C22.8363 69.0849 22.7966 69.0044 22.7966 68.9206V20.475C22.7966 20.3911 22.8363 20.3107 22.907 20.2513C22.9778 20.192 23.0737 20.1587 23.1737 20.1587C23.2738 20.1587 23.3697 20.192 23.4404 20.2513C23.5112 20.3107 23.5509 20.3911 23.5509 20.475V68.6042H143.693C143.742 68.6041 143.791 68.6122 143.837 68.628C143.883 68.6438 143.925 68.6671 143.96 68.6965C143.995 68.7259 144.023 68.7608 144.042 68.7993C144.061 68.8377 144.071 68.8789 144.071 68.9206C144.071 68.9622 144.061 69.0034 144.042 69.0419C144.023 69.0803 143.995 69.1152 143.96 69.1446C143.925 69.174 143.883 69.1973 143.837 69.2131C143.791 69.2289 143.742 69.237 143.693 69.2369Z" fill="#3F3D56"/>
<path d="M143.693 69.2364H23.1737C23.0737 69.2364 22.9778 69.2031 22.907 69.1437C22.8363 69.0844 22.7966 69.004 22.7966 68.9201V20.4745C22.7966 20.3906 22.8363 20.3102 22.907 20.2509C22.9778 20.1915 23.0737 20.1582 23.1737 20.1582C23.2738 20.1582 23.3697 20.1915 23.4404 20.2509C23.5112 20.3102 23.5509 20.3906 23.5509 20.4745V68.6038H143.693C143.742 68.6036 143.791 68.6117 143.837 68.6275C143.883 68.6434 143.925 68.6666 143.96 68.696C143.995 68.7254 144.023 68.7603 144.042 68.7988C144.061 68.8372 144.071 68.8784 144.071 68.9201C144.071 68.9617 144.061 69.0029 144.042 69.0414C144.023 69.0798 143.995 69.1147 143.96 69.1441C143.925 69.1735 143.883 69.1968 143.837 69.2126C143.791 69.2285 143.742 69.2365 143.693 69.2364Z" fill="#3F3D56"/>
<path d="M48.9234 65.7573H37.9617C37.6649 65.757 37.3803 65.658 37.1704 65.482C36.9605 65.306 36.8425 65.0673 36.8421 64.8184V52.1455C36.8425 51.8965 36.9605 51.6579 37.1704 51.4819C37.3803 51.3058 37.6649 51.2068 37.9617 51.2065H48.9234C49.2202 51.2068 49.5048 51.3058 49.7147 51.4819C49.9246 51.6579 50.0427 51.8965 50.043 52.1455V64.8184C50.0427 65.0673 49.9246 65.306 49.7147 65.482C49.5048 65.658 49.2202 65.757 48.9234 65.7573Z" fill="#1FB9EE"/>
<path d="M48.9234 65.7573H37.9617C37.6649 65.757 37.3803 65.658 37.1704 65.482C36.9605 65.306 36.8425 65.0673 36.8421 64.8184V52.1455C36.8425 51.8965 36.9605 51.6579 37.1704 51.4819C37.3803 51.3058 37.6649 51.2068 37.9617 51.2065H48.9234C49.2202 51.2068 49.5048 51.3058 49.7147 51.4819C49.9246 51.6579 50.0427 51.8965 50.043 52.1455V64.8184C50.0427 65.0673 49.9246 65.306 49.7147 65.482C49.5048 65.658 49.2202 65.757 48.9234 65.7573Z" fill="#1FB9EE"/>
<path d="M68.9133 65.7572H57.9517C57.6548 65.7569 57.3703 65.6579 57.1604 65.4819C56.9505 65.3059 56.8324 65.0672 56.832 64.8183V40.1252C56.8324 39.8763 56.9505 39.6376 57.1604 39.4616C57.3703 39.2856 57.6548 39.1866 57.9517 39.1863H68.9133C69.2101 39.1866 69.4947 39.2856 69.7046 39.4616C69.9145 39.6376 70.0326 39.8763 70.033 40.1252V64.8183C70.0326 65.0672 69.9145 65.3059 69.7046 65.4819C69.4947 65.6579 69.2101 65.7569 68.9133 65.7572Z" fill="#1FB9EE"/>
<path d="M68.9133 65.7572H57.9517C57.6548 65.7569 57.3703 65.6579 57.1604 65.4819C56.9505 65.3059 56.8324 65.0672 56.832 64.8183V40.1252C56.8324 39.8763 56.9505 39.6376 57.1604 39.4616C57.3703 39.2856 57.6548 39.1866 57.9517 39.1863H68.9133C69.2101 39.1866 69.4947 39.2856 69.7046 39.4616C69.9145 39.6376 70.0326 39.8763 70.033 40.1252V64.8183C70.0326 65.0672 69.9145 65.3059 69.7046 65.4819C69.4947 65.6579 69.2101 65.7569 68.9133 65.7572Z" fill="#1FB9EE"/>
<path d="M88.9033 65.7573H77.9417C77.6448 65.757 77.3603 65.658 77.1504 65.482C76.9405 65.306 76.8224 65.0673 76.822 64.8184V52.1455C76.8224 51.8965 76.9405 51.6579 77.1504 51.4819C77.3603 51.3058 77.6448 51.2068 77.9417 51.2065H88.9033C89.2001 51.2068 89.4847 51.3058 89.6946 51.4819C89.9045 51.6579 90.0226 51.8965 90.023 52.1455V64.8184C90.0226 65.0673 89.9045 65.306 89.6946 65.482C89.4847 65.658 89.2001 65.757 88.9033 65.7573Z" fill="#1FB9EE"/>
<path d="M88.9033 65.7573H77.9417C77.6448 65.757 77.3603 65.658 77.1504 65.482C76.9405 65.306 76.8224 65.0673 76.822 64.8184V52.1455C76.8224 51.8965 76.9405 51.6579 77.1504 51.4819C77.3603 51.3058 77.6448 51.2068 77.9417 51.2065H88.9033C89.2001 51.2068 89.4847 51.3058 89.6946 51.4819C89.9045 51.6579 90.0226 51.8965 90.023 52.1455V64.8184C90.0226 65.0673 89.9045 65.306 89.6946 65.482C89.4847 65.658 89.2001 65.757 88.9033 65.7573Z" fill="#1FB9EE"/>
<path d="M108.893 65.7573H97.9316C97.6416 65.7626 97.3609 65.6712 97.151 65.5032C96.9411 65.3351 96.8192 65.1042 96.812 64.861V35.338C96.8192 35.0948 96.9411 34.8638 97.151 34.6958C97.3609 34.5278 97.6416 34.4364 97.9316 34.4416H108.893C109.183 34.4364 109.464 34.5278 109.674 34.6958C109.884 34.8638 110.006 35.0948 110.013 35.338V64.861C110.006 65.1042 109.884 65.3351 109.674 65.5032C109.464 65.6712 109.183 65.7626 108.893 65.7573Z" fill="#1FB9EE"/>
<path d="M108.893 65.7571H97.9316C97.6416 65.7623 97.3609 65.6709 97.151 65.5029C96.9411 65.3349 96.8192 65.104 96.812 64.8607V35.3378C96.8192 35.0945 96.9411 34.8636 97.151 34.6956C97.3609 34.5275 97.6416 34.4361 97.9316 34.4414H108.893C109.183 34.4361 109.464 34.5275 109.674 34.6956C109.884 34.8636 110.006 35.0945 110.013 35.3378V64.8607C110.006 65.104 109.884 65.3349 109.674 65.5029C109.464 65.6709 109.183 65.7623 108.893 65.7571Z" fill="#1FB9EE"/>
<path d="M128.883 65.7573H117.922C117.625 65.757 117.34 65.658 117.13 65.482C116.92 65.3059 116.802 65.0673 116.802 64.8184V26.8398C116.802 26.5909 116.92 26.3522 117.13 26.1762C117.34 26.0002 117.625 25.9012 117.922 25.9009H128.883C129.18 25.9012 129.465 26.0002 129.675 26.1762C129.884 26.3522 130.002 26.5909 130.003 26.8398V64.8184C130.002 65.0673 129.884 65.3059 129.675 65.482C129.465 65.658 129.18 65.757 128.883 65.7573Z" fill="#1FB9EE"/>
<path d="M128.883 65.7578H117.922C117.625 65.7575 117.34 65.6585 117.13 65.4825C116.92 65.3064 116.802 65.0678 116.802 64.8188V26.8403C116.802 26.5914 116.92 26.3527 117.13 26.1767C117.34 26.0007 117.625 25.9016 117.922 25.9014H128.883C129.18 25.9016 129.465 26.0007 129.675 26.1767C129.884 26.3527 130.002 26.5914 130.003 26.8403V64.8188C130.002 65.0678 129.884 65.3064 129.675 65.4825C129.465 65.6585 129.18 65.7575 128.883 65.7578Z" fill="#1FB9EE"/>
<path d="M43.4426 47.4106C44.6924 47.4106 45.7056 46.5609 45.7056 45.5127C45.7056 44.4645 44.6924 43.6147 43.4426 43.6147C42.1927 43.6147 41.1796 44.4645 41.1796 45.5127C41.1796 46.5609 42.1927 47.4106 43.4426 47.4106Z" fill="#3F3D56"/>
<path d="M43.4426 47.4108C44.6924 47.4108 45.7056 46.5611 45.7056 45.5129C45.7056 44.4647 44.6924 43.615 43.4426 43.615C42.1927 43.615 41.1796 44.4647 41.1796 45.5129C41.1796 46.5611 42.1927 47.4108 43.4426 47.4108Z" fill="#3F3D56"/>
<path d="M63.4325 35.0742C64.6823 35.0742 65.6955 34.2244 65.6955 33.1762C65.6955 32.1281 64.6823 31.2783 63.4325 31.2783C62.1827 31.2783 61.1695 32.1281 61.1695 33.1762C61.1695 34.2244 62.1827 35.0742 63.4325 35.0742Z" fill="#3F3D56"/>
<path d="M63.4325 35.0739C64.6823 35.0739 65.6955 34.2242 65.6955 33.176C65.6955 32.1278 64.6823 31.2781 63.4325 31.2781C62.1827 31.2781 61.1695 32.1278 61.1695 33.176C61.1695 34.2242 62.1827 35.0739 63.4325 35.0739Z" fill="#3F3D56"/>
<path d="M83.4225 47.4106C84.6723 47.4106 85.6855 46.5609 85.6855 45.5127C85.6855 44.4645 84.6723 43.6147 83.4225 43.6147C82.1727 43.6147 81.1595 44.4645 81.1595 45.5127C81.1595 46.5609 82.1727 47.4106 83.4225 47.4106Z" fill="#3F3D56"/>
<path d="M83.4225 47.4108C84.6723 47.4108 85.6855 46.5611 85.6855 45.5129C85.6855 44.4647 84.6723 43.615 83.4225 43.615C82.1727 43.615 81.1595 44.4647 81.1595 45.5129C81.1595 46.5611 82.1727 47.4108 83.4225 47.4108Z" fill="#3F3D56"/>
<path d="M103.412 29.0642C104.662 29.0642 105.675 28.2144 105.675 27.1662C105.675 26.118 104.662 25.2683 103.412 25.2683C102.163 25.2683 101.149 26.118 101.149 27.1662C101.149 28.2144 102.163 29.0642 103.412 29.0642Z" fill="#3F3D56"/>
<path d="M103.412 29.0639C104.662 29.0639 105.675 28.2142 105.675 27.166C105.675 26.1178 104.662 25.2681 103.412 25.2681C102.163 25.2681 101.149 26.1178 101.149 27.166C101.149 28.2142 102.163 29.0639 103.412 29.0639Z" fill="#3F3D56"/>
<path d="M123.402 22.1052C124.652 22.1052 125.665 21.2554 125.665 20.2073C125.665 19.1591 124.652 18.3093 123.402 18.3093C122.153 18.3093 121.139 19.1591 121.139 20.2073C121.139 21.2554 122.153 22.1052 123.402 22.1052Z" fill="#3F3D56"/>
<path d="M123.402 22.1047C124.652 22.1047 125.665 21.255 125.665 20.2068C125.665 19.1586 124.652 18.3088 123.402 18.3088C122.153 18.3088 121.139 19.1586 121.139 20.2068C121.139 21.255 122.153 22.1047 123.402 22.1047Z" fill="#3F3D56"/>
<path d="M83.4699 45.9379L63.4326 33.3509L43.6686 45.7659L43.2164 45.2595L63.4326 32.5602L83.3746 45.0875L103.192 26.8999L103.272 26.8727L123.261 20.1177L123.543 20.7048L103.633 27.4327L83.4699 45.9379Z" fill="#3F3D56"/>
<path d="M83.4699 45.9377L63.4326 33.3506L43.6686 45.7657L43.2164 45.2592L63.4326 32.56L83.3746 45.0872L103.192 26.8996L103.272 26.8725L123.261 20.1174L123.543 20.7046L103.633 27.4325L83.4699 45.9377Z" fill="#3F3D56"/>
<rect x="18.7516" y="159.84" width="330.497" height="47.52" fill="#E1F3FF"/>
<path d="M51.812 177.83V179.538H64.202V177.83H51.812ZM54.696 184.186V185.894H61.192V184.186H54.696ZM57.09 175.114V188.26H58.882V175.114H57.09ZM56.586 178.446C55.592 181.022 53.562 183.542 51.266 184.802C51.644 185.138 52.204 185.782 52.484 186.202C54.934 184.662 56.922 181.988 58.126 178.936L56.586 178.446ZM59.386 178.488L57.86 178.992C59.078 181.974 61.038 184.648 63.502 186.16C63.782 185.684 64.384 184.984 64.804 184.634C62.452 183.416 60.408 180.98 59.386 178.488ZM72.854 176.598V178.026H76.536V176.598H72.854ZM71.398 183.01V188.26H72.952V184.424H75.892V188.218H77.516V183.01H71.398ZM72.028 186.342V187.784H76.774V186.342H72.028ZM73.008 175.1C72.378 176.752 71.244 178.348 69.97 179.328C70.334 179.58 70.978 180.168 71.258 180.462C72.546 179.314 73.834 177.466 74.604 175.548L73.008 175.1ZM76.102 176.598V176.864C75.206 179.664 72.63 181.806 69.732 182.702C70.054 183.024 70.474 183.654 70.67 184.06C73.848 182.87 76.578 180.602 77.74 177.018L76.676 176.542L76.396 176.598H76.102ZM72.91 177.564L71.664 178.208C72.658 180.35 74.73 182.66 77.754 183.738C77.978 183.318 78.454 182.66 78.79 182.338C75.822 181.512 73.806 179.44 72.91 177.564ZM65.616 177.998V179.566H70.628V177.998H65.616ZM67.478 175.114V188.26H69.06V175.114H67.478ZM67.436 179.076C67.086 180.868 66.232 183.052 65.28 184.27C65.546 184.676 65.924 185.334 66.064 185.796C67.114 184.354 67.982 181.666 68.402 179.412L67.436 179.076ZM69.004 179.832L68.248 180.532C68.654 181.106 69.48 182.436 69.816 183.122L70.726 181.862C70.474 181.526 69.326 180.14 69.004 179.832ZM81.002 177.382V178.852H83.774V185.334H81.002V186.818H85.3V177.382H81.002ZM80.022 177.382V187.854H81.548V177.382H80.022ZM80.932 181.12V182.576H84.516V181.12H80.932ZM82.01 175.1C81.94 175.87 81.744 176.948 81.548 177.676L82.892 177.97C83.172 177.312 83.522 176.318 83.844 175.366L82.01 175.1ZM87.148 177.284V178.81H91.236V177.284H87.148ZM90.662 177.284V177.606C90.508 183.444 90.326 185.852 89.878 186.328C89.696 186.524 89.542 186.58 89.262 186.58C88.912 186.58 88.072 186.566 87.162 186.496C87.47 186.944 87.694 187.658 87.722 188.12C88.534 188.162 89.388 188.176 89.92 188.092C90.494 188.008 90.886 187.854 91.278 187.308C91.852 186.566 92.02 184.34 92.202 178.04C92.216 177.83 92.216 177.284 92.216 177.284H90.662ZM87.19 175.114C86.742 176.976 85.944 178.88 85.006 180.056C85.398 180.28 86.084 180.756 86.392 181.036C87.344 179.692 88.254 177.564 88.8 175.492L87.19 175.114ZM86.504 181.316C87.176 182.352 88.058 183.724 88.436 184.578L89.864 183.71C89.43 182.884 88.506 181.54 87.82 180.574L86.504 181.316ZM94.148 177.83L94.274 179.468C94.876 179.496 95.464 179.51 96.024 179.51C97.816 179.524 99.832 179.16 101.036 178.824L100.994 177.2C99.636 177.634 97.746 177.928 96.01 177.928C95.506 177.928 94.75 177.9 94.148 177.83ZM99.594 175.73L97.662 175.548C97.62 176.626 97.312 177.928 96.976 178.936C96.43 180.448 95.17 182.898 93.91 184.438L95.604 185.306C96.794 183.654 98.054 181.05 98.698 179.034C99.076 177.844 99.412 176.472 99.594 175.73ZM102.884 180.098H101.12C101.19 181.568 101.344 184.144 101.344 184.984C101.344 185.768 101.036 186.3 100.084 186.3C99.314 186.3 98.866 185.936 98.866 185.418C98.866 184.928 99.398 184.578 100.21 184.578C102.324 184.578 103.92 186.02 104.928 186.958L105.852 185.446C104.69 184.396 102.758 183.164 100.308 183.164C98.362 183.164 97.214 184.228 97.214 185.586C97.214 187.126 98.586 187.91 100.322 187.91C102.324 187.91 103.024 186.888 103.024 185.586C103.024 184.802 102.898 182.716 102.87 181.89C102.856 181.274 102.842 180.686 102.884 180.098ZM105.292 180.84L106.286 179.356C105.558 178.838 103.836 177.9 102.828 177.466L101.918 178.838C102.884 179.272 104.48 180.182 105.292 180.84ZM116.576 175.786H114.574C114.644 176.164 114.672 176.612 114.714 177.214C114.826 179.524 114.854 183.36 114.854 185.292C114.854 185.684 114.728 185.866 114.378 185.866C113.902 185.866 113.146 185.81 112.502 185.712L112.67 187.532C113.468 187.588 114.238 187.616 115.092 187.616C116.156 187.616 116.674 187.098 116.66 186.202C116.632 183.374 116.534 179.524 116.492 177.214C116.478 176.766 116.506 176.234 116.576 175.786ZM108.582 178.124V179.986C109.072 179.958 109.66 179.93 110.178 179.93C110.948 179.93 117.794 179.93 118.34 179.93C118.718 179.93 119.264 179.944 119.698 179.958V178.11C119.362 178.152 118.704 178.222 118.256 178.222C117.57 178.222 111.102 178.222 110.122 178.222C109.646 178.222 108.974 178.166 108.582 178.124ZM107.826 184.788L109.114 186.244C111.522 184.97 114 182.772 115.134 181.078L115.12 179.58H114.21C113.202 181.232 110.752 183.388 107.826 184.788ZM128.332 176.444L126.106 175.996C126.05 176.458 125.98 176.906 125.784 177.606C125.322 179.23 123.866 183.822 123.11 185.614L125.168 185.544C125.77 184.088 127.226 179.58 127.744 178.012C127.954 177.382 128.15 176.864 128.332 176.444ZM130.838 180.966L129.102 181.694C130.096 183.038 131.398 185.936 132.028 187.63L133.918 186.79C133.274 185.236 131.846 182.478 130.838 180.966ZM122.97 184.984C122.522 184.998 121.906 185.012 121.43 184.998L121.766 187.056C122.2 187 122.732 186.93 123.082 186.888C124.972 186.692 129.788 186.188 131.86 185.922L131.454 184.13C129.494 184.396 124.916 184.914 122.97 184.984ZM136.942 177.494V179.524C137.418 179.51 138.062 179.482 138.594 179.482C139.378 179.482 143.648 179.482 144.39 179.482C144.88 179.482 145.538 179.51 145.944 179.524V177.494C145.538 177.55 144.95 177.578 144.39 177.578C143.62 177.578 139.77 177.578 138.594 177.578C138.104 177.578 137.46 177.55 136.942 177.494ZM135.766 184.354V186.496C136.298 186.44 136.97 186.398 137.53 186.398C138.412 186.398 144.684 186.398 145.566 186.398C145.972 186.398 146.602 186.44 147.106 186.496V184.354C146.63 184.396 146.028 184.438 145.566 184.438C144.684 184.438 138.412 184.438 137.53 184.438C136.97 184.438 136.312 184.382 135.766 184.354ZM150.704 176.948L151.152 178.572C152.37 178.544 154.428 178.488 156.024 178.264C157.102 178.11 158.222 177.928 159.09 177.704C159.314 177.648 159.692 177.55 160.168 177.424L159.006 175.884C158.306 176.22 156.892 176.528 155.478 176.738C153.938 176.962 151.782 176.976 150.704 176.948ZM151.306 186.608L153.098 187.812C155.8 186.188 156.724 183.794 156.724 180.966C156.724 180.966 156.724 179.104 156.724 177.9L154.89 178.11C154.89 180.098 154.89 181.008 154.89 181.008C154.89 183.626 153.784 185.474 151.306 186.608ZM149.654 180.308V182.114C150.018 182.086 150.536 182.058 150.97 182.058C151.796 182.058 159.412 182.058 160.294 182.058C160.686 182.058 161.148 182.086 161.526 182.114V180.308C161.218 180.336 160.56 180.378 160.266 180.378C159.328 180.378 151.838 180.378 150.956 180.378C150.508 180.378 150.046 180.336 149.654 180.308ZM168.039 178.11L166.149 178.558C166.303 178.852 166.457 179.202 166.555 179.552C167.003 181.008 168.277 186.006 168.627 187.224C168.739 187.616 168.823 188.078 168.879 188.456L170.769 187.98C170.671 187.7 170.475 187.084 170.405 186.832C170.055 185.67 168.739 180.854 168.263 179.174C168.179 178.81 168.081 178.446 168.039 178.11ZM174.759 180.28L173.625 179.482C173.443 179.566 173.163 179.65 172.925 179.706C171.931 179.93 166.331 180.994 165.575 181.106C165.113 181.19 164.721 181.232 164.287 181.274L164.721 182.94C165.869 182.688 171.567 181.498 172.295 181.372C171.917 182.058 170.951 183.234 170.223 183.878L171.777 184.648C172.757 183.612 174.157 181.498 174.759 180.28ZM184.517 175.576H182.515C182.571 175.912 182.585 176.416 182.585 176.864C182.585 177.354 182.585 177.998 182.585 178.418H184.419C184.419 177.998 184.419 177.284 184.419 176.864C184.419 176.43 184.461 175.898 184.517 175.576ZM188.423 178.572L187.261 177.452C186.939 177.536 186.533 177.578 186.099 177.578C185.273 177.578 180.793 177.578 180.163 177.578C179.687 177.578 178.903 177.564 178.371 177.494V179.328C178.819 179.286 179.701 179.258 180.205 179.258C180.793 179.258 184.517 179.258 185.273 179.258C184.853 179.832 183.985 180.658 182.907 181.344C181.703 182.128 179.911 183.094 177.209 183.696L178.287 185.348C180.457 184.69 182.599 183.766 184.111 182.688C185.385 181.792 186.561 180.63 187.345 179.734C187.639 179.398 188.073 178.936 188.423 178.572ZM184.391 181.624L182.571 182.38C182.571 183.22 182.571 184.942 182.571 186.02C182.571 186.566 182.515 187.406 182.473 187.798H184.475C184.433 187.364 184.391 186.566 184.391 186.02C184.391 184.886 184.391 182.632 184.391 181.624ZM188.633 185.474L189.795 183.934C188.451 183.024 187.723 182.604 186.435 181.918L185.287 183.248C186.491 183.934 187.415 184.522 188.633 185.474ZM197.467 186.692L198.643 187.658C198.783 187.56 198.951 187.406 199.245 187.252C200.827 186.454 202.829 184.942 203.991 183.43L202.927 181.876C201.975 183.234 200.603 184.34 199.455 184.83C199.455 183.976 199.455 178.642 199.455 177.522C199.455 176.892 199.553 176.332 199.553 176.304H197.481C197.481 176.332 197.579 176.878 197.579 177.508C197.579 178.642 197.579 184.928 197.579 185.67C197.579 186.048 197.537 186.426 197.467 186.692ZM190.985 186.496L192.693 187.63C193.897 186.566 194.765 185.18 195.199 183.612C195.563 182.198 195.605 179.244 195.605 177.578C195.605 177.004 195.703 176.374 195.703 176.318H193.645C193.729 176.668 193.785 177.032 193.785 177.606C193.785 179.286 193.771 181.946 193.365 183.136C192.987 184.34 192.231 185.628 190.985 186.496ZM211.285 178.236V179.846H217.963V178.236H211.285ZM205.083 177.27V178.824H211.747V177.27H205.083ZM214.799 175.114V186.16C214.799 186.398 214.715 186.468 214.477 186.482C214.225 186.482 213.469 186.482 212.685 186.44C212.923 186.958 213.161 187.756 213.217 188.246C214.393 188.246 215.219 188.19 215.751 187.896C216.283 187.602 216.465 187.126 216.465 186.174V175.114H214.799ZM211.131 181.61C211.775 182.562 212.377 183.85 212.587 184.676L214.043 183.934C213.819 183.094 213.147 181.876 212.489 180.952L211.131 181.61ZM205.349 180.798C207.001 182.646 208.919 185.166 209.661 186.846L211.005 185.698C210.193 184.032 208.205 181.624 206.525 179.846L205.349 180.798ZM207.533 175.128V178.222H209.143V175.128H207.533ZM209.059 179.104C208.499 182.688 207.225 185.362 204.691 186.846C205.027 187.14 205.615 187.826 205.825 188.162C208.527 186.356 209.969 183.402 210.683 179.342L209.059 179.104ZM224.431 181.036V185.922C224.431 187.49 224.795 188.008 226.293 188.008C226.573 188.008 227.553 188.008 227.847 188.008C229.163 188.008 229.569 187.322 229.723 184.914C229.289 184.802 228.589 184.522 228.239 184.242C228.183 186.16 228.113 186.496 227.693 186.496C227.469 186.496 226.741 186.496 226.559 186.496C226.167 186.496 226.083 186.44 226.083 185.922V181.036H224.431ZM222.429 182.114C222.303 183.682 221.995 185.306 221.407 186.384L222.905 187.042C223.535 185.908 223.801 184.06 223.941 182.45L222.429 182.114ZM224.529 179.482C225.677 180.07 227.161 181.022 227.847 181.666L229.065 180.42C228.295 179.762 226.769 178.908 225.649 178.376L224.529 179.482ZM228.799 182.324C229.611 183.822 230.353 185.768 230.535 187.028L232.187 186.356C231.963 185.068 231.137 183.192 230.297 181.736L228.799 182.324ZM225.005 175.114V177.662H226.755V175.114H225.005ZM220.777 176.752V178.348H231.837V176.752H220.777ZM219.979 176.752V180.294C219.979 182.324 219.895 185.278 218.719 187.294C219.125 187.462 219.867 187.952 220.175 188.232C221.449 186.034 221.659 182.562 221.659 180.294V176.752H219.979ZM239.243 175.772L237.395 175.618C237.353 176.332 237.171 177.186 236.891 177.942C236.303 179.482 235.225 180.994 233.433 182.646L234.931 183.766C235.407 183.15 235.799 182.646 236.219 182.226C236.751 181.722 237.633 181.26 238.403 181.26C238.991 181.26 239.551 181.554 239.551 182.45C239.565 183.206 239.537 184.396 239.481 185.054H241.161C241.147 184.172 241.105 182.646 241.105 181.89C241.105 180.588 240.223 179.902 239.061 179.902C238.585 179.902 237.843 180 237.465 180.168C237.857 179.608 238.263 178.81 238.557 178.124C238.949 177.116 239.131 176.29 239.243 175.772ZM233.965 177.074V178.698C234.735 178.768 235.757 178.796 236.331 178.796C238.039 178.796 240.853 178.67 242.827 178.39L242.841 176.766C240.811 177.13 238.277 177.228 236.429 177.228C235.715 177.228 234.679 177.172 233.965 177.074ZM245.053 181.05L244.367 179.412C243.835 179.678 243.345 179.902 242.799 180.14C241.959 180.532 241.077 180.868 239.789 181.54C238.109 182.38 236.107 183.528 236.107 185.474C236.107 187.28 237.745 187.826 239.929 187.826C241.259 187.826 242.967 187.7 243.905 187.574L243.961 185.768C242.729 186.02 241.161 186.174 239.971 186.174C238.613 186.174 237.941 185.964 237.941 185.194C237.941 184.424 238.627 183.822 239.901 183.164C241.217 182.492 242.477 181.988 243.387 181.638C243.863 181.456 244.619 181.176 245.053 181.05ZM252.557 175.128V177.368H254.279V175.128H252.557ZM247.433 176.346V179.356H249.099V177.816H257.695V179.356H259.431V176.346H247.433ZM248.679 178.922V180.28H258.297V178.922H248.679ZM247.321 183.36V184.816H259.627V183.36H247.321ZM248.903 181.12V182.478H258.017V181.12H248.903ZM254.265 183.654L252.753 183.962C253.831 186.454 255.623 187.784 258.829 188.302C259.039 187.854 259.473 187.182 259.823 186.832C256.911 186.524 255.091 185.502 254.265 183.654ZM252.515 178.124V182.002C252.515 183.878 251.899 185.796 247.055 186.902C247.419 187.252 247.909 187.896 248.091 188.26C253.187 186.888 254.209 184.48 254.209 182.016V178.124H252.515ZM261.013 175.842V177.396H265.941V175.842H261.013ZM261.139 179.846V181.386H265.787V179.846H261.139ZM260.677 184.704L261.097 186.3C262.553 185.866 264.457 185.32 266.221 184.788L265.997 183.318C264.065 183.85 262.035 184.396 260.677 184.704ZM268.041 179.146H271.723V180.014H268.041V179.146ZM268.041 181.302H271.723V182.156H268.041V181.302ZM268.041 177.018H271.723V177.872H268.041V177.018ZM266.487 175.646V183.542H273.361V175.646H266.487ZM270.015 182.926V186.3C270.015 187.714 270.295 188.19 271.597 188.19C271.835 188.19 272.409 188.19 272.661 188.19C273.683 188.19 274.075 187.658 274.215 185.74C273.795 185.642 273.123 185.376 272.801 185.124C272.773 186.524 272.717 186.748 272.479 186.748C272.353 186.748 271.989 186.748 271.891 186.748C271.667 186.748 271.625 186.706 271.625 186.286V182.926H270.015ZM267.537 183.332C267.355 185.11 266.991 186.3 264.331 186.972C264.667 187.294 265.087 187.938 265.255 188.358C268.363 187.42 268.965 185.726 269.175 183.332H267.537ZM262.707 176.458V184.928L264.331 184.69V176.458H262.707ZM279.633 175.898L277.379 175.884C277.491 176.43 277.547 177.102 277.547 177.774C277.547 178.978 277.421 182.646 277.421 184.522C277.421 186.916 278.891 187.924 281.187 187.924C284.379 187.924 286.367 186.062 287.277 184.718L286.003 183.164C284.981 184.69 283.525 186.02 281.215 186.02C280.123 186.02 279.283 185.558 279.283 184.144C279.283 182.408 279.381 179.286 279.451 177.774C279.479 177.214 279.549 176.486 279.633 175.898ZM295.061 175.828L292.919 175.66C292.961 175.996 292.947 176.57 292.877 177.088C292.779 177.914 292.457 179.454 292.107 180.77C291.575 182.73 290.511 185.656 289.685 187.07L291.631 187.728C292.401 186.062 293.339 183.206 293.843 181.246C294.221 179.818 294.571 178.11 294.767 177.158C294.837 176.85 294.963 176.22 295.061 175.828ZM291.491 177.928C290.917 177.928 290.455 177.9 289.727 177.816L289.783 179.566C290.273 179.594 290.791 179.622 291.477 179.622C293.059 179.622 295.257 179.384 296.993 178.978V177.228C295.173 177.662 293.199 177.928 291.491 177.928ZM295.887 180.07V181.708C296.769 181.596 297.637 181.554 298.603 181.554C299.443 181.554 300.297 181.652 301.011 181.736L301.039 180.056C300.227 179.972 299.387 179.93 298.589 179.93C297.679 179.93 296.671 179.986 295.887 180.07ZM296.643 183.584L294.977 183.43C294.865 183.976 294.739 184.648 294.739 185.306C294.739 186.72 295.999 187.518 298.365 187.518C299.485 187.518 300.423 187.434 301.207 187.322L301.277 185.544C300.283 185.726 299.317 185.824 298.379 185.824C296.867 185.824 296.461 185.362 296.461 184.746C296.461 184.438 296.545 183.99 296.643 183.584ZM306.065 177.004L303.909 176.976C304.007 177.41 304.021 178.012 304.021 178.39C304.021 179.244 304.035 180.896 304.175 182.184C304.567 185.936 305.897 187.308 307.451 187.308C308.571 187.308 309.439 186.468 310.377 184.018L308.963 182.324C308.697 183.43 308.151 185.082 307.479 185.082C306.597 185.082 306.177 183.696 305.981 181.68C305.897 180.658 305.897 179.622 305.897 178.712C305.897 178.32 305.967 177.494 306.065 177.004ZM313.065 177.312L311.287 177.9C312.813 179.636 313.569 183.024 313.779 185.292L315.627 184.564C315.473 182.422 314.395 178.922 313.065 177.312Z" fill="#333333"/>
</g>
<defs>
<clipPath id="clip0_68_506">
<rect width="368" height="216" fill="white"/>
</clipPath>
</defs>
</svg>
